<?xml version="1.0" encoding="utf-8" standalone="no"?>
<!DOCTYPE svg PUBLIC "-//W3C//DTD SVG 1.1//EN"
  "http://www.w3.org/Graphics/SVG/1.1/DTD/svg11.dtd">
<svg xmlns:xlink="http://www.w3.org/1999/xlink" width="1334.88pt" height="722.88pt" viewBox="0 0 1334.88 722.88" xmlns="http://www.w3.org/2000/svg" version="1.1">
 <metadata>
  <rdf:RDF xmlns:dc="http://purl.org/dc/elements/1.1/" xmlns:cc="http://creativecommons.org/ns#" xmlns:rdf="http://www.w3.org/1999/02/22-rdf-syntax-ns#">
   <cc:Work>
    <dc:type rdf:resource="http://purl.org/dc/dcmitype/StillImage"/>
    <dc:date>2023-06-21T14:54:46.934890</dc:date>
    <dc:format>image/svg+xml</dc:format>
    <dc:creator>
     <cc:Agent>
      <dc:title>Matplotlib v3.5.1, https://matplotlib.org/</dc:title>
     </cc:Agent>
    </dc:creator>
   </cc:Work>
  </rdf:RDF>
 </metadata>
 <defs>
  <style type="text/css">*{stroke-linejoin: round; stroke-linecap: butt}</style>
 </defs>
 <g id="figure_1">
  <g id="patch_1">
   <path d="M 0 722.88 
L 1334.88 722.88 
L 1334.88 0 
L 0 0 
z
" style="fill: #ffffff"/>
  </g>
  <g id="axes_1">
   <g id="patch_2">
    <path d="M 166.86 643.3632 
L 1201.392 643.3632 
L 1201.392 86.7456 
L 166.86 86.7456 
z
" style="fill: #ffffff"/>
   </g>
   <g id="matplotlib.axis_1">
    <g id="xtick_1">
     <g id="line2d_1">
      <defs>
       <path id="m01d863dbdd" d="M 0 0 
L 0 3.5 
" style="stroke: #000000; stroke-width: 0.8"/>
      </defs>
      <g>
       <use xlink:href="#m01d863dbdd" x="230.195226" y="643.3632" style="stroke: #000000; stroke-width: 0.8"/>
      </g>
     </g>
     <g id="text_1">
      <!-- 0.0 -->
      <g transform="translate(222.243663 657.961637)scale(0.1 -0.1)">
       <defs>
        <path id="DejaVuSans-30" d="M 2034 4250 
Q 1547 4250 1301 3770 
Q 1056 3291 1056 2328 
Q 1056 1369 1301 889 
Q 1547 409 2034 409 
Q 2525 409 2770 889 
Q 3016 1369 3016 2328 
Q 3016 3291 2770 3770 
Q 2525 4250 2034 4250 
z
M 2034 4750 
Q 2819 4750 3233 4129 
Q 3647 3509 3647 2328 
Q 3647 1150 3233 529 
Q 2819 -91 2034 -91 
Q 1250 -91 836 529 
Q 422 1150 422 2328 
Q 422 3509 836 4129 
Q 1250 4750 2034 4750 
z
" transform="scale(0.015625)"/>
        <path id="DejaVuSans-2e" d="M 684 794 
L 1344 794 
L 1344 0 
L 684 0 
L 684 794 
z
" transform="scale(0.015625)"/>
       </defs>
       <use xlink:href="#DejaVuSans-30"/>
       <use xlink:href="#DejaVuSans-2e" x="63.623047"/>
       <use xlink:href="#DejaVuSans-30" x="95.410156"/>
      </g>
     </g>
    </g>
    <g id="xtick_2">
     <g id="line2d_2">
      <g>
       <use xlink:href="#m01d863dbdd" x="345.531722" y="643.3632" style="stroke: #000000; stroke-width: 0.8"/>
      </g>
     </g>
     <g id="text_2">
      <!-- 2.5 -->
      <g transform="translate(337.58016 657.961637)scale(0.1 -0.1)">
       <defs>
        <path id="DejaVuSans-32" d="M 1228 531 
L 3431 531 
L 3431 0 
L 469 0 
L 469 531 
Q 828 903 1448 1529 
Q 2069 2156 2228 2338 
Q 2531 2678 2651 2914 
Q 2772 3150 2772 3378 
Q 2772 3750 2511 3984 
Q 2250 4219 1831 4219 
Q 1534 4219 1204 4116 
Q 875 4013 500 3803 
L 500 4441 
Q 881 4594 1212 4672 
Q 1544 4750 1819 4750 
Q 2544 4750 2975 4387 
Q 3406 4025 3406 3419 
Q 3406 3131 3298 2873 
Q 3191 2616 2906 2266 
Q 2828 2175 2409 1742 
Q 1991 1309 1228 531 
z
" transform="scale(0.015625)"/>
        <path id="DejaVuSans-35" d="M 691 4666 
L 3169 4666 
L 3169 4134 
L 1269 4134 
L 1269 2991 
Q 1406 3038 1543 3061 
Q 1681 3084 1819 3084 
Q 2600 3084 3056 2656 
Q 3513 2228 3513 1497 
Q 3513 744 3044 326 
Q 2575 -91 1722 -91 
Q 1428 -91 1123 -41 
Q 819 9 494 109 
L 494 744 
Q 775 591 1075 516 
Q 1375 441 1709 441 
Q 2250 441 2565 725 
Q 2881 1009 2881 1497 
Q 2881 1984 2565 2268 
Q 2250 2553 1709 2553 
Q 1456 2553 1204 2497 
Q 953 2441 691 2322 
L 691 4666 
z
" transform="scale(0.015625)"/>
       </defs>
       <use xlink:href="#DejaVuSans-32"/>
       <use xlink:href="#DejaVuSans-2e" x="63.623047"/>
       <use xlink:href="#DejaVuSans-35" x="95.410156"/>
      </g>
     </g>
    </g>
    <g id="xtick_3">
     <g id="line2d_3">
      <g>
       <use xlink:href="#m01d863dbdd" x="460.868219" y="643.3632" style="stroke: #000000; stroke-width: 0.8"/>
      </g>
     </g>
     <g id="text_3">
      <!-- 5.0 -->
      <g transform="translate(452.916657 657.961637)scale(0.1 -0.1)">
       <use xlink:href="#DejaVuSans-35"/>
       <use xlink:href="#DejaVuSans-2e" x="63.623047"/>
       <use xlink:href="#DejaVuSans-30" x="95.410156"/>
      </g>
     </g>
    </g>
    <g id="xtick_4">
     <g id="line2d_4">
      <g>
       <use xlink:href="#m01d863dbdd" x="576.204716" y="643.3632" style="stroke: #000000; stroke-width: 0.8"/>
      </g>
     </g>
     <g id="text_4">
      <!-- 7.5 -->
      <g transform="translate(568.253154 657.961637)scale(0.1 -0.1)">
       <defs>
        <path id="DejaVuSans-37" d="M 525 4666 
L 3525 4666 
L 3525 4397 
L 1831 0 
L 1172 0 
L 2766 4134 
L 525 4134 
L 525 4666 
z
" transform="scale(0.015625)"/>
       </defs>
       <use xlink:href="#DejaVuSans-37"/>
       <use xlink:href="#DejaVuSans-2e" x="63.623047"/>
       <use xlink:href="#DejaVuSans-35" x="95.410156"/>
      </g>
     </g>
    </g>
    <g id="xtick_5">
     <g id="line2d_5">
      <g>
       <use xlink:href="#m01d863dbdd" x="691.541213" y="643.3632" style="stroke: #000000; stroke-width: 0.8"/>
      </g>
     </g>
     <g id="text_5">
      <!-- 10.0 -->
      <g transform="translate(680.408401 657.961637)scale(0.1 -0.1)">
       <defs>
        <path id="DejaVuSans-31" d="M 794 531 
L 1825 531 
L 1825 4091 
L 703 3866 
L 703 4441 
L 1819 4666 
L 2450 4666 
L 2450 531 
L 3481 531 
L 3481 0 
L 794 0 
L 794 531 
z
" transform="scale(0.015625)"/>
       </defs>
       <use xlink:href="#DejaVuSans-31"/>
       <use xlink:href="#DejaVuSans-30" x="63.623047"/>
       <use xlink:href="#DejaVuSans-2e" x="127.246094"/>
       <use xlink:href="#DejaVuSans-30" x="159.033203"/>
      </g>
     </g>
    </g>
    <g id="xtick_6">
     <g id="line2d_6">
      <g>
       <use xlink:href="#m01d863dbdd" x="806.87771" y="643.3632" style="stroke: #000000; stroke-width: 0.8"/>
      </g>
     </g>
     <g id="text_6">
      <!-- 12.5 -->
      <g transform="translate(795.744897 657.961637)scale(0.1 -0.1)">
       <use xlink:href="#DejaVuSans-31"/>
       <use xlink:href="#DejaVuSans-32" x="63.623047"/>
       <use xlink:href="#DejaVuSans-2e" x="127.246094"/>
       <use xlink:href="#DejaVuSans-35" x="159.033203"/>
      </g>
     </g>
    </g>
    <g id="xtick_7">
     <g id="line2d_7">
      <g>
       <use xlink:href="#m01d863dbdd" x="922.214207" y="643.3632" style="stroke: #000000; stroke-width: 0.8"/>
      </g>
     </g>
     <g id="text_7">
      <!-- 15.0 -->
      <g transform="translate(911.081394 657.961637)scale(0.1 -0.1)">
       <use xlink:href="#DejaVuSans-31"/>
       <use xlink:href="#DejaVuSans-35" x="63.623047"/>
       <use xlink:href="#DejaVuSans-2e" x="127.246094"/>
       <use xlink:href="#DejaVuSans-30" x="159.033203"/>
      </g>
     </g>
    </g>
    <g id="xtick_8">
     <g id="line2d_8">
      <g>
       <use xlink:href="#m01d863dbdd" x="1037.550704" y="643.3632" style="stroke: #000000; stroke-width: 0.8"/>
      </g>
     </g>
     <g id="text_8">
      <!-- 17.5 -->
      <g transform="translate(1026.417891 657.961637)scale(0.1 -0.1)">
       <use xlink:href="#DejaVuSans-31"/>
       <use xlink:href="#DejaVuSans-37" x="63.623047"/>
       <use xlink:href="#DejaVuSans-2e" x="127.246094"/>
       <use xlink:href="#DejaVuSans-35" x="159.033203"/>
      </g>
     </g>
    </g>
    <g id="xtick_9">
     <g id="line2d_9">
      <g>
       <use xlink:href="#m01d863dbdd" x="1152.887201" y="643.3632" style="stroke: #000000; stroke-width: 0.8"/>
      </g>
     </g>
     <g id="text_9">
      <!-- 20.0 -->
      <g transform="translate(1141.754388 657.961637)scale(0.1 -0.1)">
       <use xlink:href="#DejaVuSans-32"/>
       <use xlink:href="#DejaVuSans-30" x="63.623047"/>
       <use xlink:href="#DejaVuSans-2e" x="127.246094"/>
       <use xlink:href="#DejaVuSans-30" x="159.033203"/>
      </g>
     </g>
    </g>
   </g>
   <g id="matplotlib.axis_2">
    <g id="ytick_1">
     <g id="line2d_10">
      <defs>
       <path id="m4a7aac7547" d="M 0 0 
L -3.5 0 
" style="stroke: #000000; stroke-width: 0.8"/>
      </defs>
      <g>
       <use xlink:href="#m4a7aac7547" x="166.86" y="593.605159" style="stroke: #000000; stroke-width: 0.8"/>
      </g>
     </g>
     <g id="text_10">
      <!-- −5 -->
      <g transform="translate(145.117812 597.404378)scale(0.1 -0.1)">
       <defs>
        <path id="DejaVuSans-2212" d="M 678 2272 
L 4684 2272 
L 4684 1741 
L 678 1741 
L 678 2272 
z
" transform="scale(0.015625)"/>
       </defs>
       <use xlink:href="#DejaVuSans-2212"/>
       <use xlink:href="#DejaVuSans-35" x="83.789062"/>
      </g>
     </g>
    </g>
    <g id="ytick_2">
     <g id="line2d_11">
      <g>
       <use xlink:href="#m4a7aac7547" x="166.86" y="515.391218" style="stroke: #000000; stroke-width: 0.8"/>
      </g>
     </g>
     <g id="text_11">
      <!-- −4 -->
      <g transform="translate(145.117812 519.190437)scale(0.1 -0.1)">
       <defs>
        <path id="DejaVuSans-34" d="M 2419 4116 
L 825 1625 
L 2419 1625 
L 2419 4116 
z
M 2253 4666 
L 3047 4666 
L 3047 1625 
L 3713 1625 
L 3713 1100 
L 3047 1100 
L 3047 0 
L 2419 0 
L 2419 1100 
L 313 1100 
L 313 1709 
L 2253 4666 
z
" transform="scale(0.015625)"/>
       </defs>
       <use xlink:href="#DejaVuSans-2212"/>
       <use xlink:href="#DejaVuSans-34" x="83.789062"/>
      </g>
     </g>
    </g>
    <g id="ytick_3">
     <g id="line2d_12">
      <g>
       <use xlink:href="#m4a7aac7547" x="166.86" y="437.177277" style="stroke: #000000; stroke-width: 0.8"/>
      </g>
     </g>
     <g id="text_12">
      <!-- −3 -->
      <g transform="translate(145.117812 440.976496)scale(0.1 -0.1)">
       <defs>
        <path id="DejaVuSans-33" d="M 2597 2516 
Q 3050 2419 3304 2112 
Q 3559 1806 3559 1356 
Q 3559 666 3084 287 
Q 2609 -91 1734 -91 
Q 1441 -91 1130 -33 
Q 819 25 488 141 
L 488 750 
Q 750 597 1062 519 
Q 1375 441 1716 441 
Q 2309 441 2620 675 
Q 2931 909 2931 1356 
Q 2931 1769 2642 2001 
Q 2353 2234 1838 2234 
L 1294 2234 
L 1294 2753 
L 1863 2753 
Q 2328 2753 2575 2939 
Q 2822 3125 2822 3475 
Q 2822 3834 2567 4026 
Q 2313 4219 1838 4219 
Q 1578 4219 1281 4162 
Q 984 4106 628 3988 
L 628 4550 
Q 988 4650 1302 4700 
Q 1616 4750 1894 4750 
Q 2613 4750 3031 4423 
Q 3450 4097 3450 3541 
Q 3450 3153 3228 2886 
Q 3006 2619 2597 2516 
z
" transform="scale(0.015625)"/>
       </defs>
       <use xlink:href="#DejaVuSans-2212"/>
       <use xlink:href="#DejaVuSans-33" x="83.789062"/>
      </g>
     </g>
    </g>
    <g id="ytick_4">
     <g id="line2d_13">
      <g>
       <use xlink:href="#m4a7aac7547" x="166.86" y="358.963335" style="stroke: #000000; stroke-width: 0.8"/>
      </g>
     </g>
     <g id="text_13">
      <!-- −2 -->
      <g transform="translate(145.117812 362.762554)scale(0.1 -0.1)">
       <use xlink:href="#DejaVuSans-2212"/>
       <use xlink:href="#DejaVuSans-32" x="83.789062"/>
      </g>
     </g>
    </g>
    <g id="ytick_5">
     <g id="line2d_14">
      <g>
       <use xlink:href="#m4a7aac7547" x="166.86" y="280.749394" style="stroke: #000000; stroke-width: 0.8"/>
      </g>
     </g>
     <g id="text_14">
      <!-- −1 -->
      <g transform="translate(145.117812 284.548613)scale(0.1 -0.1)">
       <use xlink:href="#DejaVuSans-2212"/>
       <use xlink:href="#DejaVuSans-31" x="83.789062"/>
      </g>
     </g>
    </g>
    <g id="ytick_6">
     <g id="line2d_15">
      <g>
       <use xlink:href="#m4a7aac7547" x="166.86" y="202.535453" style="stroke: #000000; stroke-width: 0.8"/>
      </g>
     </g>
     <g id="text_15">
      <!-- 0 -->
      <g transform="translate(153.4975 206.334671)scale(0.1 -0.1)">
       <use xlink:href="#DejaVuSans-30"/>
      </g>
     </g>
    </g>
    <g id="ytick_7">
     <g id="line2d_16">
      <g>
       <use xlink:href="#m4a7aac7547" x="166.86" y="124.321511" style="stroke: #000000; stroke-width: 0.8"/>
      </g>
     </g>
     <g id="text_16">
      <!-- 1 -->
      <g transform="translate(153.4975 128.12073)scale(0.1 -0.1)">
       <use xlink:href="#DejaVuSans-31"/>
      </g>
     </g>
    </g>
   </g>
   <g id="line2d_17">
    <path d="M 230.195226 202.535453 
L 236.719643 191.474331 
L 243.862821 181.572738 
L 251.553386 172.929608 
L 259.714497 165.6313 
L 268.264612 159.750736 
L 277.118299 155.346673 
L 286.187096 152.463114 
L 295.380391 151.128872 
L 304.606327 151.357277 
L 313.772722 153.146048 
L 322.787988 156.477312 
L 331.562048 161.317783 
L 340.007233 167.619097 
L 348.039163 175.318295 
L 355.577585 184.338447 
L 362.547178 194.589427 
L 368.878303 205.968812 
L 374.507703 218.362902 
L 379.379131 231.647859 
L 383.443911 245.690944 
L 386.661432 260.351845 
L 390.726213 274.39493 
L 395.59764 287.679887 
L 401.22704 300.073977 
L 407.558165 311.453362 
L 414.527758 321.704343 
L 422.06618 330.724495 
L 430.09811 338.423692 
L 438.543296 344.725006 
L 447.317355 349.565478 
L 456.332621 352.896741 
L 465.499016 354.685512 
L 474.724952 354.913917 
L 483.918247 353.579675 
L 492.987044 350.696116 
L 501.840732 346.292053 
L 510.390846 340.411489 
L 518.551957 333.113181 
L 526.242523 324.470051 
L 533.3857 314.568458 
L 539.910118 303.507336 
L 547.053295 293.605744 
L 554.74386 284.962614 
L 562.904972 277.664306 
L 571.455086 271.783742 
L 580.308773 267.379678 
L 589.377571 264.49612 
L 598.570866 263.161878 
L 607.796802 263.390283 
L 616.963197 265.179054 
L 625.978463 268.510317 
L 634.752522 273.350788 
L 643.197707 279.652103 
L 651.229637 287.3513 
L 658.768059 296.371452 
L 665.737652 306.622433 
L 672.068778 318.001817 
L 677.698178 330.395907 
L 682.569605 343.680864 
L 686.634386 357.72395 
L 689.851906 372.38485 
L 693.916687 386.427936 
L 698.788114 399.712893 
L 704.417514 412.106983 
L 710.74864 423.486367 
L 717.718233 433.737348 
L 725.256655 442.7575 
L 733.288585 450.456697 
L 741.73377 456.758012 
L 750.50783 461.598483 
L 759.523095 464.929746 
L 768.68949 466.718517 
L 777.915426 466.946922 
L 787.108721 465.61268 
L 796.177519 462.729122 
L 805.031206 458.325058 
L 813.58132 452.444494 
L 821.742432 445.146186 
L 829.432997 436.503056 
L 836.576174 426.601464 
L 843.100592 415.540342 
L 850.243769 405.638749 
L 857.934335 396.995619 
L 866.095446 389.697311 
L 874.64556 383.816747 
L 883.499248 379.412684 
L 892.568045 376.529125 
L 901.76134 375.194883 
L 910.987276 375.423288 
L 920.153671 377.212059 
L 929.168937 380.543322 
L 937.942996 385.383794 
L 946.388182 391.685108 
L 954.420112 399.384305 
L 961.958534 408.404457 
L 968.928127 418.655438 
L 975.259252 430.034823 
L 980.888652 442.428913 
L 985.760079 455.71387 
L 989.82486 469.756955 
L 993.042381 484.417856 
L 997.107161 498.460941 
L 1001.978589 511.745898 
L 1007.607989 524.139988 
L 1013.939114 535.519373 
L 1020.908707 545.770353 
L 1028.447129 554.790505 
L 1036.479059 562.489703 
L 1044.924245 568.791017 
L 1053.698304 573.631488 
L 1062.71357 576.962752 
L 1071.879965 578.751523 
L 1081.105901 578.979928 
L 1090.299196 577.645686 
L 1099.367993 574.762127 
L 1108.22168 570.358064 
L 1116.771795 564.4775 
L 1124.932906 557.179192 
L 1132.623471 548.536062 
L 1139.766649 538.634469 
" clip-path="url(#p57a88dc443)" style="fill: none; stroke: #0000ff; stroke-width: 1.5; stroke-linecap: square"/>
   </g>
   <g id="line2d_18">
    <path d="M 213.884182 174.882649 
L 221.244196 162.474022 
L 230.172424 150.098062 
L 239.78483 139.29505 
L 249.985369 130.172925 
L 260.672121 122.822832 
L 271.738308 117.318212 
L 283.073361 113.714064 
L 294.564022 112.0464 
L 306.095481 112.331883 
L 317.55252 114.56766 
L 328.820663 118.731392 
L 339.787324 124.781477 
L 350.342926 132.657464 
L 360.382002 142.280659 
L 369.804244 153.554909 
L 378.515509 166.367567 
L 386.428757 180.590613 
L 393.464921 196.081934 
L 399.553697 212.686747 
L 404.63425 230.239141 
L 407.85177 244.900042 
L 410.900779 255.433819 
L 414.554857 265.39892 
L 418.777493 274.695778 
L 423.526497 283.231502 
L 428.754417 290.920805 
L 434.409019 297.686859 
L 440.433803 303.462059 
L 446.768572 308.188701 
L 453.35003 311.819558 
L 460.112419 314.318353 
L 466.988169 315.660117 
L 473.908582 315.831445 
L 480.804511 314.830624 
L 487.607054 312.667655 
L 494.248241 309.364149 
L 500.661718 304.953113 
L 506.783401 299.478622 
L 512.552126 292.995374 
L 517.910253 285.568149 
L 524.434671 274.507027 
L 533.362899 262.131068 
L 542.975304 251.328055 
L 553.175843 242.20593 
L 563.862596 234.855838 
L 574.928783 229.351217 
L 586.263835 225.747069 
L 597.754496 224.079405 
L 609.285955 224.364888 
L 620.742994 226.600665 
L 632.011138 230.764398 
L 642.977798 236.814483 
L 653.5334 244.690469 
L 663.572476 254.313664 
L 672.994719 265.587915 
L 681.705984 278.400573 
L 689.619231 292.623618 
L 696.655395 308.11494 
L 702.744172 324.719752 
L 707.824724 342.272147 
L 711.042245 356.933047 
L 714.091253 367.466824 
L 717.745331 377.431925 
L 721.967968 386.728784 
L 726.716971 395.264507 
L 731.944892 402.953811 
L 737.599493 409.719864 
L 743.624278 415.495064 
L 749.959046 420.221706 
L 756.540505 423.852564 
L 763.302893 426.351358 
L 770.178644 427.693123 
L 777.099057 427.86445 
L 783.994985 426.86363 
L 790.797528 424.70066 
L 797.438716 421.397154 
L 803.852192 416.986119 
L 809.973876 411.511627 
L 815.742601 405.02838 
L 821.100728 397.601154 
L 827.625145 386.540032 
L 836.553373 374.164073 
L 846.165779 363.361061 
L 856.366318 354.238936 
L 867.05307 346.888843 
L 878.119257 341.384223 
L 889.454309 337.780075 
L 900.944971 336.112411 
L 912.47643 336.397894 
L 923.933469 338.633671 
L 935.201612 342.797403 
L 946.168272 348.847488 
L 956.723875 356.723475 
L 966.76295 366.346669 
L 976.185193 377.62092 
L 984.896458 390.433578 
L 992.809706 404.656624 
L 999.845869 420.147945 
L 1005.934646 436.752758 
L 1011.015199 454.305152 
L 1014.232719 468.966053 
L 1017.281728 479.499829 
L 1020.935806 489.464931 
L 1025.158442 498.761789 
L 1029.907446 507.297513 
L 1035.135366 514.986816 
L 1040.789968 521.75287 
L 1046.814752 527.528069 
L 1053.149521 532.254712 
L 1059.730979 535.885569 
L 1066.493367 538.384364 
L 1073.369118 539.726128 
L 1080.289531 539.897456 
L 1087.18546 538.896635 
L 1093.988002 536.733666 
L 1100.62919 533.43016 
L 1107.042666 529.019124 
L 1113.16435 523.544633 
L 1118.933075 517.061385 
L 1125.16548 508.35914 
" clip-path="url(#p57a88dc443)" style="fill: none; stroke: #008000; stroke-width: 1.5; stroke-linecap: square"/>
   </g>
   <g id="line2d_19">
    <path d="M 246.506269 230.188257 
L 252.19509 220.474641 
L 257.553217 213.047415 
L 263.321942 206.564167 
L 269.443626 201.089676 
L 275.857102 196.67864 
L 282.49829 193.375134 
L 289.300832 191.212165 
L 296.196761 190.211344 
L 303.117174 190.382672 
L 309.992925 191.724436 
L 316.755313 194.223231 
L 323.336771 197.854088 
L 329.67154 202.580731 
L 335.696324 208.35593 
L 341.350926 215.121984 
L 346.578846 222.811287 
L 351.32785 231.347011 
L 355.550486 240.643869 
L 359.204564 250.608971 
L 362.253573 261.142747 
L 365.471093 275.803648 
L 370.551646 293.356042 
L 376.640423 309.960855 
L 383.676586 325.452176 
L 391.589834 339.675222 
L 400.301099 352.48788 
L 409.723342 363.762131 
L 419.762417 373.385325 
L 430.31802 381.261312 
L 441.28468 387.311397 
L 452.552823 391.475129 
L 464.009862 393.710906 
L 475.541321 393.996389 
L 487.031983 392.328725 
L 498.367035 388.724577 
L 509.433222 383.219957 
L 520.119974 375.869864 
L 530.320513 366.747739 
L 539.932919 355.944727 
L 548.861147 343.568768 
L 555.385564 332.507646 
L 560.743692 325.08042 
L 566.512416 318.597173 
L 572.6341 313.122681 
L 579.047576 308.711646 
L 585.688764 305.40814 
L 592.491307 303.24517 
L 599.387235 302.24435 
L 606.307648 302.415677 
L 613.183399 303.757442 
L 619.945787 306.256236 
L 626.527246 309.887094 
L 632.862015 314.613736 
L 638.886799 320.388936 
L 644.5414 327.154989 
L 649.769321 334.844293 
L 654.518324 343.380016 
L 658.740961 352.676875 
L 662.395039 362.641976 
L 665.444047 373.175753 
L 668.661568 387.836653 
L 673.74212 405.389048 
L 679.830897 421.99386 
L 686.867061 437.485182 
L 694.780308 451.708227 
L 703.491573 464.520885 
L 712.913816 475.795136 
L 722.952892 485.418331 
L 733.508494 493.294317 
L 744.475154 499.344402 
L 755.743298 503.508135 
L 767.200337 505.743912 
L 778.731796 506.029395 
L 790.222457 504.361731 
L 801.557509 500.757583 
L 812.623696 495.252962 
L 823.310449 487.90287 
L 833.510988 478.780745 
L 843.123393 467.977732 
L 852.051621 455.601773 
L 858.576039 444.540651 
L 863.934166 437.113426 
L 869.702891 430.630178 
L 875.824574 425.155687 
L 882.238051 420.744651 
L 888.879238 417.441145 
L 895.681781 415.278176 
L 902.57771 414.277355 
L 909.498123 414.448683 
L 916.373873 415.790447 
L 923.136262 418.289242 
L 929.71772 421.920099 
L 936.052489 426.646741 
L 942.077273 432.421941 
L 947.731875 439.187995 
L 952.959795 446.877298 
L 957.708799 455.413022 
L 961.931435 464.70988 
L 965.585513 474.674981 
L 968.634522 485.208758 
L 971.852042 499.869659 
L 976.932595 517.422053 
L 983.021371 534.026866 
L 990.057535 549.518187 
L 997.970783 563.741233 
L 1006.682048 576.553891 
L 1016.10429 587.828141 
L 1026.143366 597.451336 
L 1036.698968 605.327323 
L 1047.665629 611.377408 
L 1058.933772 615.54114 
L 1070.390811 617.776917 
L 1081.92227 618.0624 
L 1093.412931 616.394736 
L 1104.747984 612.790588 
L 1115.814171 607.285968 
L 1126.500923 599.935875 
L 1136.701462 590.81375 
L 1146.313868 580.010738 
L 1154.367818 568.909798 
" clip-path="url(#p57a88dc443)" style="fill: none; stroke: #008000; stroke-width: 1.5; stroke-linecap: square"/>
   </g>
   <g id="line2d_20">
    <path d="M 838.270986 421.23745 
L 865.886964 418.028728 
L 893.503776 414.840703 
L 921.170248 416.348258 
L 946.301154 436.021685 
L 970.672541 458.272687 
L 994.872882 481.053944 
L 1019.099924 503.753488 
L 1043.541643 525.781643 
L 1069.872204 540.259309 
L 1097.392104 535.207425 
" clip-path="url(#p57a88dc443)" style="fill: none; stroke-dasharray: 5.55,2.4; stroke-dashoffset: 0; stroke: #ff0000; stroke-width: 1.5"/>
   </g>
   <g id="line2d_21">
    <path d="M 838.270986 421.23745 
L 839.016478 422.502415 
" clip-path="url(#p57a88dc443)" style="fill: none; stroke-dasharray: 5.55,2.4; stroke-dashoffset: 0; stroke: #ffa500; stroke-width: 1.5"/>
   </g>
   <g id="line2d_22">
    <path d="M 865.886964 418.028728 
L 858.454631 396.474723 
" clip-path="url(#p57a88dc443)" style="fill: none; stroke-dasharray: 5.55,2.4; stroke-dashoffset: 0; stroke: #ffa500; stroke-width: 1.5"/>
   </g>
   <g id="line2d_23">
    <path d="M 893.503776 414.840703 
L 889.792646 377.243232 
" clip-path="url(#p57a88dc443)" style="fill: none; stroke-dasharray: 5.55,2.4; stroke-dashoffset: 0; stroke: #ffa500; stroke-width: 1.5"/>
   </g>
   <g id="line2d_24">
    <path d="M 921.170248 416.348258 
L 926.355298 379.331061 
" clip-path="url(#p57a88dc443)" style="fill: none; stroke-dasharray: 5.55,2.4; stroke-dashoffset: 0; stroke: #ffa500; stroke-width: 1.5"/>
   </g>
   <g id="line2d_25">
    <path d="M 946.301154 436.021685 
L 959.558792 405.32271 
" clip-path="url(#p57a88dc443)" style="fill: none; stroke-dasharray: 5.55,2.4; stroke-dashoffset: 0; stroke: #ffa500; stroke-width: 1.5"/>
   </g>
   <g id="line2d_26">
    <path d="M 970.672541 458.272687 
L 982.10176 445.483574 
" clip-path="url(#p57a88dc443)" style="fill: none; stroke-dasharray: 5.55,2.4; stroke-dashoffset: 0; stroke: #ffa500; stroke-width: 1.5"/>
   </g>
   <g id="line2d_27">
    <path d="M 994.872882 481.053944 
L 992.632722 482.655674 
" clip-path="url(#p57a88dc443)" style="fill: none; stroke-dasharray: 5.55,2.4; stroke-dashoffset: 0; stroke: #ffa500; stroke-width: 1.5"/>
   </g>
   <g id="line2d_28">
    <path d="M 1019.099924 503.753488 
L 1006.28531 521.453218 
" clip-path="url(#p57a88dc443)" style="fill: none; stroke-dasharray: 5.55,2.4; stroke-dashoffset: 0; stroke: #ffa500; stroke-width: 1.5"/>
   </g>
   <g id="line2d_29">
    <path d="M 1043.541643 525.781643 
L 1032.526333 558.925166 
" clip-path="url(#p57a88dc443)" style="fill: none; stroke-dasharray: 5.55,2.4; stroke-dashoffset: 0; stroke: #ffa500; stroke-width: 1.5"/>
   </g>
   <g id="line2d_30">
    <path d="M 1069.872204 540.259309 
L 1067.313187 578.057159 
" clip-path="url(#p57a88dc443)" style="fill: none; stroke-dasharray: 5.55,2.4; stroke-dashoffset: 0; stroke: #ffa500; stroke-width: 1.5"/>
   </g>
   <g id="line2d_31">
    <path d="M 1097.392104 535.207425 
L 1116.769363 564.479418 
" clip-path="url(#p57a88dc443)" style="fill: none; stroke-dasharray: 5.55,2.4; stroke-dashoffset: 0; stroke: #ffa500; stroke-width: 1.5"/>
   </g>
   <g id="line2d_32">
    <defs>
     <path id="m75417e44b1" d="M 0 3 
C 0.795609 3 1.55874 2.683901 2.12132 2.12132 
C 2.683901 1.55874 3 0.795609 3 0 
C 3 -0.795609 2.683901 -1.55874 2.12132 -2.12132 
C 1.55874 -2.683901 0.795609 -3 0 -3 
C -0.795609 -3 -1.55874 -2.683901 -2.12132 -2.12132 
C -2.683901 -1.55874 -3 -0.795609 -3 0 
C -3 0.795609 -2.683901 1.55874 -2.12132 2.12132 
C -1.55874 2.683901 -0.795609 3 0 3 
z
" style="stroke: #ff0000"/>
    </defs>
    <g clip-path="url(#p57a88dc443)">
     <use xlink:href="#m75417e44b1" x="847.476312" y="420.167876" style="fill: #ff0000; stroke: #ff0000"/>
    </g>
   </g>
   <g id="patch_3">
    <path d="M 166.86 643.3632 
L 166.86 86.7456 
" style="fill: none; stroke: #000000; stroke-width: 0.8; stroke-linejoin: miter; stroke-linecap: square"/>
   </g>
   <g id="patch_4">
    <path d="M 1201.392 643.3632 
L 1201.392 86.7456 
" style="fill: none; stroke: #000000; stroke-width: 0.8; stroke-linejoin: miter; stroke-linecap: square"/>
   </g>
   <g id="patch_5">
    <path d="M 166.86 643.3632 
L 1201.392 643.3632 
" style="fill: none; stroke: #000000; stroke-width: 0.8; stroke-linejoin: miter; stroke-linecap: square"/>
   </g>
   <g id="patch_6">
    <path d="M 166.86 86.7456 
L 1201.392 86.7456 
" style="fill: none; stroke: #000000; stroke-width: 0.8; stroke-linejoin: miter; stroke-linecap: square"/>
   </g>
   <g id="text_17">
    <!-- Vehicle Path -->
    <g transform="translate(647.581312 80.7456)scale(0.12 -0.12)">
     <defs>
      <path id="DejaVuSans-56" d="M 1831 0 
L 50 4666 
L 709 4666 
L 2188 738 
L 3669 4666 
L 4325 4666 
L 2547 0 
L 1831 0 
z
" transform="scale(0.015625)"/>
      <path id="DejaVuSans-65" d="M 3597 1894 
L 3597 1613 
L 953 1613 
Q 991 1019 1311 708 
Q 1631 397 2203 397 
Q 2534 397 2845 478 
Q 3156 559 3463 722 
L 3463 178 
Q 3153 47 2828 -22 
Q 2503 -91 2169 -91 
Q 1331 -91 842 396 
Q 353 884 353 1716 
Q 353 2575 817 3079 
Q 1281 3584 2069 3584 
Q 2775 3584 3186 3129 
Q 3597 2675 3597 1894 
z
M 3022 2063 
Q 3016 2534 2758 2815 
Q 2500 3097 2075 3097 
Q 1594 3097 1305 2825 
Q 1016 2553 972 2059 
L 3022 2063 
z
" transform="scale(0.015625)"/>
      <path id="DejaVuSans-68" d="M 3513 2113 
L 3513 0 
L 2938 0 
L 2938 2094 
Q 2938 2591 2744 2837 
Q 2550 3084 2163 3084 
Q 1697 3084 1428 2787 
Q 1159 2491 1159 1978 
L 1159 0 
L 581 0 
L 581 4863 
L 1159 4863 
L 1159 2956 
Q 1366 3272 1645 3428 
Q 1925 3584 2291 3584 
Q 2894 3584 3203 3211 
Q 3513 2838 3513 2113 
z
" transform="scale(0.015625)"/>
      <path id="DejaVuSans-69" d="M 603 3500 
L 1178 3500 
L 1178 0 
L 603 0 
L 603 3500 
z
M 603 4863 
L 1178 4863 
L 1178 4134 
L 603 4134 
L 603 4863 
z
" transform="scale(0.015625)"/>
      <path id="DejaVuSans-63" d="M 3122 3366 
L 3122 2828 
Q 2878 2963 2633 3030 
Q 2388 3097 2138 3097 
Q 1578 3097 1268 2742 
Q 959 2388 959 1747 
Q 959 1106 1268 751 
Q 1578 397 2138 397 
Q 2388 397 2633 464 
Q 2878 531 3122 666 
L 3122 134 
Q 2881 22 2623 -34 
Q 2366 -91 2075 -91 
Q 1284 -91 818 406 
Q 353 903 353 1747 
Q 353 2603 823 3093 
Q 1294 3584 2113 3584 
Q 2378 3584 2631 3529 
Q 2884 3475 3122 3366 
z
" transform="scale(0.015625)"/>
      <path id="DejaVuSans-6c" d="M 603 4863 
L 1178 4863 
L 1178 0 
L 603 0 
L 603 4863 
z
" transform="scale(0.015625)"/>
      <path id="DejaVuSans-20" transform="scale(0.015625)"/>
      <path id="DejaVuSans-50" d="M 1259 4147 
L 1259 2394 
L 2053 2394 
Q 2494 2394 2734 2622 
Q 2975 2850 2975 3272 
Q 2975 3691 2734 3919 
Q 2494 4147 2053 4147 
L 1259 4147 
z
M 628 4666 
L 2053 4666 
Q 2838 4666 3239 4311 
Q 3641 3956 3641 3272 
Q 3641 2581 3239 2228 
Q 2838 1875 2053 1875 
L 1259 1875 
L 1259 0 
L 628 0 
L 628 4666 
z
" transform="scale(0.015625)"/>
      <path id="DejaVuSans-61" d="M 2194 1759 
Q 1497 1759 1228 1600 
Q 959 1441 959 1056 
Q 959 750 1161 570 
Q 1363 391 1709 391 
Q 2188 391 2477 730 
Q 2766 1069 2766 1631 
L 2766 1759 
L 2194 1759 
z
M 3341 1997 
L 3341 0 
L 2766 0 
L 2766 531 
Q 2569 213 2275 61 
Q 1981 -91 1556 -91 
Q 1019 -91 701 211 
Q 384 513 384 1019 
Q 384 1609 779 1909 
Q 1175 2209 1959 2209 
L 2766 2209 
L 2766 2266 
Q 2766 2663 2505 2880 
Q 2244 3097 1772 3097 
Q 1472 3097 1187 3025 
Q 903 2953 641 2809 
L 641 3341 
Q 956 3463 1253 3523 
Q 1550 3584 1831 3584 
Q 2591 3584 2966 3190 
Q 3341 2797 3341 1997 
z
" transform="scale(0.015625)"/>
      <path id="DejaVuSans-74" d="M 1172 4494 
L 1172 3500 
L 2356 3500 
L 2356 3053 
L 1172 3053 
L 1172 1153 
Q 1172 725 1289 603 
Q 1406 481 1766 481 
L 2356 481 
L 2356 0 
L 1766 0 
Q 1100 0 847 248 
Q 594 497 594 1153 
L 594 3053 
L 172 3053 
L 172 3500 
L 594 3500 
L 594 4494 
L 1172 4494 
z
" transform="scale(0.015625)"/>
     </defs>
     <use xlink:href="#DejaVuSans-56"/>
     <use xlink:href="#DejaVuSans-65" x="60.658203"/>
     <use xlink:href="#DejaVuSans-68" x="122.181641"/>
     <use xlink:href="#DejaVuSans-69" x="185.560547"/>
     <use xlink:href="#DejaVuSans-63" x="213.34375"/>
     <use xlink:href="#DejaVuSans-6c" x="268.324219"/>
     <use xlink:href="#DejaVuSans-65" x="296.107422"/>
     <use xlink:href="#DejaVuSans-20" x="357.630859"/>
     <use xlink:href="#DejaVuSans-50" x="389.417969"/>
     <use xlink:href="#DejaVuSans-61" x="445.220703"/>
     <use xlink:href="#DejaVuSans-74" x="506.5"/>
     <use xlink:href="#DejaVuSans-68" x="545.708984"/>
    </g>
   </g>
  </g>
 </g>
 <defs>
  <clipPath id="p57a88dc443">
   <rect x="166.86" y="86.7456" width="1034.532" height="556.6176"/>
  </clipPath>
 </defs>
</svg>
