<?xml version="1.0" encoding="utf-8" standalone="no"?>
<!DOCTYPE svg PUBLIC "-//W3C//DTD SVG 1.1//EN"
  "http://www.w3.org/Graphics/SVG/1.1/DTD/svg11.dtd">
<svg xmlns:xlink="http://www.w3.org/1999/xlink" width="460.8pt" height="345.6pt" viewBox="0 0 460.8 345.6" xmlns="http://www.w3.org/2000/svg" version="1.1">
 <metadata>
  <rdf:RDF xmlns:dc="http://purl.org/dc/elements/1.1/" xmlns:cc="http://creativecommons.org/ns#" xmlns:rdf="http://www.w3.org/1999/02/22-rdf-syntax-ns#">
   <cc:Work>
    <dc:type rdf:resource="http://purl.org/dc/dcmitype/StillImage"/>
    <dc:date>2023-06-21T12:50:58.439681</dc:date>
    <dc:format>image/svg+xml</dc:format>
    <dc:creator>
     <cc:Agent>
      <dc:title>Matplotlib v3.5.1, https://matplotlib.org/</dc:title>
     </cc:Agent>
    </dc:creator>
   </cc:Work>
  </rdf:RDF>
 </metadata>
 <defs>
  <style type="text/css">*{stroke-linejoin: round; stroke-linecap: butt}</style>
 </defs>
 <g id="figure_1">
  <g id="patch_1">
   <path d="M 0 345.6 
L 460.8 345.6 
L 460.8 0 
L 0 0 
z
" style="fill: #ffffff"/>
  </g>
  <g id="axes_1">
   <g id="patch_2">
    <path d="M 57.6 307.584 
L 414.72 307.584 
L 414.72 41.472 
L 57.6 41.472 
z
" style="fill: #ffffff"/>
   </g>
   <g id="matplotlib.axis_1">
    <g id="xtick_1">
     <g id="line2d_1">
      <defs>
       <path id="m5083b649ad" d="M 0 0 
L 0 3.5 
" style="stroke: #000000; stroke-width: 0.8"/>
      </defs>
      <g>
       <use xlink:href="#m5083b649ad" x="82.667403" y="307.584" style="stroke: #000000; stroke-width: 0.8"/>
      </g>
     </g>
     <g id="text_1">
      <!-- 0 -->
      <g transform="translate(79.486153 322.182437)scale(0.1 -0.1)">
       <defs>
        <path id="DejaVuSans-30" d="M 2034 4250 
Q 1547 4250 1301 3770 
Q 1056 3291 1056 2328 
Q 1056 1369 1301 889 
Q 1547 409 2034 409 
Q 2525 409 2770 889 
Q 3016 1369 3016 2328 
Q 3016 3291 2770 3770 
Q 2525 4250 2034 4250 
z
M 2034 4750 
Q 2819 4750 3233 4129 
Q 3647 3509 3647 2328 
Q 3647 1150 3233 529 
Q 2819 -91 2034 -91 
Q 1250 -91 836 529 
Q 422 1150 422 2328 
Q 422 3509 836 4129 
Q 1250 4750 2034 4750 
z
" transform="scale(0.015625)"/>
       </defs>
       <use xlink:href="#DejaVuSans-30"/>
      </g>
     </g>
    </g>
    <g id="xtick_2">
     <g id="line2d_2">
      <g>
       <use xlink:href="#m5083b649ad" x="160.755638" y="307.584" style="stroke: #000000; stroke-width: 0.8"/>
      </g>
     </g>
     <g id="text_2">
      <!-- 5 -->
      <g transform="translate(157.574388 322.182437)scale(0.1 -0.1)">
       <defs>
        <path id="DejaVuSans-35" d="M 691 4666 
L 3169 4666 
L 3169 4134 
L 1269 4134 
L 1269 2991 
Q 1406 3038 1543 3061 
Q 1681 3084 1819 3084 
Q 2600 3084 3056 2656 
Q 3513 2228 3513 1497 
Q 3513 744 3044 326 
Q 2575 -91 1722 -91 
Q 1428 -91 1123 -41 
Q 819 9 494 109 
L 494 744 
Q 775 591 1075 516 
Q 1375 441 1709 441 
Q 2250 441 2565 725 
Q 2881 1009 2881 1497 
Q 2881 1984 2565 2268 
Q 2250 2553 1709 2553 
Q 1456 2553 1204 2497 
Q 953 2441 691 2322 
L 691 4666 
z
" transform="scale(0.015625)"/>
       </defs>
       <use xlink:href="#DejaVuSans-35"/>
      </g>
     </g>
    </g>
    <g id="xtick_3">
     <g id="line2d_3">
      <g>
       <use xlink:href="#m5083b649ad" x="238.843874" y="307.584" style="stroke: #000000; stroke-width: 0.8"/>
      </g>
     </g>
     <g id="text_3">
      <!-- 10 -->
      <g transform="translate(232.481374 322.182437)scale(0.1 -0.1)">
       <defs>
        <path id="DejaVuSans-31" d="M 794 531 
L 1825 531 
L 1825 4091 
L 703 3866 
L 703 4441 
L 1819 4666 
L 2450 4666 
L 2450 531 
L 3481 531 
L 3481 0 
L 794 0 
L 794 531 
z
" transform="scale(0.015625)"/>
       </defs>
       <use xlink:href="#DejaVuSans-31"/>
       <use xlink:href="#DejaVuSans-30" x="63.623047"/>
      </g>
     </g>
    </g>
    <g id="xtick_4">
     <g id="line2d_4">
      <g>
       <use xlink:href="#m5083b649ad" x="316.93211" y="307.584" style="stroke: #000000; stroke-width: 0.8"/>
      </g>
     </g>
     <g id="text_4">
      <!-- 15 -->
      <g transform="translate(310.56961 322.182437)scale(0.1 -0.1)">
       <use xlink:href="#DejaVuSans-31"/>
       <use xlink:href="#DejaVuSans-35" x="63.623047"/>
      </g>
     </g>
    </g>
    <g id="xtick_5">
     <g id="line2d_5">
      <g>
       <use xlink:href="#m5083b649ad" x="395.020345" y="307.584" style="stroke: #000000; stroke-width: 0.8"/>
      </g>
     </g>
     <g id="text_5">
      <!-- 20 -->
      <g transform="translate(388.657845 322.182437)scale(0.1 -0.1)">
       <defs>
        <path id="DejaVuSans-32" d="M 1228 531 
L 3431 531 
L 3431 0 
L 469 0 
L 469 531 
Q 828 903 1448 1529 
Q 2069 2156 2228 2338 
Q 2531 2678 2651 2914 
Q 2772 3150 2772 3378 
Q 2772 3750 2511 3984 
Q 2250 4219 1831 4219 
Q 1534 4219 1204 4116 
Q 875 4013 500 3803 
L 500 4441 
Q 881 4594 1212 4672 
Q 1544 4750 1819 4750 
Q 2544 4750 2975 4387 
Q 3406 4025 3406 3419 
Q 3406 3131 3298 2873 
Q 3191 2616 2906 2266 
Q 2828 2175 2409 1742 
Q 1991 1309 1228 531 
z
" transform="scale(0.015625)"/>
       </defs>
       <use xlink:href="#DejaVuSans-32"/>
       <use xlink:href="#DejaVuSans-30" x="63.623047"/>
      </g>
     </g>
    </g>
   </g>
   <g id="matplotlib.axis_2">
    <g id="ytick_1">
     <g id="line2d_6">
      <defs>
       <path id="mfb1cdcb15d" d="M 0 0 
L -3.5 0 
" style="stroke: #000000; stroke-width: 0.8"/>
      </defs>
      <g>
       <use xlink:href="#mfb1cdcb15d" x="57.6" y="274.527101" style="stroke: #000000; stroke-width: 0.8"/>
      </g>
     </g>
     <g id="text_6">
      <!-- −5 -->
      <g transform="translate(35.857813 278.32632)scale(0.1 -0.1)">
       <defs>
        <path id="DejaVuSans-2212" d="M 678 2272 
L 4684 2272 
L 4684 1741 
L 678 1741 
L 678 2272 
z
" transform="scale(0.015625)"/>
       </defs>
       <use xlink:href="#DejaVuSans-2212"/>
       <use xlink:href="#DejaVuSans-35" x="83.789062"/>
      </g>
     </g>
    </g>
    <g id="ytick_2">
     <g id="line2d_7">
      <g>
       <use xlink:href="#mfb1cdcb15d" x="57.6" y="240.305715" style="stroke: #000000; stroke-width: 0.8"/>
      </g>
     </g>
     <g id="text_7">
      <!-- −4 -->
      <g transform="translate(35.857813 244.104934)scale(0.1 -0.1)">
       <defs>
        <path id="DejaVuSans-34" d="M 2419 4116 
L 825 1625 
L 2419 1625 
L 2419 4116 
z
M 2253 4666 
L 3047 4666 
L 3047 1625 
L 3713 1625 
L 3713 1100 
L 3047 1100 
L 3047 0 
L 2419 0 
L 2419 1100 
L 313 1100 
L 313 1709 
L 2253 4666 
z
" transform="scale(0.015625)"/>
       </defs>
       <use xlink:href="#DejaVuSans-2212"/>
       <use xlink:href="#DejaVuSans-34" x="83.789062"/>
      </g>
     </g>
    </g>
    <g id="ytick_3">
     <g id="line2d_8">
      <g>
       <use xlink:href="#mfb1cdcb15d" x="57.6" y="206.084329" style="stroke: #000000; stroke-width: 0.8"/>
      </g>
     </g>
     <g id="text_8">
      <!-- −3 -->
      <g transform="translate(35.857813 209.883547)scale(0.1 -0.1)">
       <defs>
        <path id="DejaVuSans-33" d="M 2597 2516 
Q 3050 2419 3304 2112 
Q 3559 1806 3559 1356 
Q 3559 666 3084 287 
Q 2609 -91 1734 -91 
Q 1441 -91 1130 -33 
Q 819 25 488 141 
L 488 750 
Q 750 597 1062 519 
Q 1375 441 1716 441 
Q 2309 441 2620 675 
Q 2931 909 2931 1356 
Q 2931 1769 2642 2001 
Q 2353 2234 1838 2234 
L 1294 2234 
L 1294 2753 
L 1863 2753 
Q 2328 2753 2575 2939 
Q 2822 3125 2822 3475 
Q 2822 3834 2567 4026 
Q 2313 4219 1838 4219 
Q 1578 4219 1281 4162 
Q 984 4106 628 3988 
L 628 4550 
Q 988 4650 1302 4700 
Q 1616 4750 1894 4750 
Q 2613 4750 3031 4423 
Q 3450 4097 3450 3541 
Q 3450 3153 3228 2886 
Q 3006 2619 2597 2516 
z
" transform="scale(0.015625)"/>
       </defs>
       <use xlink:href="#DejaVuSans-2212"/>
       <use xlink:href="#DejaVuSans-33" x="83.789062"/>
      </g>
     </g>
    </g>
    <g id="ytick_4">
     <g id="line2d_9">
      <g>
       <use xlink:href="#mfb1cdcb15d" x="57.6" y="171.862942" style="stroke: #000000; stroke-width: 0.8"/>
      </g>
     </g>
     <g id="text_9">
      <!-- −2 -->
      <g transform="translate(35.857813 175.662161)scale(0.1 -0.1)">
       <use xlink:href="#DejaVuSans-2212"/>
       <use xlink:href="#DejaVuSans-32" x="83.789062"/>
      </g>
     </g>
    </g>
    <g id="ytick_5">
     <g id="line2d_10">
      <g>
       <use xlink:href="#mfb1cdcb15d" x="57.6" y="137.641556" style="stroke: #000000; stroke-width: 0.8"/>
      </g>
     </g>
     <g id="text_10">
      <!-- −1 -->
      <g transform="translate(35.857813 141.440775)scale(0.1 -0.1)">
       <use xlink:href="#DejaVuSans-2212"/>
       <use xlink:href="#DejaVuSans-31" x="83.789062"/>
      </g>
     </g>
    </g>
    <g id="ytick_6">
     <g id="line2d_11">
      <g>
       <use xlink:href="#mfb1cdcb15d" x="57.6" y="103.420169" style="stroke: #000000; stroke-width: 0.8"/>
      </g>
     </g>
     <g id="text_11">
      <!-- 0 -->
      <g transform="translate(44.2375 107.219388)scale(0.1 -0.1)">
       <use xlink:href="#DejaVuSans-30"/>
      </g>
     </g>
    </g>
    <g id="ytick_7">
     <g id="line2d_12">
      <g>
       <use xlink:href="#mfb1cdcb15d" x="57.6" y="69.198783" style="stroke: #000000; stroke-width: 0.8"/>
      </g>
     </g>
     <g id="text_12">
      <!-- 1 -->
      <g transform="translate(44.2375 72.998002)scale(0.1 -0.1)">
       <use xlink:href="#DejaVuSans-31"/>
      </g>
     </g>
    </g>
   </g>
   <g id="line2d_13">
    <path d="M 82.667403 103.420169 
L 84.876071 98.580535 
L 87.294205 94.248235 
L 89.897642 90.466558 
L 92.660371 87.273288 
L 95.554785 84.700331 
L 98.551967 82.773397 
L 101.621968 81.511737 
L 104.734115 80.927959 
L 107.857311 81.027894 
L 110.960352 81.810545 
L 114.012231 83.268092 
L 116.982457 85.38597 
L 119.841351 88.14302 
L 122.560348 91.511693 
L 125.112281 95.458331 
L 127.471652 99.9435 
L 129.614887 104.922386 
L 131.520572 110.345242 
L 133.169664 116.157885 
L 134.545688 122.302235 
L 135.634895 128.716901 
L 137.010919 134.861252 
L 138.660011 140.673894 
L 140.565696 146.09675 
L 142.708931 151.075636 
L 145.068302 155.560805 
L 147.620235 159.507443 
L 150.339232 162.876116 
L 153.198126 165.633166 
L 156.168352 167.751045 
L 159.220232 169.208591 
L 162.323272 169.991242 
L 165.446468 170.091177 
L 168.558615 169.507399 
L 171.628616 168.245739 
L 174.625798 166.318805 
L 177.520213 163.745848 
L 180.282941 160.552578 
L 182.886378 156.770901 
L 185.304512 152.438601 
L 187.513181 147.598967 
L 189.931314 143.266667 
L 192.534751 139.48499 
L 195.29748 136.29172 
L 198.191895 133.718763 
L 201.189076 131.791829 
L 204.259077 130.530169 
L 207.371224 129.946391 
L 210.49442 130.046326 
L 213.597461 130.828977 
L 216.64934 132.286524 
L 219.619566 134.404402 
L 222.47846 137.161452 
L 225.197457 140.530125 
L 227.74939 144.476763 
L 230.108761 148.961932 
L 232.251996 153.940818 
L 234.157681 159.363674 
L 235.806774 165.176316 
L 237.182797 171.320667 
L 238.272004 177.735333 
L 239.648028 183.879684 
L 241.29712 189.692326 
L 243.202805 195.115182 
L 245.34604 200.094068 
L 247.705411 204.579237 
L 250.257344 208.525875 
L 252.976341 211.894548 
L 255.835235 214.651598 
L 258.805461 216.769476 
L 261.857341 218.227023 
L 264.960381 219.009674 
L 268.083577 219.109609 
L 271.195724 218.525831 
L 274.265725 217.264171 
L 277.262907 215.337237 
L 280.157322 212.76428 
L 282.92005 209.57101 
L 285.523487 205.789333 
L 287.941621 201.457033 
L 290.15029 196.617399 
L 292.568423 192.285099 
L 295.17186 188.503422 
L 297.934589 185.310152 
L 300.829004 182.737195 
L 303.826185 180.810261 
L 306.896186 179.548601 
L 310.008333 178.964823 
L 313.131529 179.064758 
L 316.23457 179.847409 
L 319.286449 181.304955 
L 322.256675 183.422834 
L 325.115569 186.179884 
L 327.834566 189.548557 
L 330.386499 193.495195 
L 332.745871 197.980364 
L 334.889106 202.95925 
L 336.79479 208.382106 
L 338.443883 214.194748 
L 339.819907 220.339099 
L 340.909113 226.753765 
L 342.285137 232.898115 
L 343.934229 238.710758 
L 345.839914 244.133614 
L 347.983149 249.1125 
L 350.34252 253.597669 
L 352.894453 257.544307 
L 355.61345 260.91298 
L 358.472344 263.67003 
L 361.44257 265.787908 
L 364.49445 267.245455 
L 367.59749 268.028106 
L 370.720686 268.128041 
L 373.832833 267.544263 
L 376.902834 266.282603 
L 379.900016 264.355669 
L 382.794431 261.782712 
L 385.557159 258.589442 
L 388.160596 254.807765 
L 390.57873 250.475465 
" clip-path="url(#p063cea45ac)" style="fill: none; stroke: #1f77b4; stroke-width: 1.5; stroke-linecap: square"/>
   </g>
   <g id="line2d_14">
    <path d="M 73.832727 84.06163 
L 76.493987 78.278665 
L 79.878971 72.214167 
L 83.523349 66.920449 
L 87.390708 62.450403 
L 91.442407 58.848693 
L 95.637962 56.151306 
L 99.935452 54.385193 
L 104.291938 53.568 
L 108.663893 53.707893 
L 113.007632 54.803474 
L 117.279755 56.843796 
L 121.437576 59.808473 
L 125.439551 63.667883 
L 129.245694 68.383464 
L 132.817975 73.9081 
L 136.120702 80.186589 
L 139.120874 87.1562 
L 141.788514 94.747295 
L 144.096969 102.884025 
L 146.023173 111.485092 
L 147.11238 117.899758 
L 147.938223 121.587392 
L 148.927954 125.075946 
L 150.071682 128.330563 
L 151.35798 131.318725 
L 152.773996 134.010574 
L 154.305581 136.379214 
L 155.937433 138.40098 
L 157.653246 140.055669 
L 159.435876 141.326749 
L 161.267512 142.20152 
L 163.129853 142.671241 
L 165.004292 142.731219 
L 166.872098 142.380854 
L 168.714611 141.623648 
L 170.513419 140.467166 
L 172.25055 138.922964 
L 173.908648 137.00647 
L 175.471144 134.736833 
L 176.922427 132.136731 
L 179.131096 127.297097 
L 182.51608 121.232599 
L 186.160458 115.938881 
L 190.027817 111.468835 
L 194.079516 107.867125 
L 198.275071 105.169738 
L 202.572561 103.403625 
L 206.929047 102.586432 
L 211.301002 102.726325 
L 215.644741 103.821906 
L 219.916864 105.862228 
L 224.074685 108.826905 
L 228.07666 112.686315 
L 231.882803 117.401896 
L 235.455084 122.926532 
L 238.757811 129.205021 
L 241.757983 136.174632 
L 244.425623 143.765727 
L 246.734078 151.902457 
L 248.660282 160.503524 
L 249.749489 166.91819 
L 250.575332 170.605824 
L 251.565063 174.094378 
L 252.708791 177.348995 
L 253.995089 180.337157 
L 255.411105 183.029006 
L 256.94269 185.397646 
L 258.574542 187.419412 
L 260.290355 189.074101 
L 262.072985 190.345181 
L 263.904621 191.219952 
L 265.766963 191.689673 
L 267.641401 191.749651 
L 269.509207 191.399286 
L 271.35172 190.64208 
L 273.150528 189.485598 
L 274.887659 187.941396 
L 276.545757 186.024902 
L 278.108253 183.755265 
L 279.559536 181.155163 
L 281.768205 176.315528 
L 285.153189 170.251031 
L 288.797567 164.957313 
L 292.664927 160.487267 
L 296.716625 156.885557 
L 300.91218 154.18817 
L 305.20967 152.422057 
L 309.566157 151.604864 
L 313.938111 151.744757 
L 318.28185 152.840338 
L 322.553973 154.88066 
L 326.711794 157.845337 
L 330.713769 161.704747 
L 334.519912 166.420328 
L 338.092194 171.944964 
L 341.39492 178.223453 
L 344.395092 185.193064 
L 347.062732 192.784159 
L 349.371187 200.920889 
L 351.297391 209.521956 
L 352.386598 215.936622 
L 353.212441 219.624256 
L 354.202172 223.11281 
L 355.3459 226.367427 
L 356.632198 229.355589 
L 358.048214 232.047438 
L 359.579799 234.416078 
L 361.211651 236.437844 
L 362.927464 238.092533 
L 364.710094 239.363613 
L 366.54173 240.238384 
L 368.404072 240.708105 
L 370.27851 240.768083 
L 372.146316 240.417718 
L 373.988829 239.660512 
L 375.787637 238.50403 
L 377.524769 236.959828 
L 379.182866 235.043334 
L 380.745362 232.773697 
L 382.670187 229.281009 
" clip-path="url(#p063cea45ac)" style="fill: none; stroke: #ff7f0e; stroke-width: 1.5; stroke-linecap: square"/>
   </g>
   <g id="line2d_15">
    <path d="M 91.502078 122.778709 
L 93.258156 118.882405 
L 94.709439 116.282303 
L 96.271935 114.012666 
L 97.930033 112.096172 
L 99.667164 110.55197 
L 101.465972 109.395488 
L 103.308485 108.638282 
L 105.176291 108.287917 
L 107.05073 108.347895 
L 108.913071 108.817616 
L 110.744707 109.692387 
L 112.527338 110.963467 
L 114.24315 112.618156 
L 115.875002 114.639922 
L 117.406587 117.008562 
L 118.822603 119.700411 
L 120.108901 122.688573 
L 121.252629 125.94319 
L 122.24236 129.431744 
L 123.068203 133.119378 
L 124.15741 139.534044 
L 126.083614 148.135111 
L 128.392069 156.271841 
L 131.059709 163.862936 
L 134.059881 170.832547 
L 137.362608 177.111036 
L 140.934889 182.635672 
L 144.741032 187.351253 
L 148.743007 191.210663 
L 152.900828 194.17534 
L 157.172951 196.215662 
L 161.51669 197.311243 
L 165.888645 197.451136 
L 170.245131 196.633943 
L 174.542622 194.86783 
L 178.738176 192.170443 
L 182.789875 188.568733 
L 186.657234 184.098687 
L 190.301612 178.804969 
L 193.686596 172.740472 
L 195.895265 167.900837 
L 197.346548 165.300735 
L 198.909044 163.031098 
L 200.567142 161.114604 
L 202.304273 159.570402 
L 204.103081 158.41392 
L 205.945594 157.656714 
L 207.8134 157.306349 
L 209.687839 157.366327 
L 211.55018 157.836048 
L 213.381816 158.710819 
L 215.164447 159.981899 
L 216.880259 161.636588 
L 218.512111 163.658354 
L 220.043696 166.026994 
L 221.459712 168.718843 
L 222.74601 171.707005 
L 223.889738 174.961622 
L 224.879469 178.450176 
L 225.705312 182.13781 
L 226.794519 188.552476 
L 228.720723 197.153543 
L 231.029178 205.290273 
L 233.696819 212.881368 
L 236.69699 219.850979 
L 239.999717 226.129468 
L 243.571998 231.654104 
L 247.378141 236.369685 
L 251.380116 240.229095 
L 255.537937 243.193772 
L 259.81006 245.234094 
L 264.153799 246.329675 
L 268.525754 246.469568 
L 272.88224 245.652375 
L 277.179731 243.886262 
L 281.375285 241.188875 
L 285.426984 237.587165 
L 289.294343 233.117119 
L 292.938721 227.823401 
L 296.323705 221.758903 
L 298.532374 216.919269 
L 299.983657 214.319167 
L 301.546154 212.04953 
L 303.204251 210.133036 
L 304.941382 208.588834 
L 306.74019 207.432352 
L 308.582703 206.675146 
L 310.450509 206.324781 
L 312.324948 206.384759 
L 314.187289 206.85448 
L 316.018925 207.729251 
L 317.801556 209.000331 
L 319.517369 210.65502 
L 321.14922 212.676786 
L 322.680805 215.045426 
L 324.096821 217.737275 
L 325.383119 220.725437 
L 326.526847 223.980054 
L 327.516578 227.468608 
L 328.342422 231.156242 
L 329.431628 237.570908 
L 331.357832 246.171975 
L 333.666287 254.308705 
L 336.333928 261.8998 
L 339.334099 268.869411 
L 342.636826 275.1479 
L 346.209107 280.672536 
L 350.01525 285.388117 
L 354.017225 289.247527 
L 358.175046 292.212204 
L 362.447169 294.252526 
L 366.790908 295.348107 
L 371.162863 295.488 
L 375.519349 294.670807 
L 379.81684 292.904694 
L 384.012394 290.207307 
L 388.064093 286.605597 
L 391.931452 282.135551 
L 395.57583 276.841833 
L 398.487273 271.669922 
" clip-path="url(#p063cea45ac)" style="fill: none; stroke: #2ca02c; stroke-width: 1.5; stroke-linecap: square"/>
   </g>
   <g id="line2d_16">
    <path d="M 338.223032 213.344988 
L 339.647103 219.436547 
L 340.746103 225.843188 
L 342.069111 232.043194 
L 343.683391 237.90257 
L 345.552766 243.38577 
L 347.66354 248.4308 
L 349.993411 252.98941 
L 352.519387 257.015428 
L 355.216162 260.468802 
L 358.056807 263.31498 
L 361.012934 265.525535 
L 364.055009 267.078378 
L 367.152636 267.957984 
L 370.275202 268.12799 
L 373.391698 267.668938 
L 376.469584 266.503158 
L 379.478979 264.669899 
L 382.389814 262.187473 
L 385.173007 259.080703 
L 387.800735 255.38057 
" clip-path="url(#p063cea45ac)" style="fill: none; stroke-dasharray: 5.55,2.4; stroke-dashoffset: 0; stroke: #ff0000; stroke-width: 1.5"/>
   </g>
   <g id="line2d_17">
    <defs>
     <path id="m4363cfb696" d="M 0 3 
C 0.795609 3 1.55874 2.683901 2.12132 2.12132 
C 2.683901 1.55874 3 0.795609 3 0 
C 3 -0.795609 2.683901 -1.55874 2.12132 -2.12132 
C 1.55874 -2.683901 0.795609 -3 0 -3 
C -0.795609 -3 -1.55874 -2.683901 -2.12132 -2.12132 
C -2.683901 -1.55874 -3 -0.795609 -3 0 
C -3 0.795609 -2.683901 1.55874 -2.12132 2.12132 
C -1.55874 2.683901 -0.795609 3 0 3 
z
" style="stroke: #ff0000"/>
    </defs>
    <g clip-path="url(#p063cea45ac)">
     <use xlink:href="#m4363cfb696" x="339.647103" y="219.436547" style="fill: #ff0000; stroke: #ff0000"/>
    </g>
   </g>
   <g id="patch_3">
    <path d="M 57.6 307.584 
L 57.6 41.472 
" style="fill: none; stroke: #000000; stroke-width: 0.8; stroke-linejoin: miter; stroke-linecap: square"/>
   </g>
   <g id="patch_4">
    <path d="M 414.72 307.584 
L 414.72 41.472 
" style="fill: none; stroke: #000000; stroke-width: 0.8; stroke-linejoin: miter; stroke-linecap: square"/>
   </g>
   <g id="patch_5">
    <path d="M 57.6 307.584 
L 414.72 307.584 
" style="fill: none; stroke: #000000; stroke-width: 0.8; stroke-linejoin: miter; stroke-linecap: square"/>
   </g>
   <g id="patch_6">
    <path d="M 57.6 41.472 
L 414.72 41.472 
" style="fill: none; stroke: #000000; stroke-width: 0.8; stroke-linejoin: miter; stroke-linecap: square"/>
   </g>
   <g id="text_13">
    <!-- Vehicle Path -->
    <g transform="translate(199.615312 35.472)scale(0.12 -0.12)">
     <defs>
      <path id="DejaVuSans-56" d="M 1831 0 
L 50 4666 
L 709 4666 
L 2188 738 
L 3669 4666 
L 4325 4666 
L 2547 0 
L 1831 0 
z
" transform="scale(0.015625)"/>
      <path id="DejaVuSans-65" d="M 3597 1894 
L 3597 1613 
L 953 1613 
Q 991 1019 1311 708 
Q 1631 397 2203 397 
Q 2534 397 2845 478 
Q 3156 559 3463 722 
L 3463 178 
Q 3153 47 2828 -22 
Q 2503 -91 2169 -91 
Q 1331 -91 842 396 
Q 353 884 353 1716 
Q 353 2575 817 3079 
Q 1281 3584 2069 3584 
Q 2775 3584 3186 3129 
Q 3597 2675 3597 1894 
z
M 3022 2063 
Q 3016 2534 2758 2815 
Q 2500 3097 2075 3097 
Q 1594 3097 1305 2825 
Q 1016 2553 972 2059 
L 3022 2063 
z
" transform="scale(0.015625)"/>
      <path id="DejaVuSans-68" d="M 3513 2113 
L 3513 0 
L 2938 0 
L 2938 2094 
Q 2938 2591 2744 2837 
Q 2550 3084 2163 3084 
Q 1697 3084 1428 2787 
Q 1159 2491 1159 1978 
L 1159 0 
L 581 0 
L 581 4863 
L 1159 4863 
L 1159 2956 
Q 1366 3272 1645 3428 
Q 1925 3584 2291 3584 
Q 2894 3584 3203 3211 
Q 3513 2838 3513 2113 
z
" transform="scale(0.015625)"/>
      <path id="DejaVuSans-69" d="M 603 3500 
L 1178 3500 
L 1178 0 
L 603 0 
L 603 3500 
z
M 603 4863 
L 1178 4863 
L 1178 4134 
L 603 4134 
L 603 4863 
z
" transform="scale(0.015625)"/>
      <path id="DejaVuSans-63" d="M 3122 3366 
L 3122 2828 
Q 2878 2963 2633 3030 
Q 2388 3097 2138 3097 
Q 1578 3097 1268 2742 
Q 959 2388 959 1747 
Q 959 1106 1268 751 
Q 1578 397 2138 397 
Q 2388 397 2633 464 
Q 2878 531 3122 666 
L 3122 134 
Q 2881 22 2623 -34 
Q 2366 -91 2075 -91 
Q 1284 -91 818 406 
Q 353 903 353 1747 
Q 353 2603 823 3093 
Q 1294 3584 2113 3584 
Q 2378 3584 2631 3529 
Q 2884 3475 3122 3366 
z
" transform="scale(0.015625)"/>
      <path id="DejaVuSans-6c" d="M 603 4863 
L 1178 4863 
L 1178 0 
L 603 0 
L 603 4863 
z
" transform="scale(0.015625)"/>
      <path id="DejaVuSans-20" transform="scale(0.015625)"/>
      <path id="DejaVuSans-50" d="M 1259 4147 
L 1259 2394 
L 2053 2394 
Q 2494 2394 2734 2622 
Q 2975 2850 2975 3272 
Q 2975 3691 2734 3919 
Q 2494 4147 2053 4147 
L 1259 4147 
z
M 628 4666 
L 2053 4666 
Q 2838 4666 3239 4311 
Q 3641 3956 3641 3272 
Q 3641 2581 3239 2228 
Q 2838 1875 2053 1875 
L 1259 1875 
L 1259 0 
L 628 0 
L 628 4666 
z
" transform="scale(0.015625)"/>
      <path id="DejaVuSans-61" d="M 2194 1759 
Q 1497 1759 1228 1600 
Q 959 1441 959 1056 
Q 959 750 1161 570 
Q 1363 391 1709 391 
Q 2188 391 2477 730 
Q 2766 1069 2766 1631 
L 2766 1759 
L 2194 1759 
z
M 3341 1997 
L 3341 0 
L 2766 0 
L 2766 531 
Q 2569 213 2275 61 
Q 1981 -91 1556 -91 
Q 1019 -91 701 211 
Q 384 513 384 1019 
Q 384 1609 779 1909 
Q 1175 2209 1959 2209 
L 2766 2209 
L 2766 2266 
Q 2766 2663 2505 2880 
Q 2244 3097 1772 3097 
Q 1472 3097 1187 3025 
Q 903 2953 641 2809 
L 641 3341 
Q 956 3463 1253 3523 
Q 1550 3584 1831 3584 
Q 2591 3584 2966 3190 
Q 3341 2797 3341 1997 
z
" transform="scale(0.015625)"/>
      <path id="DejaVuSans-74" d="M 1172 4494 
L 1172 3500 
L 2356 3500 
L 2356 3053 
L 1172 3053 
L 1172 1153 
Q 1172 725 1289 603 
Q 1406 481 1766 481 
L 2356 481 
L 2356 0 
L 1766 0 
Q 1100 0 847 248 
Q 594 497 594 1153 
L 594 3053 
L 172 3053 
L 172 3500 
L 594 3500 
L 594 4494 
L 1172 4494 
z
" transform="scale(0.015625)"/>
     </defs>
     <use xlink:href="#DejaVuSans-56"/>
     <use xlink:href="#DejaVuSans-65" x="60.658203"/>
     <use xlink:href="#DejaVuSans-68" x="122.181641"/>
     <use xlink:href="#DejaVuSans-69" x="185.560547"/>
     <use xlink:href="#DejaVuSans-63" x="213.34375"/>
     <use xlink:href="#DejaVuSans-6c" x="268.324219"/>
     <use xlink:href="#DejaVuSans-65" x="296.107422"/>
     <use xlink:href="#DejaVuSans-20" x="357.630859"/>
     <use xlink:href="#DejaVuSans-50" x="389.417969"/>
     <use xlink:href="#DejaVuSans-61" x="445.220703"/>
     <use xlink:href="#DejaVuSans-74" x="506.5"/>
     <use xlink:href="#DejaVuSans-68" x="545.708984"/>
    </g>
   </g>
  </g>
 </g>
 <defs>
  <clipPath id="p063cea45ac">
   <rect x="57.6" y="41.472" width="357.12" height="266.112"/>
  </clipPath>
 </defs>
</svg>
