<?xml version="1.0" encoding="utf-8" standalone="no"?>
<!DOCTYPE svg PUBLIC "-//W3C//DTD SVG 1.1//EN"
  "http://www.w3.org/Graphics/SVG/1.1/DTD/svg11.dtd">
<svg xmlns:xlink="http://www.w3.org/1999/xlink" width="460.8pt" height="345.6pt" viewBox="0 0 460.8 345.6" xmlns="http://www.w3.org/2000/svg" version="1.1">
 <metadata>
  <rdf:RDF xmlns:dc="http://purl.org/dc/elements/1.1/" xmlns:cc="http://creativecommons.org/ns#" xmlns:rdf="http://www.w3.org/1999/02/22-rdf-syntax-ns#">
   <cc:Work>
    <dc:type rdf:resource="http://purl.org/dc/dcmitype/StillImage"/>
    <dc:date>2023-06-22T12:43:13.742679</dc:date>
    <dc:format>image/svg+xml</dc:format>
    <dc:creator>
     <cc:Agent>
      <dc:title>Matplotlib v3.5.1, https://matplotlib.org/</dc:title>
     </cc:Agent>
    </dc:creator>
   </cc:Work>
  </rdf:RDF>
 </metadata>
 <defs>
  <style type="text/css">*{stroke-linejoin: round; stroke-linecap: butt}</style>
 </defs>
 <g id="figure_1">
  <g id="patch_1">
   <path d="M 0 345.6 
L 460.8 345.6 
L 460.8 0 
L 0 0 
z
" style="fill: #ffffff"/>
  </g>
  <g id="axes_1">
   <g id="patch_2">
    <path d="M 57.6 307.584 
L 414.72 307.584 
L 414.72 41.472 
L 57.6 41.472 
z
" style="fill: #ffffff"/>
   </g>
   <g id="matplotlib.axis_1">
    <g id="xtick_1">
     <g id="line2d_1">
      <defs>
       <path id="mc7c8557011" d="M 0 0 
L 0 3.5 
" style="stroke: #000000; stroke-width: 0.8"/>
      </defs>
      <g>
       <use xlink:href="#mc7c8557011" x="79.463293" y="307.584" style="stroke: #000000; stroke-width: 0.8"/>
      </g>
     </g>
     <g id="text_1">
      <!-- 0.0 -->
      <g transform="translate(71.51173 322.182437)scale(0.1 -0.1)">
       <defs>
        <path id="DejaVuSans-30" d="M 2034 4250 
Q 1547 4250 1301 3770 
Q 1056 3291 1056 2328 
Q 1056 1369 1301 889 
Q 1547 409 2034 409 
Q 2525 409 2770 889 
Q 3016 1369 3016 2328 
Q 3016 3291 2770 3770 
Q 2525 4250 2034 4250 
z
M 2034 4750 
Q 2819 4750 3233 4129 
Q 3647 3509 3647 2328 
Q 3647 1150 3233 529 
Q 2819 -91 2034 -91 
Q 1250 -91 836 529 
Q 422 1150 422 2328 
Q 422 3509 836 4129 
Q 1250 4750 2034 4750 
z
" transform="scale(0.015625)"/>
        <path id="DejaVuSans-2e" d="M 684 794 
L 1344 794 
L 1344 0 
L 684 0 
L 684 794 
z
" transform="scale(0.015625)"/>
       </defs>
       <use xlink:href="#DejaVuSans-30"/>
       <use xlink:href="#DejaVuSans-2e" x="63.623047"/>
       <use xlink:href="#DejaVuSans-30" x="95.410156"/>
      </g>
     </g>
    </g>
    <g id="xtick_2">
     <g id="line2d_2">
      <g>
       <use xlink:href="#mc7c8557011" x="119.277402" y="307.584" style="stroke: #000000; stroke-width: 0.8"/>
      </g>
     </g>
     <g id="text_2">
      <!-- 2.5 -->
      <g transform="translate(111.325839 322.182437)scale(0.1 -0.1)">
       <defs>
        <path id="DejaVuSans-32" d="M 1228 531 
L 3431 531 
L 3431 0 
L 469 0 
L 469 531 
Q 828 903 1448 1529 
Q 2069 2156 2228 2338 
Q 2531 2678 2651 2914 
Q 2772 3150 2772 3378 
Q 2772 3750 2511 3984 
Q 2250 4219 1831 4219 
Q 1534 4219 1204 4116 
Q 875 4013 500 3803 
L 500 4441 
Q 881 4594 1212 4672 
Q 1544 4750 1819 4750 
Q 2544 4750 2975 4387 
Q 3406 4025 3406 3419 
Q 3406 3131 3298 2873 
Q 3191 2616 2906 2266 
Q 2828 2175 2409 1742 
Q 1991 1309 1228 531 
z
" transform="scale(0.015625)"/>
        <path id="DejaVuSans-35" d="M 691 4666 
L 3169 4666 
L 3169 4134 
L 1269 4134 
L 1269 2991 
Q 1406 3038 1543 3061 
Q 1681 3084 1819 3084 
Q 2600 3084 3056 2656 
Q 3513 2228 3513 1497 
Q 3513 744 3044 326 
Q 2575 -91 1722 -91 
Q 1428 -91 1123 -41 
Q 819 9 494 109 
L 494 744 
Q 775 591 1075 516 
Q 1375 441 1709 441 
Q 2250 441 2565 725 
Q 2881 1009 2881 1497 
Q 2881 1984 2565 2268 
Q 2250 2553 1709 2553 
Q 1456 2553 1204 2497 
Q 953 2441 691 2322 
L 691 4666 
z
" transform="scale(0.015625)"/>
       </defs>
       <use xlink:href="#DejaVuSans-32"/>
       <use xlink:href="#DejaVuSans-2e" x="63.623047"/>
       <use xlink:href="#DejaVuSans-35" x="95.410156"/>
      </g>
     </g>
    </g>
    <g id="xtick_3">
     <g id="line2d_3">
      <g>
       <use xlink:href="#mc7c8557011" x="159.09151" y="307.584" style="stroke: #000000; stroke-width: 0.8"/>
      </g>
     </g>
     <g id="text_3">
      <!-- 5.0 -->
      <g transform="translate(151.139948 322.182437)scale(0.1 -0.1)">
       <use xlink:href="#DejaVuSans-35"/>
       <use xlink:href="#DejaVuSans-2e" x="63.623047"/>
       <use xlink:href="#DejaVuSans-30" x="95.410156"/>
      </g>
     </g>
    </g>
    <g id="xtick_4">
     <g id="line2d_4">
      <g>
       <use xlink:href="#mc7c8557011" x="198.905619" y="307.584" style="stroke: #000000; stroke-width: 0.8"/>
      </g>
     </g>
     <g id="text_4">
      <!-- 7.5 -->
      <g transform="translate(190.954057 322.182437)scale(0.1 -0.1)">
       <defs>
        <path id="DejaVuSans-37" d="M 525 4666 
L 3525 4666 
L 3525 4397 
L 1831 0 
L 1172 0 
L 2766 4134 
L 525 4134 
L 525 4666 
z
" transform="scale(0.015625)"/>
       </defs>
       <use xlink:href="#DejaVuSans-37"/>
       <use xlink:href="#DejaVuSans-2e" x="63.623047"/>
       <use xlink:href="#DejaVuSans-35" x="95.410156"/>
      </g>
     </g>
    </g>
    <g id="xtick_5">
     <g id="line2d_5">
      <g>
       <use xlink:href="#mc7c8557011" x="238.719728" y="307.584" style="stroke: #000000; stroke-width: 0.8"/>
      </g>
     </g>
     <g id="text_5">
      <!-- 10.0 -->
      <g transform="translate(227.586916 322.182437)scale(0.1 -0.1)">
       <defs>
        <path id="DejaVuSans-31" d="M 794 531 
L 1825 531 
L 1825 4091 
L 703 3866 
L 703 4441 
L 1819 4666 
L 2450 4666 
L 2450 531 
L 3481 531 
L 3481 0 
L 794 0 
L 794 531 
z
" transform="scale(0.015625)"/>
       </defs>
       <use xlink:href="#DejaVuSans-31"/>
       <use xlink:href="#DejaVuSans-30" x="63.623047"/>
       <use xlink:href="#DejaVuSans-2e" x="127.246094"/>
       <use xlink:href="#DejaVuSans-30" x="159.033203"/>
      </g>
     </g>
    </g>
    <g id="xtick_6">
     <g id="line2d_6">
      <g>
       <use xlink:href="#mc7c8557011" x="278.533837" y="307.584" style="stroke: #000000; stroke-width: 0.8"/>
      </g>
     </g>
     <g id="text_6">
      <!-- 12.5 -->
      <g transform="translate(267.401025 322.182437)scale(0.1 -0.1)">
       <use xlink:href="#DejaVuSans-31"/>
       <use xlink:href="#DejaVuSans-32" x="63.623047"/>
       <use xlink:href="#DejaVuSans-2e" x="127.246094"/>
       <use xlink:href="#DejaVuSans-35" x="159.033203"/>
      </g>
     </g>
    </g>
    <g id="xtick_7">
     <g id="line2d_7">
      <g>
       <use xlink:href="#mc7c8557011" x="318.347946" y="307.584" style="stroke: #000000; stroke-width: 0.8"/>
      </g>
     </g>
     <g id="text_7">
      <!-- 15.0 -->
      <g transform="translate(307.215134 322.182437)scale(0.1 -0.1)">
       <use xlink:href="#DejaVuSans-31"/>
       <use xlink:href="#DejaVuSans-35" x="63.623047"/>
       <use xlink:href="#DejaVuSans-2e" x="127.246094"/>
       <use xlink:href="#DejaVuSans-30" x="159.033203"/>
      </g>
     </g>
    </g>
    <g id="xtick_8">
     <g id="line2d_8">
      <g>
       <use xlink:href="#mc7c8557011" x="358.162055" y="307.584" style="stroke: #000000; stroke-width: 0.8"/>
      </g>
     </g>
     <g id="text_8">
      <!-- 17.5 -->
      <g transform="translate(347.029243 322.182437)scale(0.1 -0.1)">
       <use xlink:href="#DejaVuSans-31"/>
       <use xlink:href="#DejaVuSans-37" x="63.623047"/>
       <use xlink:href="#DejaVuSans-2e" x="127.246094"/>
       <use xlink:href="#DejaVuSans-35" x="159.033203"/>
      </g>
     </g>
    </g>
    <g id="xtick_9">
     <g id="line2d_9">
      <g>
       <use xlink:href="#mc7c8557011" x="397.976164" y="307.584" style="stroke: #000000; stroke-width: 0.8"/>
      </g>
     </g>
     <g id="text_9">
      <!-- 20.0 -->
      <g transform="translate(386.843352 322.182437)scale(0.1 -0.1)">
       <use xlink:href="#DejaVuSans-32"/>
       <use xlink:href="#DejaVuSans-30" x="63.623047"/>
       <use xlink:href="#DejaVuSans-2e" x="127.246094"/>
       <use xlink:href="#DejaVuSans-30" x="159.033203"/>
      </g>
     </g>
    </g>
   </g>
   <g id="matplotlib.axis_2">
    <g id="ytick_1">
     <g id="line2d_10">
      <defs>
       <path id="ma43f287b47" d="M 0 0 
L -3.5 0 
" style="stroke: #000000; stroke-width: 0.8"/>
      </defs>
      <g>
       <use xlink:href="#ma43f287b47" x="57.6" y="283.795295" style="stroke: #000000; stroke-width: 0.8"/>
      </g>
     </g>
     <g id="text_10">
      <!-- −5 -->
      <g transform="translate(35.857813 287.594514)scale(0.1 -0.1)">
       <defs>
        <path id="DejaVuSans-2212" d="M 678 2272 
L 4684 2272 
L 4684 1741 
L 678 1741 
L 678 2272 
z
" transform="scale(0.015625)"/>
       </defs>
       <use xlink:href="#DejaVuSans-2212"/>
       <use xlink:href="#DejaVuSans-35" x="83.789062"/>
      </g>
     </g>
    </g>
    <g id="ytick_2">
     <g id="line2d_11">
      <g>
       <use xlink:href="#ma43f287b47" x="57.6" y="246.402176" style="stroke: #000000; stroke-width: 0.8"/>
      </g>
     </g>
     <g id="text_11">
      <!-- −4 -->
      <g transform="translate(35.857813 250.201395)scale(0.1 -0.1)">
       <defs>
        <path id="DejaVuSans-34" d="M 2419 4116 
L 825 1625 
L 2419 1625 
L 2419 4116 
z
M 2253 4666 
L 3047 4666 
L 3047 1625 
L 3713 1625 
L 3713 1100 
L 3047 1100 
L 3047 0 
L 2419 0 
L 2419 1100 
L 313 1100 
L 313 1709 
L 2253 4666 
z
" transform="scale(0.015625)"/>
       </defs>
       <use xlink:href="#DejaVuSans-2212"/>
       <use xlink:href="#DejaVuSans-34" x="83.789062"/>
      </g>
     </g>
    </g>
    <g id="ytick_3">
     <g id="line2d_12">
      <g>
       <use xlink:href="#ma43f287b47" x="57.6" y="209.009057" style="stroke: #000000; stroke-width: 0.8"/>
      </g>
     </g>
     <g id="text_12">
      <!-- −3 -->
      <g transform="translate(35.857813 212.808275)scale(0.1 -0.1)">
       <defs>
        <path id="DejaVuSans-33" d="M 2597 2516 
Q 3050 2419 3304 2112 
Q 3559 1806 3559 1356 
Q 3559 666 3084 287 
Q 2609 -91 1734 -91 
Q 1441 -91 1130 -33 
Q 819 25 488 141 
L 488 750 
Q 750 597 1062 519 
Q 1375 441 1716 441 
Q 2309 441 2620 675 
Q 2931 909 2931 1356 
Q 2931 1769 2642 2001 
Q 2353 2234 1838 2234 
L 1294 2234 
L 1294 2753 
L 1863 2753 
Q 2328 2753 2575 2939 
Q 2822 3125 2822 3475 
Q 2822 3834 2567 4026 
Q 2313 4219 1838 4219 
Q 1578 4219 1281 4162 
Q 984 4106 628 3988 
L 628 4550 
Q 988 4650 1302 4700 
Q 1616 4750 1894 4750 
Q 2613 4750 3031 4423 
Q 3450 4097 3450 3541 
Q 3450 3153 3228 2886 
Q 3006 2619 2597 2516 
z
" transform="scale(0.015625)"/>
       </defs>
       <use xlink:href="#DejaVuSans-2212"/>
       <use xlink:href="#DejaVuSans-33" x="83.789062"/>
      </g>
     </g>
    </g>
    <g id="ytick_4">
     <g id="line2d_13">
      <g>
       <use xlink:href="#ma43f287b47" x="57.6" y="171.615937" style="stroke: #000000; stroke-width: 0.8"/>
      </g>
     </g>
     <g id="text_13">
      <!-- −2 -->
      <g transform="translate(35.857813 175.415156)scale(0.1 -0.1)">
       <use xlink:href="#DejaVuSans-2212"/>
       <use xlink:href="#DejaVuSans-32" x="83.789062"/>
      </g>
     </g>
    </g>
    <g id="ytick_5">
     <g id="line2d_14">
      <g>
       <use xlink:href="#ma43f287b47" x="57.6" y="134.222818" style="stroke: #000000; stroke-width: 0.8"/>
      </g>
     </g>
     <g id="text_14">
      <!-- −1 -->
      <g transform="translate(35.857813 138.022037)scale(0.1 -0.1)">
       <use xlink:href="#DejaVuSans-2212"/>
       <use xlink:href="#DejaVuSans-31" x="83.789062"/>
      </g>
     </g>
    </g>
    <g id="ytick_6">
     <g id="line2d_15">
      <g>
       <use xlink:href="#ma43f287b47" x="57.6" y="96.829699" style="stroke: #000000; stroke-width: 0.8"/>
      </g>
     </g>
     <g id="text_15">
      <!-- 0 -->
      <g transform="translate(44.2375 100.628917)scale(0.1 -0.1)">
       <use xlink:href="#DejaVuSans-30"/>
      </g>
     </g>
    </g>
    <g id="ytick_7">
     <g id="line2d_16">
      <g>
       <use xlink:href="#ma43f287b47" x="57.6" y="59.436579" style="stroke: #000000; stroke-width: 0.8"/>
      </g>
     </g>
     <g id="text_16">
      <!-- 1 -->
      <g transform="translate(44.2375 63.235798)scale(0.1 -0.1)">
       <use xlink:href="#DejaVuSans-31"/>
      </g>
     </g>
    </g>
   </g>
   <g id="line2d_17">
    <path d="M 393.446955 257.514487 
L 390.981134 262.248316 
L 388.326354 266.38049 
L 385.509142 269.869721 
L 382.557646 272.681146 
L 379.501357 274.786674 
L 376.370812 276.165268 
L 373.19729 276.803153 
L 370.012501 276.693955 
L 366.848266 275.838766 
L 363.7362 274.24613 
L 360.707398 271.93196 
L 357.792124 268.91938 
L 355.019505 265.238489 
L 352.417245 260.926065 
L 350.011345 256.025198 
L 347.825843 250.584855 
L 345.882576 244.659394 
L 344.200962 238.30802 
L 342.797801 231.594194 
L 341.687115 224.584999 
L 340.283954 217.871173 
L 338.60234 211.519799 
L 336.659073 205.594338 
L 334.473571 200.153994 
L 332.067671 195.253127 
L 329.465411 190.940704 
L 326.692792 187.259813 
L 323.777518 184.247232 
L 320.748716 181.933063 
L 317.63665 180.340427 
L 314.472415 179.485237 
L 311.287626 179.37604 
L 308.114104 180.013924 
L 304.983559 181.392518 
L 301.92727 183.498046 
L 298.975774 186.309471 
L 296.158562 189.798702 
L 293.503782 193.930876 
L 291.037961 198.664705 
L 288.785734 203.952891 
L 286.319913 208.68672 
L 283.665133 212.818894 
L 280.847921 216.308125 
L 277.896425 219.11955 
L 274.840136 221.225078 
L 271.709591 222.603672 
L 268.536069 223.241557 
L 265.35128 223.132359 
L 262.187045 222.27717 
L 259.074979 220.684534 
L 256.046177 218.370364 
L 253.130903 215.357784 
L 250.358284 211.676892 
L 247.756024 207.364469 
L 245.350124 202.463602 
L 243.164622 197.023259 
L 241.221355 191.097797 
L 239.539741 184.746423 
L 238.13658 178.032598 
L 237.025894 171.023402 
L 235.622733 164.309577 
L 233.941119 157.958203 
L 231.997852 152.032741 
L 229.81235 146.592398 
L 227.40645 141.691531 
L 224.80419 137.379108 
L 222.031571 133.698216 
L 219.116297 130.685636 
L 216.087495 128.371466 
L 212.975429 126.77883 
L 209.811194 125.923641 
L 206.626405 125.814443 
L 203.452883 126.452328 
L 200.322338 127.830922 
L 197.266049 129.93645 
L 194.314553 132.747875 
L 191.497341 136.237106 
L 188.842561 140.36928 
L 186.37674 145.103109 
L 184.124514 150.391295 
L 181.658692 155.125124 
L 179.003912 159.257298 
L 176.1867 162.746529 
L 173.235204 165.557954 
L 170.178915 167.663482 
L 167.04837 169.042076 
L 163.874849 169.67996 
L 160.690059 169.570763 
L 157.525824 168.715573 
L 154.413758 167.122937 
L 151.384956 164.808768 
L 148.469682 161.796187 
L 145.697063 158.115296 
L 143.094803 153.802873 
L 140.688903 148.902006 
L 138.503401 143.461662 
L 136.560135 137.536201 
L 134.87852 131.184827 
L 133.475359 124.471001 
L 132.364673 117.461806 
L 130.961512 110.74798 
L 129.279898 104.396606 
L 127.336631 98.471145 
L 125.151129 93.030802 
L 122.745229 88.129935 
L 120.142969 83.817511 
L 117.37035 80.13662 
L 114.455076 77.12404 
L 111.426274 74.80987 
L 108.314208 73.217234 
L 105.149973 72.362045 
L 101.965184 72.252847 
L 98.791662 72.890732 
L 95.661117 74.269326 
L 92.604828 76.374854 
L 89.653332 79.186279 
L 86.83612 82.67551 
L 84.18134 86.807684 
L 81.715519 91.541513 
L 79.463293 96.829699 
" clip-path="url(#p489ed0f835)" style="fill: none; stroke: #0000ff; stroke-width: 1.5; stroke-linecap: square"/>
   </g>
   <g id="line2d_18">
    <path d="M 398.487273 271.988748 
L 395.707053 277.29597 
L 392.388854 282.460757 
L 388.867633 286.821932 
L 385.17857 290.335921 
L 381.358527 292.967612 
L 377.445672 294.69071 
L 373.479101 295.488 
L 369.498446 295.351514 
L 365.543481 294.282617 
L 361.653723 292.291988 
L 357.868037 289.399517 
L 354.224247 285.634105 
L 350.758763 281.033374 
L 347.506209 275.643294 
L 344.499084 269.517721 
L 341.767434 262.717858 
L 339.338553 255.311649 
L 337.23671 247.373093 
L 335.482906 238.98151 
L 334.372219 231.972315 
L 333.319702 226.936246 
L 332.058316 222.172054 
L 330.600664 217.727341 
L 328.96131 213.646517 
L 327.156634 209.970356 
L 325.204668 206.735589 
L 323.124915 203.974538 
L 320.938156 201.714789 
L 318.666239 199.97892 
L 316.331866 198.784278 
L 313.95836 198.142797 
L 311.569436 198.060887 
L 309.188964 198.539367 
L 306.84073 199.573456 
L 304.548194 201.152821 
L 302.334265 203.261683 
L 300.221063 205.87897 
L 298.229701 208.97853 
L 296.380078 212.529395 
L 294.127852 217.817581 
L 291.045832 223.734374 
L 287.727633 228.899161 
L 284.206412 233.260336 
L 280.517349 236.774325 
L 276.697306 239.406016 
L 272.784451 241.129114 
L 268.81788 241.926404 
L 264.837225 241.789918 
L 260.88226 240.721021 
L 256.992502 238.730392 
L 253.206816 235.837921 
L 249.563026 232.072509 
L 246.097542 227.471778 
L 242.844988 222.081698 
L 239.837863 215.956125 
L 237.106213 209.156262 
L 234.677332 201.750053 
L 232.575489 193.811497 
L 230.821685 185.419914 
L 229.710998 178.410719 
L 228.658481 173.37465 
L 227.397095 168.610458 
L 225.939443 164.165745 
L 224.300089 160.084921 
L 222.495413 156.40876 
L 220.543447 153.173993 
L 218.463694 150.412942 
L 216.276935 148.153192 
L 214.005018 146.417324 
L 211.670645 145.222681 
L 209.297139 144.5812 
L 206.908215 144.499291 
L 204.527743 144.977771 
L 202.179509 146.01186 
L 199.886973 147.591225 
L 197.673044 149.700087 
L 195.559842 152.317373 
L 193.56848 155.416934 
L 191.718857 158.967799 
L 189.466631 164.255985 
L 186.384611 170.172778 
L 183.066412 175.337565 
L 179.545191 179.69874 
L 175.856128 183.212728 
L 172.036085 185.844419 
L 168.12323 187.567518 
L 164.156659 188.364808 
L 160.176004 188.228322 
L 156.221039 187.159424 
L 152.331281 185.168795 
L 148.545595 182.276324 
L 144.901805 178.510912 
L 141.436321 173.910182 
L 138.183767 168.520102 
L 135.176642 162.394528 
L 132.444992 155.594666 
L 130.016111 148.188457 
L 127.914268 140.249901 
L 126.160464 131.858318 
L 125.049777 124.849122 
L 123.997261 119.813054 
L 122.735874 115.048862 
L 121.278222 110.604149 
L 119.638868 106.523325 
L 117.834192 102.847164 
L 115.882226 99.612397 
L 113.802473 96.851345 
L 111.615714 94.591596 
L 109.343797 92.855728 
L 107.009424 91.661085 
L 104.635918 91.019604 
L 102.246994 90.937694 
L 99.866522 91.416174 
L 97.518288 92.450263 
L 95.225753 94.029629 
L 93.011823 96.13849 
L 90.898621 98.755777 
L 88.907259 101.855338 
L 87.057636 105.406203 
L 85.093858 110.050163 
" clip-path="url(#p489ed0f835)" style="fill: none; stroke: #008000; stroke-width: 1.5; stroke-linecap: square"/>
   </g>
   <g id="line2d_19">
    <path d="M 388.406638 243.040226 
L 386.255215 247.200662 
L 384.263853 250.300223 
L 382.150651 252.91751 
L 379.936722 255.026371 
L 377.644186 256.605737 
L 375.295952 257.639826 
L 372.91548 258.118306 
L 370.526556 258.036396 
L 368.15305 257.394915 
L 365.818677 256.200272 
L 363.54676 254.464404 
L 361.360001 252.204655 
L 359.280248 249.443603 
L 357.328282 246.208836 
L 355.523606 242.532675 
L 353.884252 238.451851 
L 352.4266 234.007138 
L 351.165214 229.242946 
L 350.112697 224.206878 
L 349.00201 217.197682 
L 347.248206 208.806099 
L 345.146363 200.867543 
L 342.717482 193.461334 
L 339.985832 186.661472 
L 336.978707 180.535898 
L 333.726153 175.145818 
L 330.260669 170.545088 
L 326.616879 166.779676 
L 322.831193 163.887205 
L 318.941435 161.896576 
L 314.98647 160.827678 
L 311.005815 160.691192 
L 307.039244 161.488482 
L 303.126389 163.211581 
L 299.306346 165.843272 
L 295.617283 169.35726 
L 292.096062 173.718435 
L 288.777863 178.883222 
L 285.695843 184.800015 
L 283.443617 190.088201 
L 281.593994 193.639066 
L 279.602632 196.738627 
L 277.48943 199.355913 
L 275.275501 201.464775 
L 272.982965 203.04414 
L 270.634731 204.078229 
L 268.254259 204.556709 
L 265.865335 204.4748 
L 263.491829 203.833319 
L 261.157456 202.638676 
L 258.885539 200.902808 
L 256.69878 198.643058 
L 254.619027 195.882007 
L 252.667061 192.64724 
L 250.862385 188.971079 
L 249.223031 184.890255 
L 247.765379 180.445542 
L 246.503993 175.68135 
L 245.451476 170.645281 
L 244.340789 163.636086 
L 242.586985 155.244503 
L 240.485142 147.305947 
L 238.056261 139.899738 
L 235.324611 133.099875 
L 232.317486 126.974302 
L 229.064932 121.584222 
L 225.599448 116.983491 
L 221.955658 113.218079 
L 218.169972 110.325608 
L 214.280214 108.334979 
L 210.325249 107.266082 
L 206.344594 107.129596 
L 202.378023 107.926886 
L 198.465168 109.649984 
L 194.645125 112.281675 
L 190.956062 115.795664 
L 187.434841 120.156839 
L 184.116642 125.321626 
L 181.034622 131.238419 
L 178.782396 136.526605 
L 176.932773 140.07747 
L 174.941411 143.17703 
L 172.828209 145.794317 
L 170.61428 147.903179 
L 168.321745 149.482544 
L 165.97351 150.516633 
L 163.593038 150.995113 
L 161.204115 150.913203 
L 158.830608 150.271722 
L 156.496235 149.07708 
L 154.224318 147.341211 
L 152.037559 145.081462 
L 149.957806 142.320411 
L 148.00584 139.085644 
L 146.201164 135.409483 
L 144.56181 131.328659 
L 143.104158 126.883946 
L 141.842772 122.119754 
L 140.790255 117.083685 
L 139.679568 110.07449 
L 137.925764 101.682907 
L 135.823921 93.744351 
L 133.39504 86.338142 
L 130.66339 79.538279 
L 127.656266 73.412706 
L 124.403711 68.022626 
L 120.938227 63.421895 
L 117.294437 59.656483 
L 113.508751 56.764012 
L 109.618993 54.773383 
L 105.664028 53.704486 
L 101.683373 53.568 
L 97.716802 54.36529 
L 93.803947 56.088388 
L 89.983904 58.720079 
L 86.294841 62.234068 
L 82.77362 66.595243 
L 79.455422 71.76003 
L 76.373401 77.676823 
L 73.832727 83.609234 
" clip-path="url(#p489ed0f835)" style="fill: none; stroke: #008000; stroke-width: 1.5; stroke-linecap: square"/>
   </g>
   <g id="line2d_20">
    <path d="M 181.757321 154.058236 
L 173.149724 163.80015 
L 163.927794 169.675455 
L 154.433828 167.13569 
L 145.687438 158.100976 
L 138.47513 143.38379 
L 133.446942 124.305412 
L 129.217847 104.186599 
L 122.634027 87.926302 
L 114.293083 76.980055 
L 104.944961 72.332463 
" clip-path="url(#p489ed0f835)" style="fill: none; stroke-dasharray: 5.55,2.4; stroke-dashoffset: 0; stroke: #ff0000; stroke-width: 1.5"/>
   </g>
   <g id="line2d_21">
    <path d="M 181.757321 154.058236 
L 181.38822 155.583837 
" clip-path="url(#p489ed0f835)" style="fill: none; stroke-dasharray: 5.55,2.4; stroke-dashoffset: 0; stroke: #ffa500; stroke-width: 1.5"/>
   </g>
   <g id="line2d_22">
    <path d="M 173.149724 163.80015 
L 173.395289 165.425766 
" clip-path="url(#p489ed0f835)" style="fill: none; stroke-dasharray: 5.55,2.4; stroke-dashoffset: 0; stroke: #ffa500; stroke-width: 1.5"/>
   </g>
   <g id="line2d_23">
    <path d="M 163.927794 169.675455 
L 163.927794 169.675455 
" clip-path="url(#p489ed0f835)" style="fill: none; stroke-dasharray: 5.55,2.4; stroke-dashoffset: 0; stroke: #ffa500; stroke-width: 1.5"/>
   </g>
   <g id="line2d_24">
    <path d="M 154.433828 167.13569 
L 154.433828 167.13569 
" clip-path="url(#p489ed0f835)" style="fill: none; stroke-dasharray: 5.55,2.4; stroke-dashoffset: 0; stroke: #ffa500; stroke-width: 1.5"/>
   </g>
   <g id="line2d_25">
    <path d="M 145.687438 158.100976 
L 145.687438 158.100976 
" clip-path="url(#p489ed0f835)" style="fill: none; stroke-dasharray: 5.55,2.4; stroke-dashoffset: 0; stroke: #ffa500; stroke-width: 1.5"/>
   </g>
   <g id="line2d_26">
    <path d="M 138.47513 143.38379 
L 138.47513 143.38379 
" clip-path="url(#p489ed0f835)" style="fill: none; stroke-dasharray: 5.55,2.4; stroke-dashoffset: 0; stroke: #ffa500; stroke-width: 1.5"/>
   </g>
   <g id="line2d_27">
    <path d="M 133.446942 124.305412 
L 133.446942 124.305412 
" clip-path="url(#p489ed0f835)" style="fill: none; stroke-dasharray: 5.55,2.4; stroke-dashoffset: 0; stroke: #ffa500; stroke-width: 1.5"/>
   </g>
   <g id="line2d_28">
    <path d="M 129.217847 104.186599 
L 129.217847 104.186599 
" clip-path="url(#p489ed0f835)" style="fill: none; stroke-dasharray: 5.55,2.4; stroke-dashoffset: 0; stroke: #ffa500; stroke-width: 1.5"/>
   </g>
   <g id="line2d_29">
    <path d="M 122.634027 87.926302 
L 122.634027 87.926302 
" clip-path="url(#p489ed0f835)" style="fill: none; stroke-dasharray: 5.55,2.4; stroke-dashoffset: 0; stroke: #ffa500; stroke-width: 1.5"/>
   </g>
   <g id="line2d_30">
    <path d="M 114.293083 76.980055 
L 114.293083 76.980055 
" clip-path="url(#p489ed0f835)" style="fill: none; stroke-dasharray: 5.55,2.4; stroke-dashoffset: 0; stroke: #ffa500; stroke-width: 1.5"/>
   </g>
   <g id="line2d_31">
    <path d="M 104.944961 72.332463 
L 104.944961 72.332463 
" clip-path="url(#p489ed0f835)" style="fill: none; stroke-dasharray: 5.55,2.4; stroke-dashoffset: 0; stroke: #ffa500; stroke-width: 1.5"/>
   </g>
   <g id="line2d_32">
    <defs>
     <path id="md1f51b038b" d="M 0 3 
C 0.795609 3 1.55874 2.683901 2.12132 2.12132 
C 2.683901 1.55874 3 0.795609 3 0 
C 3 -0.795609 2.683901 -1.55874 2.12132 -2.12132 
C 1.55874 -2.683901 0.795609 -3 0 -3 
C -0.795609 -3 -1.55874 -2.683901 -2.12132 -2.12132 
C -2.683901 -1.55874 -3 -0.795609 -3 0 
C -3 0.795609 -2.683901 1.55874 -2.12132 2.12132 
C -1.55874 2.683901 -0.795609 3 0 3 
z
" style="stroke: #ff0000"/>
    </defs>
    <g clip-path="url(#p489ed0f835)">
     <use xlink:href="#md1f51b038b" x="178.888122" y="157.30554" style="fill: #ff0000; stroke: #ff0000"/>
    </g>
   </g>
   <g id="patch_3">
    <path d="M 57.6 307.584 
L 57.6 41.472 
" style="fill: none; stroke: #000000; stroke-width: 0.8; stroke-linejoin: miter; stroke-linecap: square"/>
   </g>
   <g id="patch_4">
    <path d="M 414.72 307.584 
L 414.72 41.472 
" style="fill: none; stroke: #000000; stroke-width: 0.8; stroke-linejoin: miter; stroke-linecap: square"/>
   </g>
   <g id="patch_5">
    <path d="M 57.6 307.584 
L 414.72 307.584 
" style="fill: none; stroke: #000000; stroke-width: 0.8; stroke-linejoin: miter; stroke-linecap: square"/>
   </g>
   <g id="patch_6">
    <path d="M 57.6 41.472 
L 414.72 41.472 
" style="fill: none; stroke: #000000; stroke-width: 0.8; stroke-linejoin: miter; stroke-linecap: square"/>
   </g>
   <g id="text_17">
    <!-- Vehicle Path -->
    <g transform="translate(199.615312 35.472)scale(0.12 -0.12)">
     <defs>
      <path id="DejaVuSans-56" d="M 1831 0 
L 50 4666 
L 709 4666 
L 2188 738 
L 3669 4666 
L 4325 4666 
L 2547 0 
L 1831 0 
z
" transform="scale(0.015625)"/>
      <path id="DejaVuSans-65" d="M 3597 1894 
L 3597 1613 
L 953 1613 
Q 991 1019 1311 708 
Q 1631 397 2203 397 
Q 2534 397 2845 478 
Q 3156 559 3463 722 
L 3463 178 
Q 3153 47 2828 -22 
Q 2503 -91 2169 -91 
Q 1331 -91 842 396 
Q 353 884 353 1716 
Q 353 2575 817 3079 
Q 1281 3584 2069 3584 
Q 2775 3584 3186 3129 
Q 3597 2675 3597 1894 
z
M 3022 2063 
Q 3016 2534 2758 2815 
Q 2500 3097 2075 3097 
Q 1594 3097 1305 2825 
Q 1016 2553 972 2059 
L 3022 2063 
z
" transform="scale(0.015625)"/>
      <path id="DejaVuSans-68" d="M 3513 2113 
L 3513 0 
L 2938 0 
L 2938 2094 
Q 2938 2591 2744 2837 
Q 2550 3084 2163 3084 
Q 1697 3084 1428 2787 
Q 1159 2491 1159 1978 
L 1159 0 
L 581 0 
L 581 4863 
L 1159 4863 
L 1159 2956 
Q 1366 3272 1645 3428 
Q 1925 3584 2291 3584 
Q 2894 3584 3203 3211 
Q 3513 2838 3513 2113 
z
" transform="scale(0.015625)"/>
      <path id="DejaVuSans-69" d="M 603 3500 
L 1178 3500 
L 1178 0 
L 603 0 
L 603 3500 
z
M 603 4863 
L 1178 4863 
L 1178 4134 
L 603 4134 
L 603 4863 
z
" transform="scale(0.015625)"/>
      <path id="DejaVuSans-63" d="M 3122 3366 
L 3122 2828 
Q 2878 2963 2633 3030 
Q 2388 3097 2138 3097 
Q 1578 3097 1268 2742 
Q 959 2388 959 1747 
Q 959 1106 1268 751 
Q 1578 397 2138 397 
Q 2388 397 2633 464 
Q 2878 531 3122 666 
L 3122 134 
Q 2881 22 2623 -34 
Q 2366 -91 2075 -91 
Q 1284 -91 818 406 
Q 353 903 353 1747 
Q 353 2603 823 3093 
Q 1294 3584 2113 3584 
Q 2378 3584 2631 3529 
Q 2884 3475 3122 3366 
z
" transform="scale(0.015625)"/>
      <path id="DejaVuSans-6c" d="M 603 4863 
L 1178 4863 
L 1178 0 
L 603 0 
L 603 4863 
z
" transform="scale(0.015625)"/>
      <path id="DejaVuSans-20" transform="scale(0.015625)"/>
      <path id="DejaVuSans-50" d="M 1259 4147 
L 1259 2394 
L 2053 2394 
Q 2494 2394 2734 2622 
Q 2975 2850 2975 3272 
Q 2975 3691 2734 3919 
Q 2494 4147 2053 4147 
L 1259 4147 
z
M 628 4666 
L 2053 4666 
Q 2838 4666 3239 4311 
Q 3641 3956 3641 3272 
Q 3641 2581 3239 2228 
Q 2838 1875 2053 1875 
L 1259 1875 
L 1259 0 
L 628 0 
L 628 4666 
z
" transform="scale(0.015625)"/>
      <path id="DejaVuSans-61" d="M 2194 1759 
Q 1497 1759 1228 1600 
Q 959 1441 959 1056 
Q 959 750 1161 570 
Q 1363 391 1709 391 
Q 2188 391 2477 730 
Q 2766 1069 2766 1631 
L 2766 1759 
L 2194 1759 
z
M 3341 1997 
L 3341 0 
L 2766 0 
L 2766 531 
Q 2569 213 2275 61 
Q 1981 -91 1556 -91 
Q 1019 -91 701 211 
Q 384 513 384 1019 
Q 384 1609 779 1909 
Q 1175 2209 1959 2209 
L 2766 2209 
L 2766 2266 
Q 2766 2663 2505 2880 
Q 2244 3097 1772 3097 
Q 1472 3097 1187 3025 
Q 903 2953 641 2809 
L 641 3341 
Q 956 3463 1253 3523 
Q 1550 3584 1831 3584 
Q 2591 3584 2966 3190 
Q 3341 2797 3341 1997 
z
" transform="scale(0.015625)"/>
      <path id="DejaVuSans-74" d="M 1172 4494 
L 1172 3500 
L 2356 3500 
L 2356 3053 
L 1172 3053 
L 1172 1153 
Q 1172 725 1289 603 
Q 1406 481 1766 481 
L 2356 481 
L 2356 0 
L 1766 0 
Q 1100 0 847 248 
Q 594 497 594 1153 
L 594 3053 
L 172 3053 
L 172 3500 
L 594 3500 
L 594 4494 
L 1172 4494 
z
" transform="scale(0.015625)"/>
     </defs>
     <use xlink:href="#DejaVuSans-56"/>
     <use xlink:href="#DejaVuSans-65" x="60.658203"/>
     <use xlink:href="#DejaVuSans-68" x="122.181641"/>
     <use xlink:href="#DejaVuSans-69" x="185.560547"/>
     <use xlink:href="#DejaVuSans-63" x="213.34375"/>
     <use xlink:href="#DejaVuSans-6c" x="268.324219"/>
     <use xlink:href="#DejaVuSans-65" x="296.107422"/>
     <use xlink:href="#DejaVuSans-20" x="357.630859"/>
     <use xlink:href="#DejaVuSans-50" x="389.417969"/>
     <use xlink:href="#DejaVuSans-61" x="445.220703"/>
     <use xlink:href="#DejaVuSans-74" x="506.5"/>
     <use xlink:href="#DejaVuSans-68" x="545.708984"/>
    </g>
   </g>
  </g>
 </g>
 <defs>
  <clipPath id="p489ed0f835">
   <rect x="57.6" y="41.472" width="357.12" height="266.112"/>
  </clipPath>
 </defs>
</svg>
