<?xml version="1.0" encoding="utf-8" standalone="no"?>
<!DOCTYPE svg PUBLIC "-//W3C//DTD SVG 1.1//EN"
  "http://www.w3.org/Graphics/SVG/1.1/DTD/svg11.dtd">
<svg xmlns:xlink="http://www.w3.org/1999/xlink" width="460.8pt" height="345.6pt" viewBox="0 0 460.8 345.6" xmlns="http://www.w3.org/2000/svg" version="1.1">
 <metadata>
  <rdf:RDF xmlns:dc="http://purl.org/dc/elements/1.1/" xmlns:cc="http://creativecommons.org/ns#" xmlns:rdf="http://www.w3.org/1999/02/22-rdf-syntax-ns#">
   <cc:Work>
    <dc:type rdf:resource="http://purl.org/dc/dcmitype/StillImage"/>
    <dc:date>2023-04-03T11:43:09.783214</dc:date>
    <dc:format>image/svg+xml</dc:format>
    <dc:creator>
     <cc:Agent>
      <dc:title>Matplotlib v3.5.1, https://matplotlib.org/</dc:title>
     </cc:Agent>
    </dc:creator>
   </cc:Work>
  </rdf:RDF>
 </metadata>
 <defs>
  <style type="text/css">*{stroke-linejoin: round; stroke-linecap: butt}</style>
 </defs>
 <g id="figure_1">
  <g id="patch_1">
   <path d="M 0 345.6 
L 460.8 345.6 
L 460.8 0 
L 0 0 
z
" style="fill: #ffffff"/>
  </g>
  <g id="axes_1">
   <g id="patch_2">
    <path d="M 57.6 307.584 
L 414.72 307.584 
L 414.72 41.472 
L 57.6 41.472 
z
" style="fill: #ffffff"/>
   </g>
   <g id="matplotlib.axis_1">
    <g id="xtick_1">
     <g id="line2d_1">
      <defs>
       <path id="md0856aa747" d="M 0 0 
L 0 3.5 
" style="stroke: #000000; stroke-width: 0.8"/>
      </defs>
      <g>
       <use xlink:href="#md0856aa747" x="73.832727" y="307.584" style="stroke: #000000; stroke-width: 0.8"/>
      </g>
     </g>
     <g id="text_1">
      <!-- 0.0 -->
      <g transform="translate(65.881165 322.182437)scale(0.1 -0.1)">
       <defs>
        <path id="DejaVuSans-30" d="M 2034 4250 
Q 1547 4250 1301 3770 
Q 1056 3291 1056 2328 
Q 1056 1369 1301 889 
Q 1547 409 2034 409 
Q 2525 409 2770 889 
Q 3016 1369 3016 2328 
Q 3016 3291 2770 3770 
Q 2525 4250 2034 4250 
z
M 2034 4750 
Q 2819 4750 3233 4129 
Q 3647 3509 3647 2328 
Q 3647 1150 3233 529 
Q 2819 -91 2034 -91 
Q 1250 -91 836 529 
Q 422 1150 422 2328 
Q 422 3509 836 4129 
Q 1250 4750 2034 4750 
z
" transform="scale(0.015625)"/>
        <path id="DejaVuSans-2e" d="M 684 794 
L 1344 794 
L 1344 0 
L 684 0 
L 684 794 
z
" transform="scale(0.015625)"/>
       </defs>
       <use xlink:href="#DejaVuSans-30"/>
       <use xlink:href="#DejaVuSans-2e" x="63.623047"/>
       <use xlink:href="#DejaVuSans-30" x="95.410156"/>
      </g>
     </g>
    </g>
    <g id="xtick_2">
     <g id="line2d_2">
      <g>
       <use xlink:href="#md0856aa747" x="114.999937" y="307.584" style="stroke: #000000; stroke-width: 0.8"/>
      </g>
     </g>
     <g id="text_2">
      <!-- 2.5 -->
      <g transform="translate(107.048375 322.182437)scale(0.1 -0.1)">
       <defs>
        <path id="DejaVuSans-32" d="M 1228 531 
L 3431 531 
L 3431 0 
L 469 0 
L 469 531 
Q 828 903 1448 1529 
Q 2069 2156 2228 2338 
Q 2531 2678 2651 2914 
Q 2772 3150 2772 3378 
Q 2772 3750 2511 3984 
Q 2250 4219 1831 4219 
Q 1534 4219 1204 4116 
Q 875 4013 500 3803 
L 500 4441 
Q 881 4594 1212 4672 
Q 1544 4750 1819 4750 
Q 2544 4750 2975 4387 
Q 3406 4025 3406 3419 
Q 3406 3131 3298 2873 
Q 3191 2616 2906 2266 
Q 2828 2175 2409 1742 
Q 1991 1309 1228 531 
z
" transform="scale(0.015625)"/>
        <path id="DejaVuSans-35" d="M 691 4666 
L 3169 4666 
L 3169 4134 
L 1269 4134 
L 1269 2991 
Q 1406 3038 1543 3061 
Q 1681 3084 1819 3084 
Q 2600 3084 3056 2656 
Q 3513 2228 3513 1497 
Q 3513 744 3044 326 
Q 2575 -91 1722 -91 
Q 1428 -91 1123 -41 
Q 819 9 494 109 
L 494 744 
Q 775 591 1075 516 
Q 1375 441 1709 441 
Q 2250 441 2565 725 
Q 2881 1009 2881 1497 
Q 2881 1984 2565 2268 
Q 2250 2553 1709 2553 
Q 1456 2553 1204 2497 
Q 953 2441 691 2322 
L 691 4666 
z
" transform="scale(0.015625)"/>
       </defs>
       <use xlink:href="#DejaVuSans-32"/>
       <use xlink:href="#DejaVuSans-2e" x="63.623047"/>
       <use xlink:href="#DejaVuSans-35" x="95.410156"/>
      </g>
     </g>
    </g>
    <g id="xtick_3">
     <g id="line2d_3">
      <g>
       <use xlink:href="#md0856aa747" x="156.167148" y="307.584" style="stroke: #000000; stroke-width: 0.8"/>
      </g>
     </g>
     <g id="text_3">
      <!-- 5.0 -->
      <g transform="translate(148.215585 322.182437)scale(0.1 -0.1)">
       <use xlink:href="#DejaVuSans-35"/>
       <use xlink:href="#DejaVuSans-2e" x="63.623047"/>
       <use xlink:href="#DejaVuSans-30" x="95.410156"/>
      </g>
     </g>
    </g>
    <g id="xtick_4">
     <g id="line2d_4">
      <g>
       <use xlink:href="#md0856aa747" x="197.334358" y="307.584" style="stroke: #000000; stroke-width: 0.8"/>
      </g>
     </g>
     <g id="text_4">
      <!-- 7.5 -->
      <g transform="translate(189.382795 322.182437)scale(0.1 -0.1)">
       <defs>
        <path id="DejaVuSans-37" d="M 525 4666 
L 3525 4666 
L 3525 4397 
L 1831 0 
L 1172 0 
L 2766 4134 
L 525 4134 
L 525 4666 
z
" transform="scale(0.015625)"/>
       </defs>
       <use xlink:href="#DejaVuSans-37"/>
       <use xlink:href="#DejaVuSans-2e" x="63.623047"/>
       <use xlink:href="#DejaVuSans-35" x="95.410156"/>
      </g>
     </g>
    </g>
    <g id="xtick_5">
     <g id="line2d_5">
      <g>
       <use xlink:href="#md0856aa747" x="238.501568" y="307.584" style="stroke: #000000; stroke-width: 0.8"/>
      </g>
     </g>
     <g id="text_5">
      <!-- 10.0 -->
      <g transform="translate(227.368756 322.182437)scale(0.1 -0.1)">
       <defs>
        <path id="DejaVuSans-31" d="M 794 531 
L 1825 531 
L 1825 4091 
L 703 3866 
L 703 4441 
L 1819 4666 
L 2450 4666 
L 2450 531 
L 3481 531 
L 3481 0 
L 794 0 
L 794 531 
z
" transform="scale(0.015625)"/>
       </defs>
       <use xlink:href="#DejaVuSans-31"/>
       <use xlink:href="#DejaVuSans-30" x="63.623047"/>
       <use xlink:href="#DejaVuSans-2e" x="127.246094"/>
       <use xlink:href="#DejaVuSans-30" x="159.033203"/>
      </g>
     </g>
    </g>
    <g id="xtick_6">
     <g id="line2d_6">
      <g>
       <use xlink:href="#md0856aa747" x="279.668778" y="307.584" style="stroke: #000000; stroke-width: 0.8"/>
      </g>
     </g>
     <g id="text_6">
      <!-- 12.5 -->
      <g transform="translate(268.535966 322.182437)scale(0.1 -0.1)">
       <use xlink:href="#DejaVuSans-31"/>
       <use xlink:href="#DejaVuSans-32" x="63.623047"/>
       <use xlink:href="#DejaVuSans-2e" x="127.246094"/>
       <use xlink:href="#DejaVuSans-35" x="159.033203"/>
      </g>
     </g>
    </g>
    <g id="xtick_7">
     <g id="line2d_7">
      <g>
       <use xlink:href="#md0856aa747" x="320.835988" y="307.584" style="stroke: #000000; stroke-width: 0.8"/>
      </g>
     </g>
     <g id="text_7">
      <!-- 15.0 -->
      <g transform="translate(309.703176 322.182437)scale(0.1 -0.1)">
       <use xlink:href="#DejaVuSans-31"/>
       <use xlink:href="#DejaVuSans-35" x="63.623047"/>
       <use xlink:href="#DejaVuSans-2e" x="127.246094"/>
       <use xlink:href="#DejaVuSans-30" x="159.033203"/>
      </g>
     </g>
    </g>
    <g id="xtick_8">
     <g id="line2d_8">
      <g>
       <use xlink:href="#md0856aa747" x="362.003199" y="307.584" style="stroke: #000000; stroke-width: 0.8"/>
      </g>
     </g>
     <g id="text_8">
      <!-- 17.5 -->
      <g transform="translate(350.870386 322.182437)scale(0.1 -0.1)">
       <use xlink:href="#DejaVuSans-31"/>
       <use xlink:href="#DejaVuSans-37" x="63.623047"/>
       <use xlink:href="#DejaVuSans-2e" x="127.246094"/>
       <use xlink:href="#DejaVuSans-35" x="159.033203"/>
      </g>
     </g>
    </g>
    <g id="xtick_9">
     <g id="line2d_9">
      <g>
       <use xlink:href="#md0856aa747" x="403.170409" y="307.584" style="stroke: #000000; stroke-width: 0.8"/>
      </g>
     </g>
     <g id="text_9">
      <!-- 20.0 -->
      <g transform="translate(392.037596 322.182437)scale(0.1 -0.1)">
       <use xlink:href="#DejaVuSans-32"/>
       <use xlink:href="#DejaVuSans-30" x="63.623047"/>
       <use xlink:href="#DejaVuSans-2e" x="127.246094"/>
       <use xlink:href="#DejaVuSans-30" x="159.033203"/>
      </g>
     </g>
    </g>
   </g>
   <g id="matplotlib.axis_2">
    <g id="ytick_1">
     <g id="line2d_10">
      <defs>
       <path id="m571cdffa17" d="M 0 0 
L -3.5 0 
" style="stroke: #000000; stroke-width: 0.8"/>
      </defs>
      <g>
       <use xlink:href="#m571cdffa17" x="57.6" y="303.757551" style="stroke: #000000; stroke-width: 0.8"/>
      </g>
     </g>
     <g id="text_10">
      <!-- −5 -->
      <g transform="translate(35.857813 307.55677)scale(0.1 -0.1)">
       <defs>
        <path id="DejaVuSans-2212" d="M 678 2272 
L 4684 2272 
L 4684 1741 
L 678 1741 
L 678 2272 
z
" transform="scale(0.015625)"/>
       </defs>
       <use xlink:href="#DejaVuSans-2212"/>
       <use xlink:href="#DejaVuSans-35" x="83.789062"/>
      </g>
     </g>
    </g>
    <g id="ytick_2">
     <g id="line2d_11">
      <g>
       <use xlink:href="#m571cdffa17" x="57.6" y="259.533009" style="stroke: #000000; stroke-width: 0.8"/>
      </g>
     </g>
     <g id="text_11">
      <!-- −4 -->
      <g transform="translate(35.857813 263.332228)scale(0.1 -0.1)">
       <defs>
        <path id="DejaVuSans-34" d="M 2419 4116 
L 825 1625 
L 2419 1625 
L 2419 4116 
z
M 2253 4666 
L 3047 4666 
L 3047 1625 
L 3713 1625 
L 3713 1100 
L 3047 1100 
L 3047 0 
L 2419 0 
L 2419 1100 
L 313 1100 
L 313 1709 
L 2253 4666 
z
" transform="scale(0.015625)"/>
       </defs>
       <use xlink:href="#DejaVuSans-2212"/>
       <use xlink:href="#DejaVuSans-34" x="83.789062"/>
      </g>
     </g>
    </g>
    <g id="ytick_3">
     <g id="line2d_12">
      <g>
       <use xlink:href="#m571cdffa17" x="57.6" y="215.308468" style="stroke: #000000; stroke-width: 0.8"/>
      </g>
     </g>
     <g id="text_12">
      <!-- −3 -->
      <g transform="translate(35.857813 219.107687)scale(0.1 -0.1)">
       <defs>
        <path id="DejaVuSans-33" d="M 2597 2516 
Q 3050 2419 3304 2112 
Q 3559 1806 3559 1356 
Q 3559 666 3084 287 
Q 2609 -91 1734 -91 
Q 1441 -91 1130 -33 
Q 819 25 488 141 
L 488 750 
Q 750 597 1062 519 
Q 1375 441 1716 441 
Q 2309 441 2620 675 
Q 2931 909 2931 1356 
Q 2931 1769 2642 2001 
Q 2353 2234 1838 2234 
L 1294 2234 
L 1294 2753 
L 1863 2753 
Q 2328 2753 2575 2939 
Q 2822 3125 2822 3475 
Q 2822 3834 2567 4026 
Q 2313 4219 1838 4219 
Q 1578 4219 1281 4162 
Q 984 4106 628 3988 
L 628 4550 
Q 988 4650 1302 4700 
Q 1616 4750 1894 4750 
Q 2613 4750 3031 4423 
Q 3450 4097 3450 3541 
Q 3450 3153 3228 2886 
Q 3006 2619 2597 2516 
z
" transform="scale(0.015625)"/>
       </defs>
       <use xlink:href="#DejaVuSans-2212"/>
       <use xlink:href="#DejaVuSans-33" x="83.789062"/>
      </g>
     </g>
    </g>
    <g id="ytick_4">
     <g id="line2d_13">
      <g>
       <use xlink:href="#m571cdffa17" x="57.6" y="171.083927" style="stroke: #000000; stroke-width: 0.8"/>
      </g>
     </g>
     <g id="text_13">
      <!-- −2 -->
      <g transform="translate(35.857813 174.883146)scale(0.1 -0.1)">
       <use xlink:href="#DejaVuSans-2212"/>
       <use xlink:href="#DejaVuSans-32" x="83.789062"/>
      </g>
     </g>
    </g>
    <g id="ytick_5">
     <g id="line2d_14">
      <g>
       <use xlink:href="#m571cdffa17" x="57.6" y="126.859386" style="stroke: #000000; stroke-width: 0.8"/>
      </g>
     </g>
     <g id="text_14">
      <!-- −1 -->
      <g transform="translate(35.857813 130.658604)scale(0.1 -0.1)">
       <use xlink:href="#DejaVuSans-2212"/>
       <use xlink:href="#DejaVuSans-31" x="83.789062"/>
      </g>
     </g>
    </g>
    <g id="ytick_6">
     <g id="line2d_15">
      <g>
       <use xlink:href="#m571cdffa17" x="57.6" y="82.634844" style="stroke: #000000; stroke-width: 0.8"/>
      </g>
     </g>
     <g id="text_15">
      <!-- 0 -->
      <g transform="translate(44.2375 86.434063)scale(0.1 -0.1)">
       <use xlink:href="#DejaVuSans-30"/>
      </g>
     </g>
    </g>
   </g>
   <g id="line2d_16">
    <path d="M 73.832727 82.634844 
L 76.161496 76.38055 
L 78.71112 70.781888 
L 81.456124 65.894799 
L 84.36908 61.768114 
L 87.420884 58.443064 
L 90.581043 55.952873 
L 93.817981 54.322421 
L 97.099356 53.568 
L 100.392381 53.697147 
L 103.664155 54.708573 
L 106.881986 56.59217 
L 110.013723 59.32912 
L 113.028074 62.892075 
L 115.894922 67.245435 
L 118.585621 72.345703 
L 121.073287 78.14192 
L 123.333064 84.57617 
L 125.342373 91.584165 
L 127.081138 99.095884 
L 128.531986 107.036272 
L 129.68042 115.325991 
L 131.131267 123.266378 
L 132.870032 130.778097 
L 134.879342 137.786093 
L 137.139119 144.220343 
L 139.626785 150.016559 
L 142.317484 155.116827 
L 145.184331 159.470188 
L 148.198683 163.033143 
L 151.33042 165.770092 
L 154.54825 167.65369 
L 157.820024 168.665115 
L 161.11305 168.794263 
L 164.394425 168.039841 
L 167.631363 166.40939 
L 170.791521 163.919198 
L 173.843325 160.594149 
L 176.756281 156.467463 
L 179.501285 151.580375 
L 182.050909 145.981713 
L 184.379678 139.727418 
L 186.929302 134.128757 
L 189.674306 129.241668 
L 192.587262 125.114983 
L 195.639066 121.789933 
L 198.799224 119.299742 
L 202.036162 117.66929 
L 205.317538 116.914869 
L 208.610563 117.044016 
L 211.882337 118.055441 
L 215.100168 119.939039 
L 218.231904 122.675989 
L 221.246256 126.238944 
L 224.113103 130.592304 
L 226.803802 135.692572 
L 229.291469 141.488788 
L 231.551246 147.923039 
L 233.560555 154.931034 
L 235.29932 162.442753 
L 236.750168 170.383141 
L 237.898601 178.672859 
L 239.349449 186.613247 
L 241.088214 194.124966 
L 243.097523 201.132961 
L 245.357301 207.567212 
L 247.844967 213.363428 
L 250.535666 218.463696 
L 253.402513 222.817056 
L 256.416865 226.380011 
L 259.548601 229.116961 
L 262.766432 231.000559 
L 266.038206 232.011984 
L 269.331232 232.141131 
L 272.612607 231.38671 
L 275.849545 229.756258 
L 279.009703 227.266067 
L 282.061507 223.941017 
L 284.974463 219.814332 
L 287.719467 214.927243 
L 290.269091 209.328582 
L 292.59786 203.074287 
L 295.147484 197.475625 
L 297.892488 192.588537 
L 300.805444 188.461851 
L 303.857248 185.136802 
L 307.017406 182.64661 
L 310.254344 181.016159 
L 313.535719 180.261737 
L 316.828745 180.390885 
L 320.100519 181.40231 
L 323.31835 183.285908 
L 326.450086 186.022857 
L 329.464438 189.585812 
L 332.331285 193.939173 
L 335.021984 199.039441 
L 337.50965 204.835657 
L 339.769427 211.269907 
L 341.778737 218.277903 
L 343.517502 225.789622 
L 344.968349 233.730009 
L 346.116783 242.019728 
L 347.567631 249.960116 
L 349.306396 257.471835 
L 351.315705 264.47983 
L 353.575482 270.91408 
L 356.063148 276.710297 
L 358.753848 281.810565 
L 361.620695 286.163925 
L 364.635046 289.72688 
L 367.766783 292.46383 
L 370.984614 294.347427 
L 374.256388 295.358853 
L 377.549413 295.488 
L 380.830788 294.733579 
L 384.067726 293.103127 
L 387.227885 290.612936 
L 390.279689 287.287886 
L 393.192645 283.161201 
L 395.937649 278.274112 
L 398.487273 272.67545 
" clip-path="url(#p93a2798c87)" style="fill: none; stroke: #1f77b4; stroke-width: 1.5; stroke-linecap: square"/>
   </g>
   <g id="line2d_17">
    <path d="M 73.832727 82.634844 
L 76.161496 76.38055 
L 78.71112 70.781888 
L 81.456124 65.894799 
L 84.36908 61.768114 
L 87.420884 58.443064 
L 90.581043 55.952873 
L 93.817981 54.322421 
L 97.099356 53.568 
L 100.392381 53.697147 
L 103.664155 54.708573 
L 106.881986 56.59217 
L 110.013723 59.32912 
L 113.028074 62.892075 
L 115.894922 67.245435 
L 118.585621 72.345703 
L 121.073287 78.14192 
L 123.333064 84.57617 
L 125.342373 91.584165 
L 127.081138 99.095884 
L 128.531986 107.036272 
L 129.68042 115.325991 
L 131.131267 123.266378 
L 132.870032 130.778097 
L 134.879342 137.786093 
L 137.139119 144.220343 
L 139.626785 150.016559 
L 142.317484 155.116827 
L 145.184331 159.470188 
L 148.198683 163.033143 
L 151.33042 165.770092 
L 154.54825 167.65369 
L 157.820024 168.665115 
L 161.11305 168.794263 
L 164.394425 168.039841 
L 167.631363 166.40939 
L 170.791521 163.919198 
L 173.843325 160.594149 
L 176.756281 156.467463 
L 179.501285 151.580375 
L 182.050909 145.981713 
L 184.379678 139.727418 
L 186.929302 134.128757 
L 189.674306 129.241668 
L 192.587262 125.114983 
L 195.639066 121.789933 
L 198.799224 119.299742 
L 202.036162 117.66929 
L 205.317538 116.914869 
L 208.610563 117.044016 
L 211.882337 118.055441 
L 215.100168 119.939039 
L 218.231904 122.675989 
L 221.246256 126.238944 
L 224.113103 130.592304 
L 226.803802 135.692572 
L 229.291469 141.488788 
L 231.551246 147.923039 
L 233.560555 154.931034 
L 235.29932 162.442753 
L 236.750168 170.383141 
L 237.898601 178.672859 
L 239.349449 186.613247 
L 241.088214 194.124966 
L 243.097523 201.132961 
L 245.357301 207.567212 
L 247.844967 213.363428 
L 250.535666 218.463696 
L 253.402513 222.817056 
L 256.416865 226.380011 
L 259.548601 229.116961 
L 262.766432 231.000559 
L 266.038206 232.011984 
L 269.331232 232.141131 
L 272.612607 231.38671 
L 275.849545 229.756258 
L 279.009703 227.266067 
L 282.061507 223.941017 
L 284.974463 219.814332 
L 287.719467 214.927243 
L 290.269091 209.328582 
L 292.59786 203.074287 
L 295.147484 197.475625 
L 297.892488 192.588537 
L 300.805444 188.461851 
L 303.857248 185.136802 
L 307.017406 182.64661 
L 310.254344 181.016159 
L 313.535719 180.261737 
L 316.828745 180.390885 
L 320.100519 181.40231 
L 323.31835 183.285908 
L 326.450086 186.022857 
L 329.464438 189.585812 
L 332.331285 193.939173 
L 335.021984 199.039441 
L 337.50965 204.835657 
L 339.769427 211.269907 
L 341.778737 218.277903 
L 343.517502 225.789622 
L 344.968349 233.730009 
" clip-path="url(#p93a2798c87)" style="fill: none; stroke: #ff7f0e; stroke-width: 1.5; stroke-linecap: square"/>
   </g>
   <g id="line2d_18">
    <path d="M 73.832727 82.634844 
L 77.126104 82.634844 
L 79.675728 77.036183 
L 82.420732 72.149094 
L 85.333688 68.022409 
L 88.385492 64.697359 
L 91.54565 62.207167 
L 94.782588 60.576716 
L 98.063963 59.822295 
L 101.356989 59.951442 
L 104.628763 60.962867 
L 107.846594 62.846465 
L 110.97833 65.583415 
L 113.992682 69.146369 
L 116.859529 73.49973 
L 119.550228 78.599998 
L 122.037894 84.396214 
L 124.297672 90.830465 
L 126.306981 97.83846 
L 128.045746 105.350179 
L 129.496594 113.290566 
L 130.645027 121.580285 
L 132.095875 129.520673 
L 133.83464 137.032392 
L 135.843949 144.040387 
L 138.103726 150.474637 
L 140.591393 156.270854 
L 143.282092 161.371122 
L 146.148939 165.724482 
L 149.163291 169.287437 
L 152.295027 172.024387 
L 155.512858 173.907984 
L 158.784632 174.91941 
L 162.077657 175.048557 
L 165.359033 174.294136 
L 168.595971 172.663684 
L 171.756129 170.173493 
L 174.807933 166.848443 
L 177.720889 162.721758 
L 180.465893 157.834669 
L 183.015517 152.236008 
L 185.344286 145.981713 
L 187.89391 140.383051 
L 190.638914 135.495963 
L 193.55187 131.369277 
L 196.603674 128.044228 
L 199.763832 125.554036 
L 203.00077 123.923585 
L 206.282145 123.169163 
L 209.575171 123.298311 
L 212.846945 124.309736 
L 216.064775 126.193334 
L 219.196512 128.930283 
L 222.210864 132.493238 
L 225.077711 136.846598 
L 227.76841 141.946867 
L 230.256076 147.743083 
L 232.515853 154.177333 
L 234.525163 161.185329 
L 236.263928 168.697047 
L 237.714775 176.637435 
L 238.863209 184.927154 
L 240.314057 192.867542 
L 242.052822 200.379261 
L 244.062131 207.387256 
L 246.321908 213.821506 
L 248.809574 219.617722 
L 251.500273 224.717991 
L 254.367121 229.071351 
L 257.381472 232.634306 
L 260.513209 235.371256 
L 263.73104 237.254853 
L 267.002814 238.266279 
L 270.295839 238.395426 
L 273.577214 237.641005 
L 276.814152 236.010553 
L 279.974311 233.520362 
L 283.026115 230.195312 
L 285.939071 226.068626 
L 288.684075 221.181538 
L 291.233699 215.582876 
L 293.562468 209.328582 
L 296.112092 203.72992 
L 298.857095 198.842831 
L 301.770052 194.716146 
L 304.821856 191.391096 
L 307.982014 188.900905 
L 311.218952 187.270453 
L 314.500327 186.516032 
L 317.793353 186.645179 
L 321.065126 187.656605 
L 324.282957 189.540202 
L 327.414694 192.277152 
L 330.429045 195.840107 
L 333.295893 200.193467 
L 335.986592 205.293736 
L 338.474258 211.089952 
L 340.734035 217.524202 
L 342.743344 224.532197 
L 344.48211 232.043916 
L 345.932957 239.984304 
" clip-path="url(#p93a2798c87)" style="fill: none; stroke: #2ca02c; stroke-width: 1.5; stroke-linecap: square"/>
   </g>
   <g id="line2d_19">
    <path d="M 73.832727 82.634844 
L 77.126104 82.634844 
L 80.3825 81.313078 
L 83.528783 78.699228 
L 86.494294 74.851998 
L 89.212436 69.857787 
L 91.815189 64.438325 
L 94.69027 60.124307 
L 97.773111 57.012619 
L 100.994479 55.173142 
L 104.282028 54.647187 
L 107.561927 55.446565 
L 110.760516 57.553324 
L 113.805963 60.920151 
L 116.629873 65.471434 
L 119.168827 71.104961 
L 121.365807 77.694213 
L 123.355065 84.743348 
L 125.43702 91.596687 
L 127.140714 99.166146 
L 128.604395 107.089528 
L 129.64499 115.481317 
L 131.11995 123.389597 
L 132.86197 130.895876 
L 134.876266 137.893537 
L 137.139937 144.317907 
L 139.630802 150.104205 
L 142.324047 155.194771 
L 145.192862 159.538776 
L 148.20867 163.092828 
L 151.341419 165.821406 
L 154.559881 167.697219 
L 157.83196 168.701481 
L 161.12502 168.824103 
L 164.406207 168.063796 
L 167.642778 166.42809 
L 170.802428 163.933255 
L 173.853618 160.604146 
L 176.765886 156.473953 
L 179.510149 151.583865 
L 182.059114 145.983041 
L 184.379916 139.707424 
L 186.930292 134.111233 
L 189.675785 129.226127 
L 192.589116 125.101351 
L 195.641194 121.778111 
L 198.801537 119.289616 
L 202.038585 117.660735 
L 205.320006 116.907756 
L 208.613024 117.038212 
L 211.884748 118.050813 
L 215.102494 119.935458 
L 218.234119 122.673329 
L 221.248338 126.237087 
L 224.11504 130.591137 
L 226.805585 135.691992 
L 229.293093 141.488699 
L 231.552711 147.923352 
L 233.561863 154.931672 
L 235.300476 162.443645 
L 236.751178 170.384225 
L 237.898237 178.675317 
L 239.349204 186.615547 
L 241.088071 194.127096 
L 243.097466 201.134913 
L 245.357315 207.568982 
L 247.845039 213.365018 
L 250.535785 218.46511 
L 253.402668 222.8183 
L 256.417046 226.381093 
L 259.548801 229.117891 
L 262.766643 231.001347 
L 266.038423 232.012642 
L 269.331449 232.141671 
L 272.612821 231.387142 
L 275.849752 229.756595 
L 279.009901 227.266319 
L 282.061694 223.941195 
L 284.974638 219.814446 
L 287.719628 214.927302 
L 290.269236 209.328588 
L 292.597872 203.073937 
L 295.147505 197.475307 
L 297.892518 192.588256 
L 300.805482 188.461607 
L 303.857291 185.136592 
L 307.017453 182.646433 
L 310.254393 181.016012 
L 313.535769 180.26162 
L 316.828795 180.390794 
L 320.100567 181.402243 
L 323.318396 183.285863 
L 326.450131 186.022833 
L 329.464479 189.585806 
L 332.331323 193.939183 
L 335.022018 199.039466 
L 337.50968 204.835695 
L 339.769453 211.269957 
L 341.778756 218.277964 
L 343.517519 225.789687 
L 345.256282 233.30141 
" clip-path="url(#p93a2798c87)" style="fill: none; stroke: #d62728; stroke-width: 1.5; stroke-linecap: square"/>
   </g>
   <g id="patch_3">
    <path d="M 57.6 307.584 
L 57.6 41.472 
" style="fill: none; stroke: #000000; stroke-width: 0.8; stroke-linejoin: miter; stroke-linecap: square"/>
   </g>
   <g id="patch_4">
    <path d="M 414.72 307.584 
L 414.72 41.472 
" style="fill: none; stroke: #000000; stroke-width: 0.8; stroke-linejoin: miter; stroke-linecap: square"/>
   </g>
   <g id="patch_5">
    <path d="M 57.6 307.584 
L 414.72 307.584 
" style="fill: none; stroke: #000000; stroke-width: 0.8; stroke-linejoin: miter; stroke-linecap: square"/>
   </g>
   <g id="patch_6">
    <path d="M 57.6 41.472 
L 414.72 41.472 
" style="fill: none; stroke: #000000; stroke-width: 0.8; stroke-linejoin: miter; stroke-linecap: square"/>
   </g>
   <g id="text_16">
    <!-- States and Reference Path  -->
    <g transform="translate(154.845 35.472)scale(0.12 -0.12)">
     <defs>
      <path id="DejaVuSans-53" d="M 3425 4513 
L 3425 3897 
Q 3066 4069 2747 4153 
Q 2428 4238 2131 4238 
Q 1616 4238 1336 4038 
Q 1056 3838 1056 3469 
Q 1056 3159 1242 3001 
Q 1428 2844 1947 2747 
L 2328 2669 
Q 3034 2534 3370 2195 
Q 3706 1856 3706 1288 
Q 3706 609 3251 259 
Q 2797 -91 1919 -91 
Q 1588 -91 1214 -16 
Q 841 59 441 206 
L 441 856 
Q 825 641 1194 531 
Q 1563 422 1919 422 
Q 2459 422 2753 634 
Q 3047 847 3047 1241 
Q 3047 1584 2836 1778 
Q 2625 1972 2144 2069 
L 1759 2144 
Q 1053 2284 737 2584 
Q 422 2884 422 3419 
Q 422 4038 858 4394 
Q 1294 4750 2059 4750 
Q 2388 4750 2728 4690 
Q 3069 4631 3425 4513 
z
" transform="scale(0.015625)"/>
      <path id="DejaVuSans-74" d="M 1172 4494 
L 1172 3500 
L 2356 3500 
L 2356 3053 
L 1172 3053 
L 1172 1153 
Q 1172 725 1289 603 
Q 1406 481 1766 481 
L 2356 481 
L 2356 0 
L 1766 0 
Q 1100 0 847 248 
Q 594 497 594 1153 
L 594 3053 
L 172 3053 
L 172 3500 
L 594 3500 
L 594 4494 
L 1172 4494 
z
" transform="scale(0.015625)"/>
      <path id="DejaVuSans-61" d="M 2194 1759 
Q 1497 1759 1228 1600 
Q 959 1441 959 1056 
Q 959 750 1161 570 
Q 1363 391 1709 391 
Q 2188 391 2477 730 
Q 2766 1069 2766 1631 
L 2766 1759 
L 2194 1759 
z
M 3341 1997 
L 3341 0 
L 2766 0 
L 2766 531 
Q 2569 213 2275 61 
Q 1981 -91 1556 -91 
Q 1019 -91 701 211 
Q 384 513 384 1019 
Q 384 1609 779 1909 
Q 1175 2209 1959 2209 
L 2766 2209 
L 2766 2266 
Q 2766 2663 2505 2880 
Q 2244 3097 1772 3097 
Q 1472 3097 1187 3025 
Q 903 2953 641 2809 
L 641 3341 
Q 956 3463 1253 3523 
Q 1550 3584 1831 3584 
Q 2591 3584 2966 3190 
Q 3341 2797 3341 1997 
z
" transform="scale(0.015625)"/>
      <path id="DejaVuSans-65" d="M 3597 1894 
L 3597 1613 
L 953 1613 
Q 991 1019 1311 708 
Q 1631 397 2203 397 
Q 2534 397 2845 478 
Q 3156 559 3463 722 
L 3463 178 
Q 3153 47 2828 -22 
Q 2503 -91 2169 -91 
Q 1331 -91 842 396 
Q 353 884 353 1716 
Q 353 2575 817 3079 
Q 1281 3584 2069 3584 
Q 2775 3584 3186 3129 
Q 3597 2675 3597 1894 
z
M 3022 2063 
Q 3016 2534 2758 2815 
Q 2500 3097 2075 3097 
Q 1594 3097 1305 2825 
Q 1016 2553 972 2059 
L 3022 2063 
z
" transform="scale(0.015625)"/>
      <path id="DejaVuSans-73" d="M 2834 3397 
L 2834 2853 
Q 2591 2978 2328 3040 
Q 2066 3103 1784 3103 
Q 1356 3103 1142 2972 
Q 928 2841 928 2578 
Q 928 2378 1081 2264 
Q 1234 2150 1697 2047 
L 1894 2003 
Q 2506 1872 2764 1633 
Q 3022 1394 3022 966 
Q 3022 478 2636 193 
Q 2250 -91 1575 -91 
Q 1294 -91 989 -36 
Q 684 19 347 128 
L 347 722 
Q 666 556 975 473 
Q 1284 391 1588 391 
Q 1994 391 2212 530 
Q 2431 669 2431 922 
Q 2431 1156 2273 1281 
Q 2116 1406 1581 1522 
L 1381 1569 
Q 847 1681 609 1914 
Q 372 2147 372 2553 
Q 372 3047 722 3315 
Q 1072 3584 1716 3584 
Q 2034 3584 2315 3537 
Q 2597 3491 2834 3397 
z
" transform="scale(0.015625)"/>
      <path id="DejaVuSans-20" transform="scale(0.015625)"/>
      <path id="DejaVuSans-6e" d="M 3513 2113 
L 3513 0 
L 2938 0 
L 2938 2094 
Q 2938 2591 2744 2837 
Q 2550 3084 2163 3084 
Q 1697 3084 1428 2787 
Q 1159 2491 1159 1978 
L 1159 0 
L 581 0 
L 581 3500 
L 1159 3500 
L 1159 2956 
Q 1366 3272 1645 3428 
Q 1925 3584 2291 3584 
Q 2894 3584 3203 3211 
Q 3513 2838 3513 2113 
z
" transform="scale(0.015625)"/>
      <path id="DejaVuSans-64" d="M 2906 2969 
L 2906 4863 
L 3481 4863 
L 3481 0 
L 2906 0 
L 2906 525 
Q 2725 213 2448 61 
Q 2172 -91 1784 -91 
Q 1150 -91 751 415 
Q 353 922 353 1747 
Q 353 2572 751 3078 
Q 1150 3584 1784 3584 
Q 2172 3584 2448 3432 
Q 2725 3281 2906 2969 
z
M 947 1747 
Q 947 1113 1208 752 
Q 1469 391 1925 391 
Q 2381 391 2643 752 
Q 2906 1113 2906 1747 
Q 2906 2381 2643 2742 
Q 2381 3103 1925 3103 
Q 1469 3103 1208 2742 
Q 947 2381 947 1747 
z
" transform="scale(0.015625)"/>
      <path id="DejaVuSans-52" d="M 2841 2188 
Q 3044 2119 3236 1894 
Q 3428 1669 3622 1275 
L 4263 0 
L 3584 0 
L 2988 1197 
Q 2756 1666 2539 1819 
Q 2322 1972 1947 1972 
L 1259 1972 
L 1259 0 
L 628 0 
L 628 4666 
L 2053 4666 
Q 2853 4666 3247 4331 
Q 3641 3997 3641 3322 
Q 3641 2881 3436 2590 
Q 3231 2300 2841 2188 
z
M 1259 4147 
L 1259 2491 
L 2053 2491 
Q 2509 2491 2742 2702 
Q 2975 2913 2975 3322 
Q 2975 3731 2742 3939 
Q 2509 4147 2053 4147 
L 1259 4147 
z
" transform="scale(0.015625)"/>
      <path id="DejaVuSans-66" d="M 2375 4863 
L 2375 4384 
L 1825 4384 
Q 1516 4384 1395 4259 
Q 1275 4134 1275 3809 
L 1275 3500 
L 2222 3500 
L 2222 3053 
L 1275 3053 
L 1275 0 
L 697 0 
L 697 3053 
L 147 3053 
L 147 3500 
L 697 3500 
L 697 3744 
Q 697 4328 969 4595 
Q 1241 4863 1831 4863 
L 2375 4863 
z
" transform="scale(0.015625)"/>
      <path id="DejaVuSans-72" d="M 2631 2963 
Q 2534 3019 2420 3045 
Q 2306 3072 2169 3072 
Q 1681 3072 1420 2755 
Q 1159 2438 1159 1844 
L 1159 0 
L 581 0 
L 581 3500 
L 1159 3500 
L 1159 2956 
Q 1341 3275 1631 3429 
Q 1922 3584 2338 3584 
Q 2397 3584 2469 3576 
Q 2541 3569 2628 3553 
L 2631 2963 
z
" transform="scale(0.015625)"/>
      <path id="DejaVuSans-63" d="M 3122 3366 
L 3122 2828 
Q 2878 2963 2633 3030 
Q 2388 3097 2138 3097 
Q 1578 3097 1268 2742 
Q 959 2388 959 1747 
Q 959 1106 1268 751 
Q 1578 397 2138 397 
Q 2388 397 2633 464 
Q 2878 531 3122 666 
L 3122 134 
Q 2881 22 2623 -34 
Q 2366 -91 2075 -91 
Q 1284 -91 818 406 
Q 353 903 353 1747 
Q 353 2603 823 3093 
Q 1294 3584 2113 3584 
Q 2378 3584 2631 3529 
Q 2884 3475 3122 3366 
z
" transform="scale(0.015625)"/>
      <path id="DejaVuSans-50" d="M 1259 4147 
L 1259 2394 
L 2053 2394 
Q 2494 2394 2734 2622 
Q 2975 2850 2975 3272 
Q 2975 3691 2734 3919 
Q 2494 4147 2053 4147 
L 1259 4147 
z
M 628 4666 
L 2053 4666 
Q 2838 4666 3239 4311 
Q 3641 3956 3641 3272 
Q 3641 2581 3239 2228 
Q 2838 1875 2053 1875 
L 1259 1875 
L 1259 0 
L 628 0 
L 628 4666 
z
" transform="scale(0.015625)"/>
      <path id="DejaVuSans-68" d="M 3513 2113 
L 3513 0 
L 2938 0 
L 2938 2094 
Q 2938 2591 2744 2837 
Q 2550 3084 2163 3084 
Q 1697 3084 1428 2787 
Q 1159 2491 1159 1978 
L 1159 0 
L 581 0 
L 581 4863 
L 1159 4863 
L 1159 2956 
Q 1366 3272 1645 3428 
Q 1925 3584 2291 3584 
Q 2894 3584 3203 3211 
Q 3513 2838 3513 2113 
z
" transform="scale(0.015625)"/>
     </defs>
     <use xlink:href="#DejaVuSans-53"/>
     <use xlink:href="#DejaVuSans-74" x="63.476562"/>
     <use xlink:href="#DejaVuSans-61" x="102.685547"/>
     <use xlink:href="#DejaVuSans-74" x="163.964844"/>
     <use xlink:href="#DejaVuSans-65" x="203.173828"/>
     <use xlink:href="#DejaVuSans-73" x="264.697266"/>
     <use xlink:href="#DejaVuSans-20" x="316.796875"/>
     <use xlink:href="#DejaVuSans-61" x="348.583984"/>
     <use xlink:href="#DejaVuSans-6e" x="409.863281"/>
     <use xlink:href="#DejaVuSans-64" x="473.242188"/>
     <use xlink:href="#DejaVuSans-20" x="536.71875"/>
     <use xlink:href="#DejaVuSans-52" x="568.505859"/>
     <use xlink:href="#DejaVuSans-65" x="633.488281"/>
     <use xlink:href="#DejaVuSans-66" x="695.011719"/>
     <use xlink:href="#DejaVuSans-65" x="730.216797"/>
     <use xlink:href="#DejaVuSans-72" x="791.740234"/>
     <use xlink:href="#DejaVuSans-65" x="830.603516"/>
     <use xlink:href="#DejaVuSans-6e" x="892.126953"/>
     <use xlink:href="#DejaVuSans-63" x="955.505859"/>
     <use xlink:href="#DejaVuSans-65" x="1010.486328"/>
     <use xlink:href="#DejaVuSans-20" x="1072.009766"/>
     <use xlink:href="#DejaVuSans-50" x="1103.796875"/>
     <use xlink:href="#DejaVuSans-61" x="1159.599609"/>
     <use xlink:href="#DejaVuSans-74" x="1220.878906"/>
     <use xlink:href="#DejaVuSans-68" x="1260.087891"/>
     <use xlink:href="#DejaVuSans-20" x="1323.466797"/>
    </g>
   </g>
   <g id="legend_1">
    <g id="patch_7">
     <path d="M 261.637188 108.74075 
L 407.72 108.74075 
Q 409.72 108.74075 409.72 106.74075 
L 409.72 48.472 
Q 409.72 46.472 407.72 46.472 
L 261.637188 46.472 
Q 259.637188 46.472 259.637188 48.472 
L 259.637188 106.74075 
Q 259.637188 108.74075 261.637188 108.74075 
z
" style="fill: #ffffff; opacity: 0.8; stroke: #cccccc; stroke-linejoin: miter"/>
    </g>
    <g id="line2d_20">
     <path d="M 263.637188 54.570438 
L 273.637188 54.570438 
L 283.637188 54.570438 
" style="fill: none; stroke: #1f77b4; stroke-width: 1.5; stroke-linecap: square"/>
    </g>
    <g id="text_17">
     <!-- Path to follow -->
     <g transform="translate(291.637188 58.070438)scale(0.1 -0.1)">
      <defs>
       <path id="DejaVuSans-6f" d="M 1959 3097 
Q 1497 3097 1228 2736 
Q 959 2375 959 1747 
Q 959 1119 1226 758 
Q 1494 397 1959 397 
Q 2419 397 2687 759 
Q 2956 1122 2956 1747 
Q 2956 2369 2687 2733 
Q 2419 3097 1959 3097 
z
M 1959 3584 
Q 2709 3584 3137 3096 
Q 3566 2609 3566 1747 
Q 3566 888 3137 398 
Q 2709 -91 1959 -91 
Q 1206 -91 779 398 
Q 353 888 353 1747 
Q 353 2609 779 3096 
Q 1206 3584 1959 3584 
z
" transform="scale(0.015625)"/>
       <path id="DejaVuSans-6c" d="M 603 4863 
L 1178 4863 
L 1178 0 
L 603 0 
L 603 4863 
z
" transform="scale(0.015625)"/>
       <path id="DejaVuSans-77" d="M 269 3500 
L 844 3500 
L 1563 769 
L 2278 3500 
L 2956 3500 
L 3675 769 
L 4391 3500 
L 4966 3500 
L 4050 0 
L 3372 0 
L 2619 2869 
L 1863 0 
L 1184 0 
L 269 3500 
z
" transform="scale(0.015625)"/>
      </defs>
      <use xlink:href="#DejaVuSans-50"/>
      <use xlink:href="#DejaVuSans-61" x="55.802734"/>
      <use xlink:href="#DejaVuSans-74" x="117.082031"/>
      <use xlink:href="#DejaVuSans-68" x="156.291016"/>
      <use xlink:href="#DejaVuSans-20" x="219.669922"/>
      <use xlink:href="#DejaVuSans-74" x="251.457031"/>
      <use xlink:href="#DejaVuSans-6f" x="290.666016"/>
      <use xlink:href="#DejaVuSans-20" x="351.847656"/>
      <use xlink:href="#DejaVuSans-66" x="383.634766"/>
      <use xlink:href="#DejaVuSans-6f" x="418.839844"/>
      <use xlink:href="#DejaVuSans-6c" x="480.021484"/>
      <use xlink:href="#DejaVuSans-6c" x="507.804688"/>
      <use xlink:href="#DejaVuSans-6f" x="535.587891"/>
      <use xlink:href="#DejaVuSans-77" x="596.769531"/>
     </g>
    </g>
    <g id="line2d_21">
     <path d="M 263.637188 69.248563 
L 273.637188 69.248563 
L 283.637188 69.248563 
" style="fill: none; stroke: #ff7f0e; stroke-width: 1.5; stroke-linecap: square"/>
    </g>
    <g id="text_18">
     <!-- x_ref -->
     <g transform="translate(291.637188 72.748563)scale(0.1 -0.1)">
      <defs>
       <path id="DejaVuSans-78" d="M 3513 3500 
L 2247 1797 
L 3578 0 
L 2900 0 
L 1881 1375 
L 863 0 
L 184 0 
L 1544 1831 
L 300 3500 
L 978 3500 
L 1906 2253 
L 2834 3500 
L 3513 3500 
z
" transform="scale(0.015625)"/>
       <path id="DejaVuSans-5f" d="M 3263 -1063 
L 3263 -1509 
L -63 -1509 
L -63 -1063 
L 3263 -1063 
z
" transform="scale(0.015625)"/>
      </defs>
      <use xlink:href="#DejaVuSans-78"/>
      <use xlink:href="#DejaVuSans-5f" x="59.179688"/>
      <use xlink:href="#DejaVuSans-72" x="109.179688"/>
      <use xlink:href="#DejaVuSans-65" x="148.042969"/>
      <use xlink:href="#DejaVuSans-66" x="209.566406"/>
     </g>
    </g>
    <g id="line2d_22">
     <path d="M 263.637188 84.204813 
L 273.637188 84.204813 
L 283.637188 84.204813 
" style="fill: none; stroke: #2ca02c; stroke-width: 1.5; stroke-linecap: square"/>
    </g>
    <g id="text_19">
     <!-- Estimated States (x0) -->
     <g transform="translate(291.637188 87.704813)scale(0.1 -0.1)">
      <defs>
       <path id="DejaVuSans-45" d="M 628 4666 
L 3578 4666 
L 3578 4134 
L 1259 4134 
L 1259 2753 
L 3481 2753 
L 3481 2222 
L 1259 2222 
L 1259 531 
L 3634 531 
L 3634 0 
L 628 0 
L 628 4666 
z
" transform="scale(0.015625)"/>
       <path id="DejaVuSans-69" d="M 603 3500 
L 1178 3500 
L 1178 0 
L 603 0 
L 603 3500 
z
M 603 4863 
L 1178 4863 
L 1178 4134 
L 603 4134 
L 603 4863 
z
" transform="scale(0.015625)"/>
       <path id="DejaVuSans-6d" d="M 3328 2828 
Q 3544 3216 3844 3400 
Q 4144 3584 4550 3584 
Q 5097 3584 5394 3201 
Q 5691 2819 5691 2113 
L 5691 0 
L 5113 0 
L 5113 2094 
Q 5113 2597 4934 2840 
Q 4756 3084 4391 3084 
Q 3944 3084 3684 2787 
Q 3425 2491 3425 1978 
L 3425 0 
L 2847 0 
L 2847 2094 
Q 2847 2600 2669 2842 
Q 2491 3084 2119 3084 
Q 1678 3084 1418 2786 
Q 1159 2488 1159 1978 
L 1159 0 
L 581 0 
L 581 3500 
L 1159 3500 
L 1159 2956 
Q 1356 3278 1631 3431 
Q 1906 3584 2284 3584 
Q 2666 3584 2933 3390 
Q 3200 3197 3328 2828 
z
" transform="scale(0.015625)"/>
       <path id="DejaVuSans-28" d="M 1984 4856 
Q 1566 4138 1362 3434 
Q 1159 2731 1159 2009 
Q 1159 1288 1364 580 
Q 1569 -128 1984 -844 
L 1484 -844 
Q 1016 -109 783 600 
Q 550 1309 550 2009 
Q 550 2706 781 3412 
Q 1013 4119 1484 4856 
L 1984 4856 
z
" transform="scale(0.015625)"/>
       <path id="DejaVuSans-29" d="M 513 4856 
L 1013 4856 
Q 1481 4119 1714 3412 
Q 1947 2706 1947 2009 
Q 1947 1309 1714 600 
Q 1481 -109 1013 -844 
L 513 -844 
Q 928 -128 1133 580 
Q 1338 1288 1338 2009 
Q 1338 2731 1133 3434 
Q 928 4138 513 4856 
z
" transform="scale(0.015625)"/>
      </defs>
      <use xlink:href="#DejaVuSans-45"/>
      <use xlink:href="#DejaVuSans-73" x="63.183594"/>
      <use xlink:href="#DejaVuSans-74" x="115.283203"/>
      <use xlink:href="#DejaVuSans-69" x="154.492188"/>
      <use xlink:href="#DejaVuSans-6d" x="182.275391"/>
      <use xlink:href="#DejaVuSans-61" x="279.6875"/>
      <use xlink:href="#DejaVuSans-74" x="340.966797"/>
      <use xlink:href="#DejaVuSans-65" x="380.175781"/>
      <use xlink:href="#DejaVuSans-64" x="441.699219"/>
      <use xlink:href="#DejaVuSans-20" x="505.175781"/>
      <use xlink:href="#DejaVuSans-53" x="536.962891"/>
      <use xlink:href="#DejaVuSans-74" x="600.439453"/>
      <use xlink:href="#DejaVuSans-61" x="639.648438"/>
      <use xlink:href="#DejaVuSans-74" x="700.927734"/>
      <use xlink:href="#DejaVuSans-65" x="740.136719"/>
      <use xlink:href="#DejaVuSans-73" x="801.660156"/>
      <use xlink:href="#DejaVuSans-20" x="853.759766"/>
      <use xlink:href="#DejaVuSans-28" x="885.546875"/>
      <use xlink:href="#DejaVuSans-78" x="924.560547"/>
      <use xlink:href="#DejaVuSans-30" x="983.740234"/>
      <use xlink:href="#DejaVuSans-29" x="1047.363281"/>
     </g>
    </g>
    <g id="line2d_23">
     <path d="M 263.637188 98.882938 
L 273.637188 98.882938 
L 283.637188 98.882938 
" style="fill: none; stroke: #d62728; stroke-width: 1.5; stroke-linecap: square"/>
    </g>
    <g id="text_20">
     <!-- Solution States (x_bar) -->
     <g transform="translate(291.637188 102.382938)scale(0.1 -0.1)">
      <defs>
       <path id="DejaVuSans-75" d="M 544 1381 
L 544 3500 
L 1119 3500 
L 1119 1403 
Q 1119 906 1312 657 
Q 1506 409 1894 409 
Q 2359 409 2629 706 
Q 2900 1003 2900 1516 
L 2900 3500 
L 3475 3500 
L 3475 0 
L 2900 0 
L 2900 538 
Q 2691 219 2414 64 
Q 2138 -91 1772 -91 
Q 1169 -91 856 284 
Q 544 659 544 1381 
z
M 1991 3584 
L 1991 3584 
z
" transform="scale(0.015625)"/>
       <path id="DejaVuSans-62" d="M 3116 1747 
Q 3116 2381 2855 2742 
Q 2594 3103 2138 3103 
Q 1681 3103 1420 2742 
Q 1159 2381 1159 1747 
Q 1159 1113 1420 752 
Q 1681 391 2138 391 
Q 2594 391 2855 752 
Q 3116 1113 3116 1747 
z
M 1159 2969 
Q 1341 3281 1617 3432 
Q 1894 3584 2278 3584 
Q 2916 3584 3314 3078 
Q 3713 2572 3713 1747 
Q 3713 922 3314 415 
Q 2916 -91 2278 -91 
Q 1894 -91 1617 61 
Q 1341 213 1159 525 
L 1159 0 
L 581 0 
L 581 4863 
L 1159 4863 
L 1159 2969 
z
" transform="scale(0.015625)"/>
      </defs>
      <use xlink:href="#DejaVuSans-53"/>
      <use xlink:href="#DejaVuSans-6f" x="63.476562"/>
      <use xlink:href="#DejaVuSans-6c" x="124.658203"/>
      <use xlink:href="#DejaVuSans-75" x="152.441406"/>
      <use xlink:href="#DejaVuSans-74" x="215.820312"/>
      <use xlink:href="#DejaVuSans-69" x="255.029297"/>
      <use xlink:href="#DejaVuSans-6f" x="282.8125"/>
      <use xlink:href="#DejaVuSans-6e" x="343.994141"/>
      <use xlink:href="#DejaVuSans-20" x="407.373047"/>
      <use xlink:href="#DejaVuSans-53" x="439.160156"/>
      <use xlink:href="#DejaVuSans-74" x="502.636719"/>
      <use xlink:href="#DejaVuSans-61" x="541.845703"/>
      <use xlink:href="#DejaVuSans-74" x="603.125"/>
      <use xlink:href="#DejaVuSans-65" x="642.333984"/>
      <use xlink:href="#DejaVuSans-73" x="703.857422"/>
      <use xlink:href="#DejaVuSans-20" x="755.957031"/>
      <use xlink:href="#DejaVuSans-28" x="787.744141"/>
      <use xlink:href="#DejaVuSans-78" x="826.757812"/>
      <use xlink:href="#DejaVuSans-5f" x="885.9375"/>
      <use xlink:href="#DejaVuSans-62" x="935.9375"/>
      <use xlink:href="#DejaVuSans-61" x="999.414062"/>
      <use xlink:href="#DejaVuSans-72" x="1060.693359"/>
      <use xlink:href="#DejaVuSans-29" x="1101.806641"/>
     </g>
    </g>
   </g>
  </g>
 </g>
 <defs>
  <clipPath id="p93a2798c87">
   <rect x="57.6" y="41.472" width="357.12" height="266.112"/>
  </clipPath>
 </defs>
</svg>
