<?xml version="1.0" encoding="utf-8" standalone="no"?>
<!DOCTYPE svg PUBLIC "-//W3C//DTD SVG 1.1//EN"
  "http://www.w3.org/Graphics/SVG/1.1/DTD/svg11.dtd">
<svg xmlns:xlink="http://www.w3.org/1999/xlink" width="460.363636pt" height="345.454545pt" viewBox="0 0 460.363636 345.454545" xmlns="http://www.w3.org/2000/svg" version="1.1">
 <metadata>
  <rdf:RDF xmlns:dc="http://purl.org/dc/elements/1.1/" xmlns:cc="http://creativecommons.org/ns#" xmlns:rdf="http://www.w3.org/1999/02/22-rdf-syntax-ns#">
   <cc:Work>
    <dc:type rdf:resource="http://purl.org/dc/dcmitype/StillImage"/>
    <dc:date>2023-06-21T09:28:57.972830</dc:date>
    <dc:format>image/svg+xml</dc:format>
    <dc:creator>
     <cc:Agent>
      <dc:title>Matplotlib v3.5.1, https://matplotlib.org/</dc:title>
     </cc:Agent>
    </dc:creator>
   </cc:Work>
  </rdf:RDF>
 </metadata>
 <defs>
  <style type="text/css">*{stroke-linejoin: round; stroke-linecap: butt}</style>
 </defs>
 <g id="figure_1">
  <g id="patch_1">
   <path d="M 0 345.454545 
L 460.363636 345.454545 
L 460.363636 0 
L 0 0 
z
" style="fill: #ffffff"/>
  </g>
  <g id="axes_1">
   <g id="patch_2">
    <path d="M 57.545455 307.454545 
L 414.327273 307.454545 
L 414.327273 41.454545 
L 57.545455 41.454545 
z
" style="fill: #ffffff"/>
   </g>
   <g id="matplotlib.axis_1">
    <g id="xtick_1">
     <g id="line2d_1">
      <defs>
       <path id="md6f5fa693e" d="M 0 0 
L 0 3.5 
" style="stroke: #000000; stroke-width: 0.8"/>
      </defs>
      <g>
       <use xlink:href="#md6f5fa693e" x="73.76281" y="307.454545" style="stroke: #000000; stroke-width: 0.8"/>
      </g>
     </g>
     <g id="text_1">
      <!-- 0.0 -->
      <g transform="translate(65.811247 322.052983)scale(0.1 -0.1)">
       <defs>
        <path id="DejaVuSans-30" d="M 2034 4250 
Q 1547 4250 1301 3770 
Q 1056 3291 1056 2328 
Q 1056 1369 1301 889 
Q 1547 409 2034 409 
Q 2525 409 2770 889 
Q 3016 1369 3016 2328 
Q 3016 3291 2770 3770 
Q 2525 4250 2034 4250 
z
M 2034 4750 
Q 2819 4750 3233 4129 
Q 3647 3509 3647 2328 
Q 3647 1150 3233 529 
Q 2819 -91 2034 -91 
Q 1250 -91 836 529 
Q 422 1150 422 2328 
Q 422 3509 836 4129 
Q 1250 4750 2034 4750 
z
" transform="scale(0.015625)"/>
        <path id="DejaVuSans-2e" d="M 684 794 
L 1344 794 
L 1344 0 
L 684 0 
L 684 794 
z
" transform="scale(0.015625)"/>
       </defs>
       <use xlink:href="#DejaVuSans-30"/>
       <use xlink:href="#DejaVuSans-2e" x="63.623047"/>
       <use xlink:href="#DejaVuSans-30" x="95.410156"/>
      </g>
     </g>
    </g>
    <g id="xtick_2">
     <g id="line2d_2">
      <g>
       <use xlink:href="#md6f5fa693e" x="114.891036" y="307.454545" style="stroke: #000000; stroke-width: 0.8"/>
      </g>
     </g>
     <g id="text_2">
      <!-- 2.5 -->
      <g transform="translate(106.939474 322.052983)scale(0.1 -0.1)">
       <defs>
        <path id="DejaVuSans-32" d="M 1228 531 
L 3431 531 
L 3431 0 
L 469 0 
L 469 531 
Q 828 903 1448 1529 
Q 2069 2156 2228 2338 
Q 2531 2678 2651 2914 
Q 2772 3150 2772 3378 
Q 2772 3750 2511 3984 
Q 2250 4219 1831 4219 
Q 1534 4219 1204 4116 
Q 875 4013 500 3803 
L 500 4441 
Q 881 4594 1212 4672 
Q 1544 4750 1819 4750 
Q 2544 4750 2975 4387 
Q 3406 4025 3406 3419 
Q 3406 3131 3298 2873 
Q 3191 2616 2906 2266 
Q 2828 2175 2409 1742 
Q 1991 1309 1228 531 
z
" transform="scale(0.015625)"/>
        <path id="DejaVuSans-35" d="M 691 4666 
L 3169 4666 
L 3169 4134 
L 1269 4134 
L 1269 2991 
Q 1406 3038 1543 3061 
Q 1681 3084 1819 3084 
Q 2600 3084 3056 2656 
Q 3513 2228 3513 1497 
Q 3513 744 3044 326 
Q 2575 -91 1722 -91 
Q 1428 -91 1123 -41 
Q 819 9 494 109 
L 494 744 
Q 775 591 1075 516 
Q 1375 441 1709 441 
Q 2250 441 2565 725 
Q 2881 1009 2881 1497 
Q 2881 1984 2565 2268 
Q 2250 2553 1709 2553 
Q 1456 2553 1204 2497 
Q 953 2441 691 2322 
L 691 4666 
z
" transform="scale(0.015625)"/>
       </defs>
       <use xlink:href="#DejaVuSans-32"/>
       <use xlink:href="#DejaVuSans-2e" x="63.623047"/>
       <use xlink:href="#DejaVuSans-35" x="95.410156"/>
      </g>
     </g>
    </g>
    <g id="xtick_3">
     <g id="line2d_3">
      <g>
       <use xlink:href="#md6f5fa693e" x="156.019262" y="307.454545" style="stroke: #000000; stroke-width: 0.8"/>
      </g>
     </g>
     <g id="text_3">
      <!-- 5.0 -->
      <g transform="translate(148.0677 322.052983)scale(0.1 -0.1)">
       <use xlink:href="#DejaVuSans-35"/>
       <use xlink:href="#DejaVuSans-2e" x="63.623047"/>
       <use xlink:href="#DejaVuSans-30" x="95.410156"/>
      </g>
     </g>
    </g>
    <g id="xtick_4">
     <g id="line2d_4">
      <g>
       <use xlink:href="#md6f5fa693e" x="197.147488" y="307.454545" style="stroke: #000000; stroke-width: 0.8"/>
      </g>
     </g>
     <g id="text_4">
      <!-- 7.5 -->
      <g transform="translate(189.195926 322.052983)scale(0.1 -0.1)">
       <defs>
        <path id="DejaVuSans-37" d="M 525 4666 
L 3525 4666 
L 3525 4397 
L 1831 0 
L 1172 0 
L 2766 4134 
L 525 4134 
L 525 4666 
z
" transform="scale(0.015625)"/>
       </defs>
       <use xlink:href="#DejaVuSans-37"/>
       <use xlink:href="#DejaVuSans-2e" x="63.623047"/>
       <use xlink:href="#DejaVuSans-35" x="95.410156"/>
      </g>
     </g>
    </g>
    <g id="xtick_5">
     <g id="line2d_5">
      <g>
       <use xlink:href="#md6f5fa693e" x="238.275714" y="307.454545" style="stroke: #000000; stroke-width: 0.8"/>
      </g>
     </g>
     <g id="text_5">
      <!-- 10.0 -->
      <g transform="translate(227.142902 322.052983)scale(0.1 -0.1)">
       <defs>
        <path id="DejaVuSans-31" d="M 794 531 
L 1825 531 
L 1825 4091 
L 703 3866 
L 703 4441 
L 1819 4666 
L 2450 4666 
L 2450 531 
L 3481 531 
L 3481 0 
L 794 0 
L 794 531 
z
" transform="scale(0.015625)"/>
       </defs>
       <use xlink:href="#DejaVuSans-31"/>
       <use xlink:href="#DejaVuSans-30" x="63.623047"/>
       <use xlink:href="#DejaVuSans-2e" x="127.246094"/>
       <use xlink:href="#DejaVuSans-30" x="159.033203"/>
      </g>
     </g>
    </g>
    <g id="xtick_6">
     <g id="line2d_6">
      <g>
       <use xlink:href="#md6f5fa693e" x="279.40394" y="307.454545" style="stroke: #000000; stroke-width: 0.8"/>
      </g>
     </g>
     <g id="text_6">
      <!-- 12.5 -->
      <g transform="translate(268.271128 322.052983)scale(0.1 -0.1)">
       <use xlink:href="#DejaVuSans-31"/>
       <use xlink:href="#DejaVuSans-32" x="63.623047"/>
       <use xlink:href="#DejaVuSans-2e" x="127.246094"/>
       <use xlink:href="#DejaVuSans-35" x="159.033203"/>
      </g>
     </g>
    </g>
    <g id="xtick_7">
     <g id="line2d_7">
      <g>
       <use xlink:href="#md6f5fa693e" x="320.532166" y="307.454545" style="stroke: #000000; stroke-width: 0.8"/>
      </g>
     </g>
     <g id="text_7">
      <!-- 15.0 -->
      <g transform="translate(309.399354 322.052983)scale(0.1 -0.1)">
       <use xlink:href="#DejaVuSans-31"/>
       <use xlink:href="#DejaVuSans-35" x="63.623047"/>
       <use xlink:href="#DejaVuSans-2e" x="127.246094"/>
       <use xlink:href="#DejaVuSans-30" x="159.033203"/>
      </g>
     </g>
    </g>
    <g id="xtick_8">
     <g id="line2d_8">
      <g>
       <use xlink:href="#md6f5fa693e" x="361.660393" y="307.454545" style="stroke: #000000; stroke-width: 0.8"/>
      </g>
     </g>
     <g id="text_8">
      <!-- 17.5 -->
      <g transform="translate(350.52758 322.052983)scale(0.1 -0.1)">
       <use xlink:href="#DejaVuSans-31"/>
       <use xlink:href="#DejaVuSans-37" x="63.623047"/>
       <use xlink:href="#DejaVuSans-2e" x="127.246094"/>
       <use xlink:href="#DejaVuSans-35" x="159.033203"/>
      </g>
     </g>
    </g>
    <g id="xtick_9">
     <g id="line2d_9">
      <g>
       <use xlink:href="#md6f5fa693e" x="402.788619" y="307.454545" style="stroke: #000000; stroke-width: 0.8"/>
      </g>
     </g>
     <g id="text_9">
      <!-- 20.0 -->
      <g transform="translate(391.655806 322.052983)scale(0.1 -0.1)">
       <use xlink:href="#DejaVuSans-32"/>
       <use xlink:href="#DejaVuSans-30" x="63.623047"/>
       <use xlink:href="#DejaVuSans-2e" x="127.246094"/>
       <use xlink:href="#DejaVuSans-30" x="159.033203"/>
      </g>
     </g>
    </g>
   </g>
   <g id="matplotlib.axis_2">
    <g id="ytick_1">
     <g id="line2d_10">
      <defs>
       <path id="m2d0c7397b6" d="M 0 0 
L -3.5 0 
" style="stroke: #000000; stroke-width: 0.8"/>
      </defs>
      <g>
       <use xlink:href="#m2d0c7397b6" x="57.545455" y="303.629707" style="stroke: #000000; stroke-width: 0.8"/>
      </g>
     </g>
     <g id="text_10">
      <!-- −5 -->
      <g transform="translate(35.803267 307.428925)scale(0.1 -0.1)">
       <defs>
        <path id="DejaVuSans-2212" d="M 678 2272 
L 4684 2272 
L 4684 1741 
L 678 1741 
L 678 2272 
z
" transform="scale(0.015625)"/>
       </defs>
       <use xlink:href="#DejaVuSans-2212"/>
       <use xlink:href="#DejaVuSans-35" x="83.789062"/>
      </g>
     </g>
    </g>
    <g id="ytick_2">
     <g id="line2d_11">
      <g>
       <use xlink:href="#m2d0c7397b6" x="57.545455" y="259.423778" style="stroke: #000000; stroke-width: 0.8"/>
      </g>
     </g>
     <g id="text_11">
      <!-- −4 -->
      <g transform="translate(35.803267 263.222997)scale(0.1 -0.1)">
       <defs>
        <path id="DejaVuSans-34" d="M 2419 4116 
L 825 1625 
L 2419 1625 
L 2419 4116 
z
M 2253 4666 
L 3047 4666 
L 3047 1625 
L 3713 1625 
L 3713 1100 
L 3047 1100 
L 3047 0 
L 2419 0 
L 2419 1100 
L 313 1100 
L 313 1709 
L 2253 4666 
z
" transform="scale(0.015625)"/>
       </defs>
       <use xlink:href="#DejaVuSans-2212"/>
       <use xlink:href="#DejaVuSans-34" x="83.789062"/>
      </g>
     </g>
    </g>
    <g id="ytick_3">
     <g id="line2d_12">
      <g>
       <use xlink:href="#m2d0c7397b6" x="57.545455" y="215.21785" style="stroke: #000000; stroke-width: 0.8"/>
      </g>
     </g>
     <g id="text_12">
      <!-- −3 -->
      <g transform="translate(35.803267 219.017069)scale(0.1 -0.1)">
       <defs>
        <path id="DejaVuSans-33" d="M 2597 2516 
Q 3050 2419 3304 2112 
Q 3559 1806 3559 1356 
Q 3559 666 3084 287 
Q 2609 -91 1734 -91 
Q 1441 -91 1130 -33 
Q 819 25 488 141 
L 488 750 
Q 750 597 1062 519 
Q 1375 441 1716 441 
Q 2309 441 2620 675 
Q 2931 909 2931 1356 
Q 2931 1769 2642 2001 
Q 2353 2234 1838 2234 
L 1294 2234 
L 1294 2753 
L 1863 2753 
Q 2328 2753 2575 2939 
Q 2822 3125 2822 3475 
Q 2822 3834 2567 4026 
Q 2313 4219 1838 4219 
Q 1578 4219 1281 4162 
Q 984 4106 628 3988 
L 628 4550 
Q 988 4650 1302 4700 
Q 1616 4750 1894 4750 
Q 2613 4750 3031 4423 
Q 3450 4097 3450 3541 
Q 3450 3153 3228 2886 
Q 3006 2619 2597 2516 
z
" transform="scale(0.015625)"/>
       </defs>
       <use xlink:href="#DejaVuSans-2212"/>
       <use xlink:href="#DejaVuSans-33" x="83.789062"/>
      </g>
     </g>
    </g>
    <g id="ytick_4">
     <g id="line2d_13">
      <g>
       <use xlink:href="#m2d0c7397b6" x="57.545455" y="171.011922" style="stroke: #000000; stroke-width: 0.8"/>
      </g>
     </g>
     <g id="text_13">
      <!-- −2 -->
      <g transform="translate(35.803267 174.811141)scale(0.1 -0.1)">
       <use xlink:href="#DejaVuSans-2212"/>
       <use xlink:href="#DejaVuSans-32" x="83.789062"/>
      </g>
     </g>
    </g>
    <g id="ytick_5">
     <g id="line2d_14">
      <g>
       <use xlink:href="#m2d0c7397b6" x="57.545455" y="126.805994" style="stroke: #000000; stroke-width: 0.8"/>
      </g>
     </g>
     <g id="text_14">
      <!-- −1 -->
      <g transform="translate(35.803267 130.605212)scale(0.1 -0.1)">
       <use xlink:href="#DejaVuSans-2212"/>
       <use xlink:href="#DejaVuSans-31" x="83.789062"/>
      </g>
     </g>
    </g>
    <g id="ytick_6">
     <g id="line2d_15">
      <g>
       <use xlink:href="#m2d0c7397b6" x="57.545455" y="82.600065" style="stroke: #000000; stroke-width: 0.8"/>
      </g>
     </g>
     <g id="text_15">
      <!-- 0 -->
      <g transform="translate(44.182955 86.399284)scale(0.1 -0.1)">
       <use xlink:href="#DejaVuSans-30"/>
      </g>
     </g>
    </g>
   </g>
   <g id="line2d_16">
    <path d="M 73.76281 82.600065 
L 76.089374 76.348403 
L 78.636583 70.752098 
L 81.378988 65.867066 
L 84.289185 61.742117 
L 87.338099 58.418467 
L 90.495265 55.929324 
L 93.729138 54.299558 
L 97.007406 53.545455 
L 100.297313 53.674548 
L 103.565988 54.685547 
L 106.780772 56.568352 
L 109.909543 59.30415 
L 112.92104 62.865605 
L 115.785173 67.217133 
L 118.473324 72.315255 
L 120.958634 78.109032 
L 123.216271 84.540574 
L 125.223678 91.54562 
L 126.960796 99.054177 
L 128.41027 106.991223 
L 129.557616 115.277453 
L 131.00709 123.214499 
L 132.744208 130.723056 
L 134.751615 137.728102 
L 137.009252 144.159644 
L 139.494563 149.953421 
L 142.182714 155.051543 
L 145.046846 159.403071 
L 148.058343 162.964526 
L 151.187114 165.700324 
L 154.401898 167.583128 
L 157.670573 168.594128 
L 160.960481 168.723221 
L 164.238748 167.969118 
L 167.472621 166.339352 
L 170.629787 163.850209 
L 173.678701 160.526558 
L 176.588899 156.40161 
L 179.331303 151.516578 
L 181.878512 145.920273 
L 184.205076 139.66861 
L 186.752286 134.072305 
L 189.49469 129.187273 
L 192.404888 125.062325 
L 195.453802 121.738675 
L 198.610968 119.249531 
L 201.84484 117.619766 
L 205.123108 116.865662 
L 208.413015 116.994755 
L 211.681691 118.005755 
L 214.896474 119.88856 
L 218.025245 122.624357 
L 221.036742 126.185813 
L 223.900875 130.537341 
L 226.589026 135.635463 
L 229.074336 141.429239 
L 231.331974 147.860781 
L 233.33938 154.865827 
L 235.076499 162.374385 
L 236.525972 170.31143 
L 237.673319 178.59766 
L 239.122792 186.534706 
L 240.859911 194.043264 
L 242.867317 201.048309 
L 245.124955 207.479852 
L 247.610265 213.273628 
L 250.298416 218.37175 
L 253.162549 222.723278 
L 256.174046 226.284734 
L 259.302817 229.020531 
L 262.5176 230.903336 
L 265.786276 231.914336 
L 269.076183 232.043429 
L 272.354451 231.289325 
L 275.588323 229.65956 
L 278.745489 227.170416 
L 281.794403 223.846766 
L 284.704601 219.721817 
L 287.447005 214.836786 
L 289.994215 209.24048 
L 292.320779 202.988818 
L 294.867988 197.392513 
L 297.610392 192.507481 
L 300.52059 188.382533 
L 303.569504 185.058882 
L 306.72667 182.569739 
L 309.960543 180.939973 
L 313.238811 180.18587 
L 316.528718 180.314963 
L 319.797393 181.325962 
L 323.012177 183.208767 
L 326.140948 185.944565 
L 329.152445 189.50602 
L 332.016578 193.857548 
L 334.704729 198.95567 
L 337.190039 204.749447 
L 339.447676 211.180989 
L 341.455083 218.186035 
L 343.192201 225.694592 
L 344.641675 233.631638 
L 345.789021 241.917868 
L 347.238495 249.854914 
L 348.975613 257.363471 
L 350.98302 264.368517 
L 353.240657 270.800059 
L 355.725967 276.593836 
L 358.414119 281.691958 
L 361.278251 286.043486 
L 364.289748 289.604941 
L 367.418519 292.340739 
L 370.633303 294.223544 
L 373.901978 295.234543 
L 377.191886 295.363636 
L 380.470153 294.609533 
L 383.704026 292.979767 
L 386.861192 290.490624 
L 389.910106 287.166974 
L 392.820304 283.042025 
L 395.562708 278.156993 
L 398.109917 272.560688 
" clip-path="url(#p49fef6de94)" style="fill: none; stroke: #1f77b4; stroke-width: 1.5; stroke-linecap: square"/>
   </g>
   <g id="line2d_17">
    <defs>
     <path id="m878473312a" d="M 0 3 
C 0.795609 3 1.55874 2.683901 2.12132 2.12132 
C 2.683901 1.55874 3 0.795609 3 0 
C 3 -0.795609 2.683901 -1.55874 2.12132 -2.12132 
C 1.55874 -2.683901 0.795609 -3 0 -3 
C -0.795609 -3 -1.55874 -2.683901 -2.12132 -2.12132 
C -2.683901 -1.55874 -3 -0.795609 -3 0 
C -3 0.795609 -2.683901 1.55874 -2.12132 2.12132 
C -1.55874 2.683901 -0.795609 3 0 3 
z
" style="stroke: #ff0000"/>
    </defs>
    <g clip-path="url(#p49fef6de94)">
     <use xlink:href="#m878473312a" x="77.053068" y="82.600065" style="fill: #ff0000; stroke: #ff0000"/>
    </g>
   </g>
   <g id="line2d_18">
    <g clip-path="url(#p49fef6de94)">
     <use xlink:href="#m878473312a" x="80.319665" y="81.541667" style="fill: #ff0000; stroke: #ff0000"/>
    </g>
   </g>
   <g id="line2d_19">
    <g clip-path="url(#p49fef6de94)">
     <use xlink:href="#m878473312a" x="83.515617" y="79.440094" style="fill: #ff0000; stroke: #ff0000"/>
    </g>
   </g>
   <g id="line2d_20">
    <g clip-path="url(#p49fef6de94)">
     <use xlink:href="#m878473312a" x="86.594959" y="76.325572" style="fill: #ff0000; stroke: #ff0000"/>
    </g>
   </g>
   <g id="line2d_21">
    <g clip-path="url(#p49fef6de94)">
     <use xlink:href="#m878473312a" x="89.513402" y="72.242897" style="fill: #ff0000; stroke: #ff0000"/>
    </g>
   </g>
   <g id="line2d_22">
    <g clip-path="url(#p49fef6de94)">
     <use xlink:href="#m878473312a" x="92.228969" y="67.250788" style="fill: #ff0000; stroke: #ff0000"/>
    </g>
   </g>
   <g id="line2d_23">
    <g clip-path="url(#p49fef6de94)">
     <use xlink:href="#m878473312a" x="95.139906" y="63.129606" style="fill: #ff0000; stroke: #ff0000"/>
    </g>
   </g>
   <g id="line2d_24">
    <g clip-path="url(#p49fef6de94)">
     <use xlink:href="#m878473312a" x="98.213512" y="59.97444" style="fill: #ff0000; stroke: #ff0000"/>
    </g>
   </g>
   <g id="line2d_25">
    <g clip-path="url(#p49fef6de94)">
     <use xlink:href="#m878473312a" x="101.405581" y="57.83067" style="fill: #ff0000; stroke: #ff0000"/>
    </g>
   </g>
   <g id="line2d_26">
    <g clip-path="url(#p49fef6de94)">
     <use xlink:href="#m878473312a" x="104.670201" y="56.729129" style="fill: #ff0000; stroke: #ff0000"/>
    </g>
   </g>
   <g id="line2d_27">
    <g clip-path="url(#p49fef6de94)">
     <use xlink:href="#m878473312a" x="107.96042" y="56.685661" style="fill: #ff0000; stroke: #ff0000"/>
    </g>
   </g>
   <g id="line2d_28">
    <g clip-path="url(#p49fef6de94)">
     <use xlink:href="#m878473312a" x="111.228913" y="57.700891" style="fill: #ff0000; stroke: #ff0000"/>
    </g>
   </g>
   <g id="line2d_29">
    <g clip-path="url(#p49fef6de94)">
     <use xlink:href="#m878473312a" x="114.428673" y="59.760216" style="fill: #ff0000; stroke: #ff0000"/>
    </g>
   </g>
   <g id="line2d_30">
    <g clip-path="url(#p49fef6de94)">
     <use xlink:href="#m878473312a" x="117.513676" y="62.834019" style="fill: #ff0000; stroke: #ff0000"/>
    </g>
   </g>
   <g id="line2d_31">
    <g clip-path="url(#p49fef6de94)">
     <use xlink:href="#m878473312a" x="120.439553" y="66.878089" style="fill: #ff0000; stroke: #ff0000"/>
    </g>
   </g>
   <g id="line2d_32">
    <g clip-path="url(#p49fef6de94)">
     <use xlink:href="#m878473312a" x="123.164222" y="71.834261" style="fill: #ff0000; stroke: #ff0000"/>
    </g>
   </g>
   <g id="line2d_33">
    <g clip-path="url(#p49fef6de94)">
     <use xlink:href="#m878473312a" x="125.648493" y="77.631253" style="fill: #ff0000; stroke: #ff0000"/>
    </g>
   </g>
   <g id="line2d_34">
    <g clip-path="url(#p49fef6de94)">
     <use xlink:href="#m878473312a" x="127.856638" y="84.185689" style="fill: #ff0000; stroke: #ff0000"/>
    </g>
   </g>
   <g id="line2d_35">
    <g clip-path="url(#p49fef6de94)">
     <use xlink:href="#m878473312a" x="129.756895" y="91.403296" style="fill: #ff0000; stroke: #ff0000"/>
    </g>
   </g>
   <g id="line2d_36">
    <g clip-path="url(#p49fef6de94)">
     <use xlink:href="#m878473312a" x="131.321936" y="99.180267" style="fill: #ff0000; stroke: #ff0000"/>
    </g>
   </g>
   <g id="line2d_37">
    <g clip-path="url(#p49fef6de94)">
     <use xlink:href="#m878473312a" x="132.529249" y="107.404746" style="fill: #ff0000; stroke: #ff0000"/>
    </g>
   </g>
   <g id="line2d_38">
    <g clip-path="url(#p49fef6de94)">
     <use xlink:href="#m878473312a" x="133.361471" y="115.958445" style="fill: #ff0000; stroke: #ff0000"/>
    </g>
   </g>
   <g id="line2d_39">
    <g clip-path="url(#p49fef6de94)">
     <use xlink:href="#m878473312a" x="134.104183" y="124.571438" style="fill: #ff0000; stroke: #ff0000"/>
    </g>
   </g>
   <g id="line2d_40">
    <g clip-path="url(#p49fef6de94)">
     <use xlink:href="#m878473312a" x="135.22527" y="132.88358" style="fill: #ff0000; stroke: #ff0000"/>
    </g>
   </g>
   <g id="line2d_41">
    <g clip-path="url(#p49fef6de94)">
     <use xlink:href="#m878473312a" x="136.708611" y="140.775318" style="fill: #ff0000; stroke: #ff0000"/>
    </g>
   </g>
   <g id="line2d_42">
    <g clip-path="url(#p49fef6de94)">
     <use xlink:href="#m878473312a" x="138.532869" y="148.133149" style="fill: #ff0000; stroke: #ff0000"/>
    </g>
   </g>
   <g id="line2d_43">
    <g clip-path="url(#p49fef6de94)">
     <use xlink:href="#m878473312a" x="140.671807" y="154.851247" style="fill: #ff0000; stroke: #ff0000"/>
    </g>
   </g>
   <g id="line2d_44">
    <g clip-path="url(#p49fef6de94)">
     <use xlink:href="#m878473312a" x="143.094662" y="160.832986" style="fill: #ff0000; stroke: #ff0000"/>
    </g>
   </g>
   <g id="line2d_45">
    <g clip-path="url(#p49fef6de94)">
     <use xlink:href="#m878473312a" x="145.766586" y="165.992334" style="fill: #ff0000; stroke: #ff0000"/>
    </g>
   </g>
   <g id="line2d_46">
    <g clip-path="url(#p49fef6de94)">
     <use xlink:href="#m878473312a" x="148.649149" y="170.255085" style="fill: #ff0000; stroke: #ff0000"/>
    </g>
   </g>
   <g id="line2d_47">
    <g clip-path="url(#p49fef6de94)">
     <use xlink:href="#m878473312a" x="151.700893" y="173.559929" style="fill: #ff0000; stroke: #ff0000"/>
    </g>
   </g>
   <g id="line2d_48">
    <g clip-path="url(#p49fef6de94)">
     <use xlink:href="#m878473312a" x="154.877925" y="175.859332" style="fill: #ff0000; stroke: #ff0000"/>
    </g>
   </g>
   <g id="line2d_49">
    <g clip-path="url(#p49fef6de94)">
     <use xlink:href="#m878473312a" x="158.13455" y="177.120225" style="fill: #ff0000; stroke: #ff0000"/>
    </g>
   </g>
   <g id="line2d_50">
    <g clip-path="url(#p49fef6de94)">
     <use xlink:href="#m878473312a" x="161.42393" y="177.32447" style="fill: #ff0000; stroke: #ff0000"/>
    </g>
   </g>
   <g id="line2d_51">
    <g clip-path="url(#p49fef6de94)">
     <use xlink:href="#m878473312a" x="164.698754" y="176.469132" style="fill: #ff0000; stroke: #ff0000"/>
    </g>
   </g>
   <g id="line2d_52">
    <g clip-path="url(#p49fef6de94)">
     <use xlink:href="#m878473312a" x="167.911922" y="174.566511" style="fill: #ff0000; stroke: #ff0000"/>
    </g>
   </g>
   <g id="line2d_53">
    <g clip-path="url(#p49fef6de94)">
     <use xlink:href="#m878473312a" x="171.017219" y="171.643974" style="fill: #ff0000; stroke: #ff0000"/>
    </g>
   </g>
   <g id="line2d_54">
    <g clip-path="url(#p49fef6de94)">
     <use xlink:href="#m878473312a" x="173.969982" y="167.743553" style="fill: #ff0000; stroke: #ff0000"/>
    </g>
   </g>
   <g id="line2d_55">
    <g clip-path="url(#p49fef6de94)">
     <use xlink:href="#m878473312a" x="176.727743" y="162.921347" style="fill: #ff0000; stroke: #ff0000"/>
    </g>
   </g>
   <g id="line2d_56">
    <g clip-path="url(#p49fef6de94)">
     <use xlink:href="#m878473312a" x="179.250838" y="157.246714" style="fill: #ff0000; stroke: #ff0000"/>
    </g>
   </g>
   <g id="line2d_57">
    <g clip-path="url(#p49fef6de94)">
     <use xlink:href="#m878473312a" x="181.502978" y="150.80127" style="fill: #ff0000; stroke: #ff0000"/>
    </g>
   </g>
   <g id="line2d_58">
    <g clip-path="url(#p49fef6de94)">
     <use xlink:href="#m878473312a" x="183.711508" y="144.247774" style="fill: #ff0000; stroke: #ff0000"/>
    </g>
   </g>
   <g id="line2d_59">
    <g clip-path="url(#p49fef6de94)">
     <use xlink:href="#m878473312a" x="186.145237" y="138.297994" style="fill: #ff0000; stroke: #ff0000"/>
    </g>
   </g>
   <g id="line2d_60">
    <g clip-path="url(#p49fef6de94)">
     <use xlink:href="#m878473312a" x="188.786263" y="133.025029" style="fill: #ff0000; stroke: #ff0000"/>
    </g>
   </g>
   <g id="line2d_61">
    <g clip-path="url(#p49fef6de94)">
     <use xlink:href="#m878473312a" x="191.611281" y="128.492639" style="fill: #ff0000; stroke: #ff0000"/>
    </g>
   </g>
   <g id="line2d_62">
    <g clip-path="url(#p49fef6de94)">
     <use xlink:href="#m878473312a" x="194.592965" y="124.754449" style="fill: #ff0000; stroke: #ff0000"/>
    </g>
   </g>
   <g id="line2d_63">
    <g clip-path="url(#p49fef6de94)">
     <use xlink:href="#m878473312a" x="197.701076" y="121.853594" style="fill: #ff0000; stroke: #ff0000"/>
    </g>
   </g>
   <g id="line2d_64">
    <g clip-path="url(#p49fef6de94)">
     <use xlink:href="#m878473312a" x="200.903345" y="119.82264" style="fill: #ff0000; stroke: #ff0000"/>
    </g>
   </g>
   <g id="line2d_65">
    <g clip-path="url(#p49fef6de94)">
     <use xlink:href="#m878473312a" x="204.166187" y="118.683678" style="fill: #ff0000; stroke: #ff0000"/>
    </g>
   </g>
   <g id="line2d_66">
    <g clip-path="url(#p49fef6de94)">
     <use xlink:href="#m878473312a" x="207.455281" y="118.448512" style="fill: #ff0000; stroke: #ff0000"/>
    </g>
   </g>
   <g id="line2d_67">
    <g clip-path="url(#p49fef6de94)">
     <use xlink:href="#m878473312a" x="210.736067" y="119.118889" style="fill: #ff0000; stroke: #ff0000"/>
    </g>
   </g>
   <g id="line2d_68">
    <g clip-path="url(#p49fef6de94)">
     <use xlink:href="#m878473312a" x="213.974175" y="120.68677" style="fill: #ff0000; stroke: #ff0000"/>
    </g>
   </g>
   <g id="line2d_69">
    <g clip-path="url(#p49fef6de94)">
     <use xlink:href="#m878473312a" x="217.135808" y="123.134631" style="fill: #ff0000; stroke: #ff0000"/>
    </g>
   </g>
   <g id="line2d_70">
    <g clip-path="url(#p49fef6de94)">
     <use xlink:href="#m878473312a" x="220.188102" y="126.4358" style="fill: #ff0000; stroke: #ff0000"/>
    </g>
   </g>
   <g id="line2d_71">
    <g clip-path="url(#p49fef6de94)">
     <use xlink:href="#m878473312a" x="223.099457" y="130.554852" style="fill: #ff0000; stroke: #ff0000"/>
    </g>
   </g>
   <g id="line2d_72">
    <g clip-path="url(#p49fef6de94)">
     <use xlink:href="#m878473312a" x="225.839487" y="135.449493" style="fill: #ff0000; stroke: #ff0000"/>
    </g>
   </g>
   <g id="line2d_73">
    <g clip-path="url(#p49fef6de94)">
     <use xlink:href="#m878473312a" x="228.379714" y="141.068669" style="fill: #ff0000; stroke: #ff0000"/>
    </g>
   </g>
   <g id="line2d_74">
    <g clip-path="url(#p49fef6de94)">
     <use xlink:href="#m878473312a" x="230.694407" y="147.352065" style="fill: #ff0000; stroke: #ff0000"/>
    </g>
   </g>
   <g id="line2d_75">
    <g clip-path="url(#p49fef6de94)">
     <use xlink:href="#m878473312a" x="232.762606" y="154.228233" style="fill: #ff0000; stroke: #ff0000"/>
    </g>
   </g>
   <g id="line2d_76">
    <g clip-path="url(#p49fef6de94)">
     <use xlink:href="#m878473312a" x="234.573845" y="161.609252" style="fill: #ff0000; stroke: #ff0000"/>
    </g>
   </g>
   <g id="line2d_77">
    <g clip-path="url(#p49fef6de94)">
     <use xlink:href="#m878473312a" x="236.143968" y="169.378822" style="fill: #ff0000; stroke: #ff0000"/>
    </g>
   </g>
   <g id="line2d_78">
    <g clip-path="url(#p49fef6de94)">
     <use xlink:href="#m878473312a" x="237.557242" y="177.362865" style="fill: #ff0000; stroke: #ff0000"/>
    </g>
   </g>
   <g id="line2d_79">
    <g clip-path="url(#p49fef6de94)">
     <use xlink:href="#m878473312a" x="239.078233" y="185.202686" style="fill: #ff0000; stroke: #ff0000"/>
    </g>
   </g>
   <g id="line2d_80">
    <g clip-path="url(#p49fef6de94)">
     <use xlink:href="#m878473312a" x="240.811889" y="192.71702" style="fill: #ff0000; stroke: #ff0000"/>
    </g>
   </g>
   <g id="line2d_81">
    <g clip-path="url(#p49fef6de94)">
     <use xlink:href="#m878473312a" x="242.790452" y="199.78107" style="fill: #ff0000; stroke: #ff0000"/>
    </g>
   </g>
   <g id="line2d_82">
    <g clip-path="url(#p49fef6de94)">
     <use xlink:href="#m878473312a" x="245.013692" y="206.298555" style="fill: #ff0000; stroke: #ff0000"/>
    </g>
   </g>
   <g id="line2d_83">
    <g clip-path="url(#p49fef6de94)">
     <use xlink:href="#m878473312a" x="247.466542" y="212.191366" style="fill: #ff0000; stroke: #ff0000"/>
    </g>
   </g>
   <g id="line2d_84">
    <g clip-path="url(#p49fef6de94)">
     <use xlink:href="#m878473312a" x="250.126733" y="217.394307" style="fill: #ff0000; stroke: #ff0000"/>
    </g>
   </g>
   <g id="line2d_85">
    <g clip-path="url(#p49fef6de94)">
     <use xlink:href="#m878473312a" x="252.968074" y="221.852416" style="fill: #ff0000; stroke: #ff0000"/>
    </g>
   </g>
   <g id="line2d_86">
    <g clip-path="url(#p49fef6de94)">
     <use xlink:href="#m878473312a" x="255.961912" y="225.519791" style="fill: #ff0000; stroke: #ff0000"/>
    </g>
   </g>
   <g id="line2d_87">
    <g clip-path="url(#p49fef6de94)">
     <use xlink:href="#m878473312a" x="259.07787" y="228.359215" style="fill: #ff0000; stroke: #ff0000"/>
    </g>
   </g>
   <g id="line2d_88">
    <g clip-path="url(#p49fef6de94)">
     <use xlink:href="#m878473312a" x="262.284306" y="230.342139" style="fill: #ff0000; stroke: #ff0000"/>
    </g>
   </g>
   <g id="line2d_89">
    <g clip-path="url(#p49fef6de94)">
     <use xlink:href="#m878473312a" x="265.548686" y="231.448809" style="fill: #ff0000; stroke: #ff0000"/>
    </g>
   </g>
   <g id="line2d_90">
    <g clip-path="url(#p49fef6de94)">
     <use xlink:href="#m878473312a" x="268.83793" y="231.668374" style="fill: #ff0000; stroke: #ff0000"/>
    </g>
   </g>
   <g id="line2d_91">
    <g clip-path="url(#p49fef6de94)">
     <use xlink:href="#m878473312a" x="272.118743" y="230.998966" style="fill: #ff0000; stroke: #ff0000"/>
    </g>
   </g>
   <g id="line2d_92">
    <g clip-path="url(#p49fef6de94)">
     <use xlink:href="#m878473312a" x="275.357935" y="229.447343" style="fill: #ff0000; stroke: #ff0000"/>
    </g>
   </g>
   <g id="line2d_93">
    <g clip-path="url(#p49fef6de94)">
     <use xlink:href="#m878473312a" x="278.522744" y="227.029293" style="fill: #ff0000; stroke: #ff0000"/>
    </g>
   </g>
   <g id="line2d_94">
    <g clip-path="url(#p49fef6de94)">
     <use xlink:href="#m878473312a" x="281.581195" y="223.769528" style="fill: #ff0000; stroke: #ff0000"/>
    </g>
   </g>
   <g id="line2d_95">
    <g clip-path="url(#p49fef6de94)">
     <use xlink:href="#m878473312a" x="284.502552" y="219.701933" style="fill: #ff0000; stroke: #ff0000"/>
    </g>
   </g>
   <g id="line2d_96">
    <g clip-path="url(#p49fef6de94)">
     <use xlink:href="#m878473312a" x="287.258591" y="214.872624" style="fill: #ff0000; stroke: #ff0000"/>
    </g>
   </g>
   <g id="line2d_97">
    <g clip-path="url(#p49fef6de94)">
     <use xlink:href="#m878473312a" x="289.830467" y="209.358376" style="fill: #ff0000; stroke: #ff0000"/>
    </g>
   </g>
   <g id="line2d_98">
    <g clip-path="url(#p49fef6de94)">
     <use xlink:href="#m878473312a" x="292.248854" y="203.363597" style="fill: #ff0000; stroke: #ff0000"/>
    </g>
   </g>
   <g id="line2d_99">
    <g clip-path="url(#p49fef6de94)">
     <use xlink:href="#m878473312a" x="294.803475" y="197.791738" style="fill: #ff0000; stroke: #ff0000"/>
    </g>
   </g>
   <g id="line2d_100">
    <g clip-path="url(#p49fef6de94)">
     <use xlink:href="#m878473312a" x="297.538862" y="192.87838" style="fill: #ff0000; stroke: #ff0000"/>
    </g>
   </g>
   <g id="line2d_101">
    <g clip-path="url(#p49fef6de94)">
     <use xlink:href="#m878473312a" x="300.44124" y="188.713844" style="fill: #ff0000; stroke: #ff0000"/>
    </g>
   </g>
   <g id="line2d_102">
    <g clip-path="url(#p49fef6de94)">
     <use xlink:href="#m878473312a" x="303.48388" y="185.348934" style="fill: #ff0000; stroke: #ff0000"/>
    </g>
   </g>
   <g id="line2d_103">
    <g clip-path="url(#p49fef6de94)">
     <use xlink:href="#m878473312a" x="306.636577" y="182.819224" style="fill: #ff0000; stroke: #ff0000"/>
    </g>
   </g>
   <g id="line2d_104">
    <g clip-path="url(#p49fef6de94)">
     <use xlink:href="#m878473312a" x="309.867686" y="181.150354" style="fill: #ff0000; stroke: #ff0000"/>
    </g>
   </g>
   <g id="line2d_105">
    <g clip-path="url(#p49fef6de94)">
     <use xlink:href="#m878473312a" x="313.144738" y="180.359011" style="fill: #ff0000; stroke: #ff0000"/>
    </g>
   </g>
   <g id="line2d_106">
    <g clip-path="url(#p49fef6de94)">
     <use xlink:href="#m878473312a" x="316.43481" y="180.453007" style="fill: #ff0000; stroke: #ff0000"/>
    </g>
   </g>
   <g id="line2d_107">
    <g clip-path="url(#p49fef6de94)">
     <use xlink:href="#m878473312a" x="319.704865" y="181.431264" style="fill: #ff0000; stroke: #ff0000"/>
    </g>
   </g>
   <g id="line2d_108">
    <g clip-path="url(#p49fef6de94)">
     <use xlink:href="#m878473312a" x="322.922081" y="183.283831" style="fill: #ff0000; stroke: #ff0000"/>
    </g>
   </g>
   <g id="line2d_109">
    <g clip-path="url(#p49fef6de94)">
     <use xlink:href="#m878473312a" x="326.05418" y="185.991997" style="fill: #ff0000; stroke: #ff0000"/>
    </g>
   </g>
   <g id="line2d_110">
    <g clip-path="url(#p49fef6de94)">
     <use xlink:href="#m878473312a" x="329.069749" y="189.528481" style="fill: #ff0000; stroke: #ff0000"/>
    </g>
   </g>
   <g id="line2d_111">
    <g clip-path="url(#p49fef6de94)">
     <use xlink:href="#m878473312a" x="331.938558" y="193.857711" style="fill: #ff0000; stroke: #ff0000"/>
    </g>
   </g>
   <g id="line2d_112">
    <g clip-path="url(#p49fef6de94)">
     <use xlink:href="#m878473312a" x="334.631846" y="198.93622" style="fill: #ff0000; stroke: #ff0000"/>
    </g>
   </g>
   <g id="line2d_113">
    <g clip-path="url(#p49fef6de94)">
     <use xlink:href="#m878473312a" x="337.122622" y="204.713026" style="fill: #ff0000; stroke: #ff0000"/>
    </g>
   </g>
   <g id="line2d_114">
    <g clip-path="url(#p49fef6de94)">
     <use xlink:href="#m878473312a" x="339.385931" y="211.130157" style="fill: #ff0000; stroke: #ff0000"/>
    </g>
   </g>
   <g id="line2d_115">
    <g clip-path="url(#p49fef6de94)">
     <use xlink:href="#m878473312a" x="341.399115" y="218.123221" style="fill: #ff0000; stroke: #ff0000"/>
    </g>
   </g>
   <g id="line2d_116">
    <g clip-path="url(#p49fef6de94)">
     <use xlink:href="#m878473312a" x="343.14214" y="225.621889" style="fill: #ff0000; stroke: #ff0000"/>
    </g>
   </g>
   <g id="patch_3">
    <path d="M 57.545455 307.454545 
L 57.545455 41.454545 
" style="fill: none; stroke: #000000; stroke-width: 0.8; stroke-linejoin: miter; stroke-linecap: square"/>
   </g>
   <g id="patch_4">
    <path d="M 414.327273 307.454545 
L 414.327273 41.454545 
" style="fill: none; stroke: #000000; stroke-width: 0.8; stroke-linejoin: miter; stroke-linecap: square"/>
   </g>
   <g id="patch_5">
    <path d="M 57.545455 307.454545 
L 414.327273 307.454545 
" style="fill: none; stroke: #000000; stroke-width: 0.8; stroke-linejoin: miter; stroke-linecap: square"/>
   </g>
   <g id="patch_6">
    <path d="M 57.545455 41.454545 
L 414.327273 41.454545 
" style="fill: none; stroke: #000000; stroke-width: 0.8; stroke-linejoin: miter; stroke-linecap: square"/>
   </g>
   <g id="text_16">
    <!-- Vehicle Path -->
    <g transform="translate(199.391676 35.454545)scale(0.12 -0.12)">
     <defs>
      <path id="DejaVuSans-56" d="M 1831 0 
L 50 4666 
L 709 4666 
L 2188 738 
L 3669 4666 
L 4325 4666 
L 2547 0 
L 1831 0 
z
" transform="scale(0.015625)"/>
      <path id="DejaVuSans-65" d="M 3597 1894 
L 3597 1613 
L 953 1613 
Q 991 1019 1311 708 
Q 1631 397 2203 397 
Q 2534 397 2845 478 
Q 3156 559 3463 722 
L 3463 178 
Q 3153 47 2828 -22 
Q 2503 -91 2169 -91 
Q 1331 -91 842 396 
Q 353 884 353 1716 
Q 353 2575 817 3079 
Q 1281 3584 2069 3584 
Q 2775 3584 3186 3129 
Q 3597 2675 3597 1894 
z
M 3022 2063 
Q 3016 2534 2758 2815 
Q 2500 3097 2075 3097 
Q 1594 3097 1305 2825 
Q 1016 2553 972 2059 
L 3022 2063 
z
" transform="scale(0.015625)"/>
      <path id="DejaVuSans-68" d="M 3513 2113 
L 3513 0 
L 2938 0 
L 2938 2094 
Q 2938 2591 2744 2837 
Q 2550 3084 2163 3084 
Q 1697 3084 1428 2787 
Q 1159 2491 1159 1978 
L 1159 0 
L 581 0 
L 581 4863 
L 1159 4863 
L 1159 2956 
Q 1366 3272 1645 3428 
Q 1925 3584 2291 3584 
Q 2894 3584 3203 3211 
Q 3513 2838 3513 2113 
z
" transform="scale(0.015625)"/>
      <path id="DejaVuSans-69" d="M 603 3500 
L 1178 3500 
L 1178 0 
L 603 0 
L 603 3500 
z
M 603 4863 
L 1178 4863 
L 1178 4134 
L 603 4134 
L 603 4863 
z
" transform="scale(0.015625)"/>
      <path id="DejaVuSans-63" d="M 3122 3366 
L 3122 2828 
Q 2878 2963 2633 3030 
Q 2388 3097 2138 3097 
Q 1578 3097 1268 2742 
Q 959 2388 959 1747 
Q 959 1106 1268 751 
Q 1578 397 2138 397 
Q 2388 397 2633 464 
Q 2878 531 3122 666 
L 3122 134 
Q 2881 22 2623 -34 
Q 2366 -91 2075 -91 
Q 1284 -91 818 406 
Q 353 903 353 1747 
Q 353 2603 823 3093 
Q 1294 3584 2113 3584 
Q 2378 3584 2631 3529 
Q 2884 3475 3122 3366 
z
" transform="scale(0.015625)"/>
      <path id="DejaVuSans-6c" d="M 603 4863 
L 1178 4863 
L 1178 0 
L 603 0 
L 603 4863 
z
" transform="scale(0.015625)"/>
      <path id="DejaVuSans-20" transform="scale(0.015625)"/>
      <path id="DejaVuSans-50" d="M 1259 4147 
L 1259 2394 
L 2053 2394 
Q 2494 2394 2734 2622 
Q 2975 2850 2975 3272 
Q 2975 3691 2734 3919 
Q 2494 4147 2053 4147 
L 1259 4147 
z
M 628 4666 
L 2053 4666 
Q 2838 4666 3239 4311 
Q 3641 3956 3641 3272 
Q 3641 2581 3239 2228 
Q 2838 1875 2053 1875 
L 1259 1875 
L 1259 0 
L 628 0 
L 628 4666 
z
" transform="scale(0.015625)"/>
      <path id="DejaVuSans-61" d="M 2194 1759 
Q 1497 1759 1228 1600 
Q 959 1441 959 1056 
Q 959 750 1161 570 
Q 1363 391 1709 391 
Q 2188 391 2477 730 
Q 2766 1069 2766 1631 
L 2766 1759 
L 2194 1759 
z
M 3341 1997 
L 3341 0 
L 2766 0 
L 2766 531 
Q 2569 213 2275 61 
Q 1981 -91 1556 -91 
Q 1019 -91 701 211 
Q 384 513 384 1019 
Q 384 1609 779 1909 
Q 1175 2209 1959 2209 
L 2766 2209 
L 2766 2266 
Q 2766 2663 2505 2880 
Q 2244 3097 1772 3097 
Q 1472 3097 1187 3025 
Q 903 2953 641 2809 
L 641 3341 
Q 956 3463 1253 3523 
Q 1550 3584 1831 3584 
Q 2591 3584 2966 3190 
Q 3341 2797 3341 1997 
z
" transform="scale(0.015625)"/>
      <path id="DejaVuSans-74" d="M 1172 4494 
L 1172 3500 
L 2356 3500 
L 2356 3053 
L 1172 3053 
L 1172 1153 
Q 1172 725 1289 603 
Q 1406 481 1766 481 
L 2356 481 
L 2356 0 
L 1766 0 
Q 1100 0 847 248 
Q 594 497 594 1153 
L 594 3053 
L 172 3053 
L 172 3500 
L 594 3500 
L 594 4494 
L 1172 4494 
z
" transform="scale(0.015625)"/>
     </defs>
     <use xlink:href="#DejaVuSans-56"/>
     <use xlink:href="#DejaVuSans-65" x="60.658203"/>
     <use xlink:href="#DejaVuSans-68" x="122.181641"/>
     <use xlink:href="#DejaVuSans-69" x="185.560547"/>
     <use xlink:href="#DejaVuSans-63" x="213.34375"/>
     <use xlink:href="#DejaVuSans-6c" x="268.324219"/>
     <use xlink:href="#DejaVuSans-65" x="296.107422"/>
     <use xlink:href="#DejaVuSans-20" x="357.630859"/>
     <use xlink:href="#DejaVuSans-50" x="389.417969"/>
     <use xlink:href="#DejaVuSans-61" x="445.220703"/>
     <use xlink:href="#DejaVuSans-74" x="506.5"/>
     <use xlink:href="#DejaVuSans-68" x="545.708984"/>
    </g>
   </g>
  </g>
 </g>
 <defs>
  <clipPath id="p49fef6de94">
   <rect x="57.545455" y="41.454545" width="356.781818" height="266"/>
  </clipPath>
 </defs>
</svg>
