<?xml version="1.0" encoding="utf-8" standalone="no"?>
<!DOCTYPE svg PUBLIC "-//W3C//DTD SVG 1.1//EN"
  "http://www.w3.org/Graphics/SVG/1.1/DTD/svg11.dtd">
<svg xmlns:xlink="http://www.w3.org/1999/xlink" width="460.8pt" height="345.6pt" viewBox="0 0 460.8 345.6" xmlns="http://www.w3.org/2000/svg" version="1.1">
 <metadata>
  <rdf:RDF xmlns:dc="http://purl.org/dc/elements/1.1/" xmlns:cc="http://creativecommons.org/ns#" xmlns:rdf="http://www.w3.org/1999/02/22-rdf-syntax-ns#">
   <cc:Work>
    <dc:type rdf:resource="http://purl.org/dc/dcmitype/StillImage"/>
    <dc:date>2023-04-04T11:29:37.702535</dc:date>
    <dc:format>image/svg+xml</dc:format>
    <dc:creator>
     <cc:Agent>
      <dc:title>Matplotlib v3.5.1, https://matplotlib.org/</dc:title>
     </cc:Agent>
    </dc:creator>
   </cc:Work>
  </rdf:RDF>
 </metadata>
 <defs>
  <style type="text/css">*{stroke-linejoin: round; stroke-linecap: butt}</style>
 </defs>
 <g id="figure_1">
  <g id="patch_1">
   <path d="M 0 345.6 
L 460.8 345.6 
L 460.8 0 
L 0 0 
z
" style="fill: #ffffff"/>
  </g>
  <g id="axes_1">
   <g id="patch_2">
    <path d="M 57.6 307.584 
L 414.72 307.584 
L 414.72 41.472 
L 57.6 41.472 
z
" style="fill: #ffffff"/>
   </g>
   <g id="matplotlib.axis_1">
    <g id="xtick_1">
     <g id="line2d_1">
      <defs>
       <path id="m3d7ff712e7" d="M 0 0 
L 0 3.5 
" style="stroke: #000000; stroke-width: 0.8"/>
      </defs>
      <g>
       <use xlink:href="#m3d7ff712e7" x="73.832727" y="307.584" style="stroke: #000000; stroke-width: 0.8"/>
      </g>
     </g>
     <g id="text_1">
      <!-- 0 -->
      <g transform="translate(70.651477 322.182437)scale(0.1 -0.1)">
       <defs>
        <path id="DejaVuSans-30" d="M 2034 4250 
Q 1547 4250 1301 3770 
Q 1056 3291 1056 2328 
Q 1056 1369 1301 889 
Q 1547 409 2034 409 
Q 2525 409 2770 889 
Q 3016 1369 3016 2328 
Q 3016 3291 2770 3770 
Q 2525 4250 2034 4250 
z
M 2034 4750 
Q 2819 4750 3233 4129 
Q 3647 3509 3647 2328 
Q 3647 1150 3233 529 
Q 2819 -91 2034 -91 
Q 1250 -91 836 529 
Q 422 1150 422 2328 
Q 422 3509 836 4129 
Q 1250 4750 2034 4750 
z
" transform="scale(0.015625)"/>
       </defs>
       <use xlink:href="#DejaVuSans-30"/>
      </g>
     </g>
    </g>
    <g id="xtick_2">
     <g id="line2d_2">
      <g>
       <use xlink:href="#m3d7ff712e7" x="129.845379" y="307.584" style="stroke: #000000; stroke-width: 0.8"/>
      </g>
     </g>
     <g id="text_2">
      <!-- 5 -->
      <g transform="translate(126.664129 322.182437)scale(0.1 -0.1)">
       <defs>
        <path id="DejaVuSans-35" d="M 691 4666 
L 3169 4666 
L 3169 4134 
L 1269 4134 
L 1269 2991 
Q 1406 3038 1543 3061 
Q 1681 3084 1819 3084 
Q 2600 3084 3056 2656 
Q 3513 2228 3513 1497 
Q 3513 744 3044 326 
Q 2575 -91 1722 -91 
Q 1428 -91 1123 -41 
Q 819 9 494 109 
L 494 744 
Q 775 591 1075 516 
Q 1375 441 1709 441 
Q 2250 441 2565 725 
Q 2881 1009 2881 1497 
Q 2881 1984 2565 2268 
Q 2250 2553 1709 2553 
Q 1456 2553 1204 2497 
Q 953 2441 691 2322 
L 691 4666 
z
" transform="scale(0.015625)"/>
       </defs>
       <use xlink:href="#DejaVuSans-35"/>
      </g>
     </g>
    </g>
    <g id="xtick_3">
     <g id="line2d_3">
      <g>
       <use xlink:href="#m3d7ff712e7" x="185.858031" y="307.584" style="stroke: #000000; stroke-width: 0.8"/>
      </g>
     </g>
     <g id="text_3">
      <!-- 10 -->
      <g transform="translate(179.495531 322.182437)scale(0.1 -0.1)">
       <defs>
        <path id="DejaVuSans-31" d="M 794 531 
L 1825 531 
L 1825 4091 
L 703 3866 
L 703 4441 
L 1819 4666 
L 2450 4666 
L 2450 531 
L 3481 531 
L 3481 0 
L 794 0 
L 794 531 
z
" transform="scale(0.015625)"/>
       </defs>
       <use xlink:href="#DejaVuSans-31"/>
       <use xlink:href="#DejaVuSans-30" x="63.623047"/>
      </g>
     </g>
    </g>
    <g id="xtick_4">
     <g id="line2d_4">
      <g>
       <use xlink:href="#m3d7ff712e7" x="241.870683" y="307.584" style="stroke: #000000; stroke-width: 0.8"/>
      </g>
     </g>
     <g id="text_4">
      <!-- 15 -->
      <g transform="translate(235.508183 322.182437)scale(0.1 -0.1)">
       <use xlink:href="#DejaVuSans-31"/>
       <use xlink:href="#DejaVuSans-35" x="63.623047"/>
      </g>
     </g>
    </g>
    <g id="xtick_5">
     <g id="line2d_5">
      <g>
       <use xlink:href="#m3d7ff712e7" x="297.883335" y="307.584" style="stroke: #000000; stroke-width: 0.8"/>
      </g>
     </g>
     <g id="text_5">
      <!-- 20 -->
      <g transform="translate(291.520835 322.182437)scale(0.1 -0.1)">
       <defs>
        <path id="DejaVuSans-32" d="M 1228 531 
L 3431 531 
L 3431 0 
L 469 0 
L 469 531 
Q 828 903 1448 1529 
Q 2069 2156 2228 2338 
Q 2531 2678 2651 2914 
Q 2772 3150 2772 3378 
Q 2772 3750 2511 3984 
Q 2250 4219 1831 4219 
Q 1534 4219 1204 4116 
Q 875 4013 500 3803 
L 500 4441 
Q 881 4594 1212 4672 
Q 1544 4750 1819 4750 
Q 2544 4750 2975 4387 
Q 3406 4025 3406 3419 
Q 3406 3131 3298 2873 
Q 3191 2616 2906 2266 
Q 2828 2175 2409 1742 
Q 1991 1309 1228 531 
z
" transform="scale(0.015625)"/>
       </defs>
       <use xlink:href="#DejaVuSans-32"/>
       <use xlink:href="#DejaVuSans-30" x="63.623047"/>
      </g>
     </g>
    </g>
    <g id="xtick_6">
     <g id="line2d_6">
      <g>
       <use xlink:href="#m3d7ff712e7" x="353.895987" y="307.584" style="stroke: #000000; stroke-width: 0.8"/>
      </g>
     </g>
     <g id="text_6">
      <!-- 25 -->
      <g transform="translate(347.533487 322.182437)scale(0.1 -0.1)">
       <use xlink:href="#DejaVuSans-32"/>
       <use xlink:href="#DejaVuSans-35" x="63.623047"/>
      </g>
     </g>
    </g>
    <g id="xtick_7">
     <g id="line2d_7">
      <g>
       <use xlink:href="#m3d7ff712e7" x="409.908639" y="307.584" style="stroke: #000000; stroke-width: 0.8"/>
      </g>
     </g>
     <g id="text_7">
      <!-- 30 -->
      <g transform="translate(403.546139 322.182437)scale(0.1 -0.1)">
       <defs>
        <path id="DejaVuSans-33" d="M 2597 2516 
Q 3050 2419 3304 2112 
Q 3559 1806 3559 1356 
Q 3559 666 3084 287 
Q 2609 -91 1734 -91 
Q 1441 -91 1130 -33 
Q 819 25 488 141 
L 488 750 
Q 750 597 1062 519 
Q 1375 441 1716 441 
Q 2309 441 2620 675 
Q 2931 909 2931 1356 
Q 2931 1769 2642 2001 
Q 2353 2234 1838 2234 
L 1294 2234 
L 1294 2753 
L 1863 2753 
Q 2328 2753 2575 2939 
Q 2822 3125 2822 3475 
Q 2822 3834 2567 4026 
Q 2313 4219 1838 4219 
Q 1578 4219 1281 4162 
Q 984 4106 628 3988 
L 628 4550 
Q 988 4650 1302 4700 
Q 1616 4750 1894 4750 
Q 2613 4750 3031 4423 
Q 3450 4097 3450 3541 
Q 3450 3153 3228 2886 
Q 3006 2619 2597 2516 
z
" transform="scale(0.015625)"/>
       </defs>
       <use xlink:href="#DejaVuSans-33"/>
       <use xlink:href="#DejaVuSans-30" x="63.623047"/>
      </g>
     </g>
    </g>
   </g>
   <g id="matplotlib.axis_2">
    <g id="ytick_1">
     <g id="line2d_8">
      <defs>
       <path id="mc2c1d4fcf0" d="M 0 0 
L -3.5 0 
" style="stroke: #000000; stroke-width: 0.8"/>
      </defs>
      <g>
       <use xlink:href="#mc2c1d4fcf0" x="57.6" y="300.726121" style="stroke: #000000; stroke-width: 0.8"/>
      </g>
     </g>
     <g id="text_8">
      <!-- −0.2 -->
      <g transform="translate(26.317187 304.52534)scale(0.1 -0.1)">
       <defs>
        <path id="DejaVuSans-2212" d="M 678 2272 
L 4684 2272 
L 4684 1741 
L 678 1741 
L 678 2272 
z
" transform="scale(0.015625)"/>
        <path id="DejaVuSans-2e" d="M 684 794 
L 1344 794 
L 1344 0 
L 684 0 
L 684 794 
z
" transform="scale(0.015625)"/>
       </defs>
       <use xlink:href="#DejaVuSans-2212"/>
       <use xlink:href="#DejaVuSans-30" x="83.789062"/>
       <use xlink:href="#DejaVuSans-2e" x="147.412109"/>
       <use xlink:href="#DejaVuSans-32" x="179.199219"/>
      </g>
     </g>
    </g>
    <g id="ytick_2">
     <g id="line2d_9">
      <g>
       <use xlink:href="#mc2c1d4fcf0" x="57.6" y="268.016827" style="stroke: #000000; stroke-width: 0.8"/>
      </g>
     </g>
     <g id="text_9">
      <!-- 0.0 -->
      <g transform="translate(34.696875 271.816046)scale(0.1 -0.1)">
       <use xlink:href="#DejaVuSans-30"/>
       <use xlink:href="#DejaVuSans-2e" x="63.623047"/>
       <use xlink:href="#DejaVuSans-30" x="95.410156"/>
      </g>
     </g>
    </g>
    <g id="ytick_3">
     <g id="line2d_10">
      <g>
       <use xlink:href="#mc2c1d4fcf0" x="57.6" y="235.307533" style="stroke: #000000; stroke-width: 0.8"/>
      </g>
     </g>
     <g id="text_10">
      <!-- 0.2 -->
      <g transform="translate(34.696875 239.106752)scale(0.1 -0.1)">
       <use xlink:href="#DejaVuSans-30"/>
       <use xlink:href="#DejaVuSans-2e" x="63.623047"/>
       <use xlink:href="#DejaVuSans-32" x="95.410156"/>
      </g>
     </g>
    </g>
    <g id="ytick_4">
     <g id="line2d_11">
      <g>
       <use xlink:href="#mc2c1d4fcf0" x="57.6" y="202.598239" style="stroke: #000000; stroke-width: 0.8"/>
      </g>
     </g>
     <g id="text_11">
      <!-- 0.4 -->
      <g transform="translate(34.696875 206.397458)scale(0.1 -0.1)">
       <defs>
        <path id="DejaVuSans-34" d="M 2419 4116 
L 825 1625 
L 2419 1625 
L 2419 4116 
z
M 2253 4666 
L 3047 4666 
L 3047 1625 
L 3713 1625 
L 3713 1100 
L 3047 1100 
L 3047 0 
L 2419 0 
L 2419 1100 
L 313 1100 
L 313 1709 
L 2253 4666 
z
" transform="scale(0.015625)"/>
       </defs>
       <use xlink:href="#DejaVuSans-30"/>
       <use xlink:href="#DejaVuSans-2e" x="63.623047"/>
       <use xlink:href="#DejaVuSans-34" x="95.410156"/>
      </g>
     </g>
    </g>
    <g id="ytick_5">
     <g id="line2d_12">
      <g>
       <use xlink:href="#mc2c1d4fcf0" x="57.6" y="169.888945" style="stroke: #000000; stroke-width: 0.8"/>
      </g>
     </g>
     <g id="text_12">
      <!-- 0.6 -->
      <g transform="translate(34.696875 173.688164)scale(0.1 -0.1)">
       <defs>
        <path id="DejaVuSans-36" d="M 2113 2584 
Q 1688 2584 1439 2293 
Q 1191 2003 1191 1497 
Q 1191 994 1439 701 
Q 1688 409 2113 409 
Q 2538 409 2786 701 
Q 3034 994 3034 1497 
Q 3034 2003 2786 2293 
Q 2538 2584 2113 2584 
z
M 3366 4563 
L 3366 3988 
Q 3128 4100 2886 4159 
Q 2644 4219 2406 4219 
Q 1781 4219 1451 3797 
Q 1122 3375 1075 2522 
Q 1259 2794 1537 2939 
Q 1816 3084 2150 3084 
Q 2853 3084 3261 2657 
Q 3669 2231 3669 1497 
Q 3669 778 3244 343 
Q 2819 -91 2113 -91 
Q 1303 -91 875 529 
Q 447 1150 447 2328 
Q 447 3434 972 4092 
Q 1497 4750 2381 4750 
Q 2619 4750 2861 4703 
Q 3103 4656 3366 4563 
z
" transform="scale(0.015625)"/>
       </defs>
       <use xlink:href="#DejaVuSans-30"/>
       <use xlink:href="#DejaVuSans-2e" x="63.623047"/>
       <use xlink:href="#DejaVuSans-36" x="95.410156"/>
      </g>
     </g>
    </g>
    <g id="ytick_6">
     <g id="line2d_13">
      <g>
       <use xlink:href="#mc2c1d4fcf0" x="57.6" y="137.179651" style="stroke: #000000; stroke-width: 0.8"/>
      </g>
     </g>
     <g id="text_13">
      <!-- 0.8 -->
      <g transform="translate(34.696875 140.97887)scale(0.1 -0.1)">
       <defs>
        <path id="DejaVuSans-38" d="M 2034 2216 
Q 1584 2216 1326 1975 
Q 1069 1734 1069 1313 
Q 1069 891 1326 650 
Q 1584 409 2034 409 
Q 2484 409 2743 651 
Q 3003 894 3003 1313 
Q 3003 1734 2745 1975 
Q 2488 2216 2034 2216 
z
M 1403 2484 
Q 997 2584 770 2862 
Q 544 3141 544 3541 
Q 544 4100 942 4425 
Q 1341 4750 2034 4750 
Q 2731 4750 3128 4425 
Q 3525 4100 3525 3541 
Q 3525 3141 3298 2862 
Q 3072 2584 2669 2484 
Q 3125 2378 3379 2068 
Q 3634 1759 3634 1313 
Q 3634 634 3220 271 
Q 2806 -91 2034 -91 
Q 1263 -91 848 271 
Q 434 634 434 1313 
Q 434 1759 690 2068 
Q 947 2378 1403 2484 
z
M 1172 3481 
Q 1172 3119 1398 2916 
Q 1625 2713 2034 2713 
Q 2441 2713 2670 2916 
Q 2900 3119 2900 3481 
Q 2900 3844 2670 4047 
Q 2441 4250 2034 4250 
Q 1625 4250 1398 4047 
Q 1172 3844 1172 3481 
z
" transform="scale(0.015625)"/>
       </defs>
       <use xlink:href="#DejaVuSans-30"/>
       <use xlink:href="#DejaVuSans-2e" x="63.623047"/>
       <use xlink:href="#DejaVuSans-38" x="95.410156"/>
      </g>
     </g>
    </g>
    <g id="ytick_7">
     <g id="line2d_14">
      <g>
       <use xlink:href="#mc2c1d4fcf0" x="57.6" y="104.470357" style="stroke: #000000; stroke-width: 0.8"/>
      </g>
     </g>
     <g id="text_14">
      <!-- 1.0 -->
      <g transform="translate(34.696875 108.269576)scale(0.1 -0.1)">
       <use xlink:href="#DejaVuSans-31"/>
       <use xlink:href="#DejaVuSans-2e" x="63.623047"/>
       <use xlink:href="#DejaVuSans-30" x="95.410156"/>
      </g>
     </g>
    </g>
    <g id="ytick_8">
     <g id="line2d_15">
      <g>
       <use xlink:href="#mc2c1d4fcf0" x="57.6" y="71.761064" style="stroke: #000000; stroke-width: 0.8"/>
      </g>
     </g>
     <g id="text_15">
      <!-- 1.2 -->
      <g transform="translate(34.696875 75.560282)scale(0.1 -0.1)">
       <use xlink:href="#DejaVuSans-31"/>
       <use xlink:href="#DejaVuSans-2e" x="63.623047"/>
       <use xlink:href="#DejaVuSans-32" x="95.410156"/>
      </g>
     </g>
    </g>
   </g>
   <g id="line2d_16">
    <path d="M 73.832727 268.016827 
L 75.417004 244.887864 
L 77.268799 226.474954 
L 79.323216 213.423373 
L 81.508259 206.190506 
L 83.747354 205.029828 
L 85.962033 209.982014 
L 88.074683 220.873517 
L 90.011267 237.322647 
L 91.703919 258.752952 
L 93.640503 275.202082 
L 95.753153 286.093584 
L 97.967832 291.04577 
L 100.206927 289.885092 
L 102.39197 282.652226 
L 104.446387 269.600644 
L 106.298182 251.187735 
L 107.882459 228.058772 
L 109.734254 209.645862 
L 111.788671 196.594281 
L 113.973714 189.361414 
L 116.212809 188.200736 
L 118.427488 193.152922 
L 120.540138 204.044425 
L 122.476722 220.493555 
L 124.169373 241.92386 
L 126.105958 258.37299 
L 128.218608 269.264492 
L 130.433286 274.216678 
L 132.672382 273.056 
L 134.857425 265.823134 
L 136.911842 252.771552 
L 138.763636 234.358643 
L 140.347913 211.22968 
L 142.199708 192.81677 
L 144.254125 179.765189 
L 146.439168 172.532322 
L 148.678263 171.371644 
L 150.892942 176.32383 
L 153.005592 187.215333 
L 154.942176 203.664463 
L 156.634828 225.094768 
L 158.571412 241.543898 
L 160.684062 252.4354 
L 162.898741 257.387586 
L 165.137836 256.226908 
L 167.322879 248.994042 
L 169.377296 235.94246 
L 171.229091 217.529551 
L 172.813368 194.400588 
L 174.665163 175.987678 
L 176.71958 162.936097 
L 178.904623 155.70323 
L 181.143718 154.542552 
L 183.358397 159.494738 
L 185.471047 170.386241 
L 187.407631 186.835371 
L 189.100282 208.265676 
L 191.036867 224.714806 
L 193.149517 235.606308 
L 195.364196 240.558494 
L 197.603291 239.397816 
L 199.788334 232.16495 
L 201.842751 219.113368 
L 203.694545 200.700459 
L 205.278822 177.571495 
L 207.130617 159.158586 
L 209.185034 146.107004 
L 211.370077 138.874138 
L 213.609172 137.71346 
L 215.823851 142.665646 
L 217.936501 153.557149 
L 219.873085 170.006279 
L 221.565737 191.436584 
L 223.502321 207.885714 
L 225.614971 218.777216 
L 227.82965 223.729402 
L 230.068745 222.568724 
L 232.253788 215.335858 
L 234.308205 202.284276 
L 236.16 183.871367 
L 237.744277 160.742403 
L 239.596072 142.329494 
L 241.650489 129.277912 
L 243.835532 122.045046 
L 246.074627 120.884368 
L 248.289306 125.836554 
L 250.401956 136.728057 
L 252.33854 153.177187 
L 254.031192 174.607492 
L 255.967776 191.056622 
L 258.080426 201.948124 
L 260.295105 206.90031 
L 262.5342 205.739632 
L 264.719243 198.506766 
L 266.77366 185.455184 
L 268.625455 167.042275 
L 270.209732 143.913311 
L 272.061526 125.500402 
L 274.115943 112.44882 
L 276.300986 105.215954 
L 278.540081 104.055276 
L 280.75476 109.007462 
L 282.86741 119.898965 
L 284.803995 136.348095 
L 286.496646 157.778399 
L 288.43323 174.22753 
L 290.54588 185.119032 
L 292.760559 190.071218 
L 294.999654 188.91054 
L 297.184697 181.677674 
L 299.239114 168.626092 
L 301.090909 150.213183 
L 302.675186 127.084219 
L 304.526981 108.67131 
L 306.581398 95.619728 
L 308.766441 88.386862 
L 311.005536 87.226184 
L 313.220215 92.17837 
L 315.332865 103.069872 
L 317.269449 119.519003 
L 318.962101 140.949307 
L 320.898685 157.398438 
L 323.011335 168.28994 
L 325.226014 173.242126 
L 327.465109 172.081448 
L 329.650152 164.848582 
L 331.704569 151.797 
L 333.556364 133.384091 
L 335.140641 110.255127 
L 336.992435 91.842218 
L 339.046852 78.790636 
L 341.231896 71.55777 
L 343.470991 70.397092 
L 345.685669 75.349278 
L 347.798319 86.24078 
L 349.734904 102.689911 
L 351.427555 124.120215 
L 353.364139 140.569346 
L 355.476789 151.460848 
L 357.691468 156.413034 
L 359.930563 155.252356 
L 362.115606 148.01949 
L 364.170023 134.967908 
L 366.021818 116.554999 
L 367.606095 93.426035 
L 369.45789 75.013126 
L 371.512307 61.961544 
L 373.69735 54.728678 
L 375.936445 53.568 
L 378.151124 58.520186 
L 380.263774 69.411688 
L 382.200358 85.860819 
L 383.89301 107.291123 
L 385.829594 123.740254 
L 387.942244 134.631756 
L 390.156923 139.583942 
L 392.396018 138.423264 
L 394.581061 131.190398 
L 396.635478 118.138816 
L 398.487273 99.725907 
L 398.487273 99.725907 
" clip-path="url(#p0defc4c2e1)" style="fill: none; stroke: #1f77b4; stroke-width: 1.5; stroke-linecap: square"/>
   </g>
   <g id="line2d_17">
    <defs>
     <path id="m34396c075e" d="M 0 3 
C 0.795609 3 1.55874 2.683901 2.12132 2.12132 
C 2.683901 1.55874 3 0.795609 3 0 
C 3 -0.795609 2.683901 -1.55874 2.12132 -2.12132 
C 1.55874 -2.683901 0.795609 -3 0 -3 
C -0.795609 -3 -1.55874 -2.683901 -2.12132 -2.12132 
C -2.683901 -1.55874 -3 -0.795609 -3 0 
C -3 0.795609 -2.683901 1.55874 -2.12132 2.12132 
C -1.55874 2.683901 -0.795609 3 0 3 
z
" style="stroke: #ff0000"/>
    </defs>
    <g clip-path="url(#p0defc4c2e1)">
     <use xlink:href="#m34396c075e" x="76.073233" y="268.016827" style="fill: #ff0000; stroke: #ff0000"/>
    </g>
   </g>
   <g id="line2d_18">
    <g clip-path="url(#p0defc4c2e1)">
     <use xlink:href="#m34396c075e" x="78.240587" y="259.72687" style="fill: #ff0000; stroke: #ff0000"/>
    </g>
   </g>
   <g id="line2d_19">
    <g clip-path="url(#p0defc4c2e1)">
     <use xlink:href="#m34396c075e" x="80.193262" y="243.688286" style="fill: #ff0000; stroke: #ff0000"/>
    </g>
   </g>
   <g id="line2d_20">
    <g clip-path="url(#p0defc4c2e1)">
     <use xlink:href="#m34396c075e" x="82.048794" y="225.355741" style="fill: #ff0000; stroke: #ff0000"/>
    </g>
   </g>
   <g id="line2d_21">
    <g clip-path="url(#p0defc4c2e1)">
     <use xlink:href="#m34396c075e" x="84.162001" y="214.487288" style="fill: #ff0000; stroke: #ff0000"/>
    </g>
   </g>
   <g id="line2d_22">
    <g clip-path="url(#p0defc4c2e1)">
     <use xlink:href="#m34396c075e" x="86.394891" y="211.792633" style="fill: #ff0000; stroke: #ff0000"/>
    </g>
   </g>
   <g id="line2d_23">
    <g clip-path="url(#p0defc4c2e1)">
     <use xlink:href="#m34396c075e" x="88.601658" y="217.447737" style="fill: #ff0000; stroke: #ff0000"/>
    </g>
   </g>
   <g id="line2d_24">
    <g clip-path="url(#p0defc4c2e1)">
     <use xlink:href="#m34396c075e" x="90.6382" y="231.083322" style="fill: #ff0000; stroke: #ff0000"/>
    </g>
   </g>
   <g id="line2d_25">
    <g clip-path="url(#p0defc4c2e1)">
     <use xlink:href="#m34396c075e" x="92.371532" y="251.80899" style="fill: #ff0000; stroke: #ff0000"/>
    </g>
   </g>
   <g id="line2d_26">
    <g clip-path="url(#p0defc4c2e1)">
     <use xlink:href="#m34396c075e" x="94.043128" y="273.588693" style="fill: #ff0000; stroke: #ff0000"/>
    </g>
   </g>
   <g id="line2d_27">
    <g clip-path="url(#p0defc4c2e1)">
     <use xlink:href="#m34396c075e" x="96.038248" y="288.472328" style="fill: #ff0000; stroke: #ff0000"/>
    </g>
   </g>
   <g id="line2d_28">
    <g clip-path="url(#p0defc4c2e1)">
     <use xlink:href="#m34396c075e" x="98.226611" y="295.488" style="fill: #ff0000; stroke: #ff0000"/>
    </g>
   </g>
   <g id="line2d_29">
    <g clip-path="url(#p0defc4c2e1)">
     <use xlink:href="#m34396c075e" x="100.465318" y="294.177594" style="fill: #ff0000; stroke: #ff0000"/>
    </g>
   </g>
   <g id="line2d_30">
    <g clip-path="url(#p0defc4c2e1)">
     <use xlink:href="#m34396c075e" x="102.608184" y="284.6267" style="fill: #ff0000; stroke: #ff0000"/>
    </g>
   </g>
   <g id="line2d_31">
    <g clip-path="url(#p0defc4c2e1)">
     <use xlink:href="#m34396c075e" x="104.599656" y="269.639304" style="fill: #ff0000; stroke: #ff0000"/>
    </g>
   </g>
   <g id="line2d_32">
    <g clip-path="url(#p0defc4c2e1)">
     <use xlink:href="#m34396c075e" x="106.447884" y="251.150164" style="fill: #ff0000; stroke: #ff0000"/>
    </g>
   </g>
   <g id="line2d_33">
    <g clip-path="url(#p0defc4c2e1)">
     <use xlink:href="#m34396c075e" x="107.914795" y="226.426232" style="fill: #ff0000; stroke: #ff0000"/>
    </g>
   </g>
   <g id="line2d_34">
    <g clip-path="url(#p0defc4c2e1)">
     <use xlink:href="#m34396c075e" x="109.763015" y="207.936937" style="fill: #ff0000; stroke: #ff0000"/>
    </g>
   </g>
   <g id="line2d_35">
    <g clip-path="url(#p0defc4c2e1)">
     <use xlink:href="#m34396c075e" x="111.835844" y="195.521304" style="fill: #ff0000; stroke: #ff0000"/>
    </g>
   </g>
   <g id="line2d_36">
    <g clip-path="url(#p0defc4c2e1)">
     <use xlink:href="#m34396c075e" x="114.024325" y="188.513474" style="fill: #ff0000; stroke: #ff0000"/>
    </g>
   </g>
   <g id="line2d_37">
    <g clip-path="url(#p0defc4c2e1)">
     <use xlink:href="#m34396c075e" x="116.264003" y="187.624498" style="fill: #ff0000; stroke: #ff0000"/>
    </g>
   </g>
   <g id="line2d_38">
    <g clip-path="url(#p0defc4c2e1)">
     <use xlink:href="#m34396c075e" x="118.476368" y="192.792461" style="fill: #ff0000; stroke: #ff0000"/>
    </g>
   </g>
   <g id="line2d_39">
    <g clip-path="url(#p0defc4c2e1)">
     <use xlink:href="#m34396c075e" x="120.584633" y="203.863572" style="fill: #ff0000; stroke: #ff0000"/>
    </g>
   </g>
   <g id="line2d_40">
    <g clip-path="url(#p0defc4c2e1)">
     <use xlink:href="#m34396c075e" x="122.516958" y="220.419118" style="fill: #ff0000; stroke: #ff0000"/>
    </g>
   </g>
   <g id="line2d_41">
    <g clip-path="url(#p0defc4c2e1)">
     <use xlink:href="#m34396c075e" x="124.174682" y="242.423637" style="fill: #ff0000; stroke: #ff0000"/>
    </g>
   </g>
   <g id="line2d_42">
    <g clip-path="url(#p0defc4c2e1)">
     <use xlink:href="#m34396c075e" x="126.116875" y="258.731217" style="fill: #ff0000; stroke: #ff0000"/>
    </g>
   </g>
   <g id="line2d_43">
    <g clip-path="url(#p0defc4c2e1)">
     <use xlink:href="#m34396c075e" x="128.231524" y="269.539723" style="fill: #ff0000; stroke: #ff0000"/>
    </g>
   </g>
   <g id="line2d_44">
    <g clip-path="url(#p0defc4c2e1)">
     <use xlink:href="#m34396c075e" x="130.446997" y="274.415643" style="fill: #ff0000; stroke: #ff0000"/>
    </g>
   </g>
   <g id="line2d_45">
    <g clip-path="url(#p0defc4c2e1)">
     <use xlink:href="#m34396c075e" x="132.685929" y="273.189762" style="fill: #ff0000; stroke: #ff0000"/>
    </g>
   </g>
   <g id="line2d_46">
    <g clip-path="url(#p0defc4c2e1)">
     <use xlink:href="#m34396c075e" x="134.870131" y="265.902988" style="fill: #ff0000; stroke: #ff0000"/>
    </g>
   </g>
   <g id="line2d_47">
    <g clip-path="url(#p0defc4c2e1)">
     <use xlink:href="#m34396c075e" x="136.923265" y="252.808427" style="fill: #ff0000; stroke: #ff0000"/>
    </g>
   </g>
   <g id="line2d_48">
    <g clip-path="url(#p0defc4c2e1)">
     <use xlink:href="#m34396c075e" x="138.773603" y="234.364349" style="fill: #ff0000; stroke: #ff0000"/>
    </g>
   </g>
   <g id="line2d_49">
    <g clip-path="url(#p0defc4c2e1)">
     <use xlink:href="#m34396c075e" x="140.34906" y="211.107322" style="fill: #ff0000; stroke: #ff0000"/>
    </g>
   </g>
   <g id="line2d_50">
    <g clip-path="url(#p0defc4c2e1)">
     <use xlink:href="#m34396c075e" x="142.202056" y="192.720207" style="fill: #ff0000; stroke: #ff0000"/>
    </g>
   </g>
   <g id="line2d_51">
    <g clip-path="url(#p0defc4c2e1)">
     <use xlink:href="#m34396c075e" x="144.257119" y="179.6903" style="fill: #ff0000; stroke: #ff0000"/>
    </g>
   </g>
   <g id="line2d_52">
    <g clip-path="url(#p0defc4c2e1)">
     <use xlink:href="#m34396c075e" x="146.442465" y="172.476972" style="fill: #ff0000; stroke: #ff0000"/>
    </g>
   </g>
   <g id="line2d_53">
    <g clip-path="url(#p0defc4c2e1)">
     <use xlink:href="#m34396c075e" x="148.681601" y="171.333235" style="fill: #ff0000; stroke: #ff0000"/>
    </g>
   </g>
   <g id="line2d_54">
    <g clip-path="url(#p0defc4c2e1)">
     <use xlink:href="#m34396c075e" x="150.896131" y="176.2996" style="fill: #ff0000; stroke: #ff0000"/>
    </g>
   </g>
   <g id="line2d_55">
    <g clip-path="url(#p0defc4c2e1)">
     <use xlink:href="#m34396c075e" x="153.008504" y="187.202548" style="fill: #ff0000; stroke: #ff0000"/>
    </g>
   </g>
   <g id="line2d_56">
    <g clip-path="url(#p0defc4c2e1)">
     <use xlink:href="#m34396c075e" x="154.944738" y="203.660468" style="fill: #ff0000; stroke: #ff0000"/>
    </g>
   </g>
   <g id="line2d_57">
    <g clip-path="url(#p0defc4c2e1)">
     <use xlink:href="#m34396c075e" x="156.635304" y="225.12583" style="fill: #ff0000; stroke: #ff0000"/>
    </g>
   </g>
   <g id="line2d_58">
    <g clip-path="url(#p0defc4c2e1)">
     <use xlink:href="#m34396c075e" x="158.572146" y="241.56847" style="fill: #ff0000; stroke: #ff0000"/>
    </g>
   </g>
   <g id="line2d_59">
    <g clip-path="url(#p0defc4c2e1)">
     <use xlink:href="#m34396c075e" x="160.684938" y="252.454133" style="fill: #ff0000; stroke: #ff0000"/>
    </g>
   </g>
   <g id="line2d_60">
    <g clip-path="url(#p0defc4c2e1)">
     <use xlink:href="#m34396c075e" x="162.899671" y="257.401139" style="fill: #ff0000; stroke: #ff0000"/>
    </g>
   </g>
   <g id="line2d_61">
    <g clip-path="url(#p0defc4c2e1)">
     <use xlink:href="#m34396c075e" x="165.138755" y="256.236032" style="fill: #ff0000; stroke: #ff0000"/>
    </g>
   </g>
   <g id="line2d_62">
    <g clip-path="url(#p0defc4c2e1)">
     <use xlink:href="#m34396c075e" x="167.323741" y="248.99951" style="fill: #ff0000; stroke: #ff0000"/>
    </g>
   </g>
   <g id="line2d_63">
    <g clip-path="url(#p0defc4c2e1)">
     <use xlink:href="#m34396c075e" x="169.378072" y="235.945021" style="fill: #ff0000; stroke: #ff0000"/>
    </g>
   </g>
   <g id="line2d_64">
    <g clip-path="url(#p0defc4c2e1)">
     <use xlink:href="#m34396c075e" x="171.229762" y="217.529879" style="fill: #ff0000; stroke: #ff0000"/>
    </g>
   </g>
   <g id="line2d_65">
    <g clip-path="url(#p0defc4c2e1)">
     <use xlink:href="#m34396c075e" x="172.813455" y="194.392388" style="fill: #ff0000; stroke: #ff0000"/>
    </g>
   </g>
   <g id="line2d_66">
    <g clip-path="url(#p0defc4c2e1)">
     <use xlink:href="#m34396c075e" x="174.665323" y="175.981055" style="fill: #ff0000; stroke: #ff0000"/>
    </g>
   </g>
   <g id="line2d_67">
    <g clip-path="url(#p0defc4c2e1)">
     <use xlink:href="#m34396c075e" x="176.719785" y="162.93096" style="fill: #ff0000; stroke: #ff0000"/>
    </g>
   </g>
   <g id="line2d_68">
    <g clip-path="url(#p0defc4c2e1)">
     <use xlink:href="#m34396c075e" x="178.904849" y="155.699433" style="fill: #ff0000; stroke: #ff0000"/>
    </g>
   </g>
   <g id="line2d_69">
    <g clip-path="url(#p0defc4c2e1)">
     <use xlink:href="#m34396c075e" x="181.143946" y="154.539915" style="fill: #ff0000; stroke: #ff0000"/>
    </g>
   </g>
   <g id="line2d_70">
    <g clip-path="url(#p0defc4c2e1)">
     <use xlink:href="#m34396c075e" x="183.358615" y="159.493071" style="fill: #ff0000; stroke: #ff0000"/>
    </g>
   </g>
   <g id="line2d_71">
    <g clip-path="url(#p0defc4c2e1)">
     <use xlink:href="#m34396c075e" x="185.471246" y="170.385356" style="fill: #ff0000; stroke: #ff0000"/>
    </g>
   </g>
   <g id="line2d_72">
    <g clip-path="url(#p0defc4c2e1)">
     <use xlink:href="#m34396c075e" x="187.407805" y="186.835116" style="fill: #ff0000; stroke: #ff0000"/>
    </g>
   </g>
   <g id="line2d_73">
    <g clip-path="url(#p0defc4c2e1)">
     <use xlink:href="#m34396c075e" x="189.100317" y="208.267782" style="fill: #ff0000; stroke: #ff0000"/>
    </g>
   </g>
   <g id="line2d_74">
    <g clip-path="url(#p0defc4c2e1)">
     <use xlink:href="#m34396c075e" x="191.036917" y="224.716499" style="fill: #ff0000; stroke: #ff0000"/>
    </g>
   </g>
   <g id="line2d_75">
    <g clip-path="url(#p0defc4c2e1)">
     <use xlink:href="#m34396c075e" x="193.149577" y="235.6076" style="fill: #ff0000; stroke: #ff0000"/>
    </g>
   </g>
   <g id="line2d_76">
    <g clip-path="url(#p0defc4c2e1)">
     <use xlink:href="#m34396c075e" x="195.36426" y="240.55943" style="fill: #ff0000; stroke: #ff0000"/>
    </g>
   </g>
   <g id="line2d_77">
    <g clip-path="url(#p0defc4c2e1)">
     <use xlink:href="#m34396c075e" x="197.603354" y="239.398448" style="fill: #ff0000; stroke: #ff0000"/>
    </g>
   </g>
   <g id="line2d_78">
    <g clip-path="url(#p0defc4c2e1)">
     <use xlink:href="#m34396c075e" x="199.788393" y="232.165331" style="fill: #ff0000; stroke: #ff0000"/>
    </g>
   </g>
   <g id="line2d_79">
    <g clip-path="url(#p0defc4c2e1)">
     <use xlink:href="#m34396c075e" x="201.842804" y="219.11355" style="fill: #ff0000; stroke: #ff0000"/>
    </g>
   </g>
   <g id="line2d_80">
    <g clip-path="url(#p0defc4c2e1)">
     <use xlink:href="#m34396c075e" x="203.694591" y="200.700466" style="fill: #ff0000; stroke: #ff0000"/>
    </g>
   </g>
   <g id="line2d_81">
    <g clip-path="url(#p0defc4c2e1)">
     <use xlink:href="#m34396c075e" x="205.27883" y="177.570945" style="fill: #ff0000; stroke: #ff0000"/>
    </g>
   </g>
   <g id="line2d_82">
    <g clip-path="url(#p0defc4c2e1)">
     <use xlink:href="#m34396c075e" x="207.130628" y="159.158124" style="fill: #ff0000; stroke: #ff0000"/>
    </g>
   </g>
   <g id="line2d_83">
    <g clip-path="url(#p0defc4c2e1)">
     <use xlink:href="#m34396c075e" x="209.185049" y="146.106645" style="fill: #ff0000; stroke: #ff0000"/>
    </g>
   </g>
   <g id="line2d_84">
    <g clip-path="url(#p0defc4c2e1)">
     <use xlink:href="#m34396c075e" x="211.370093" y="138.873871" style="fill: #ff0000; stroke: #ff0000"/>
    </g>
   </g>
   <g id="line2d_85">
    <g clip-path="url(#p0defc4c2e1)">
     <use xlink:href="#m34396c075e" x="213.609188" y="137.713273" style="fill: #ff0000; stroke: #ff0000"/>
    </g>
   </g>
   <g id="line2d_86">
    <g clip-path="url(#p0defc4c2e1)">
     <use xlink:href="#m34396c075e" x="215.823866" y="142.665526" style="fill: #ff0000; stroke: #ff0000"/>
    </g>
   </g>
   <g id="line2d_87">
    <g clip-path="url(#p0defc4c2e1)">
     <use xlink:href="#m34396c075e" x="217.936515" y="153.557082" style="fill: #ff0000; stroke: #ff0000"/>
    </g>
   </g>
   <g id="line2d_88">
    <g clip-path="url(#p0defc4c2e1)">
     <use xlink:href="#m34396c075e" x="219.873097" y="170.006277" style="fill: #ff0000; stroke: #ff0000"/>
    </g>
   </g>
   <g id="line2d_89">
    <g clip-path="url(#p0defc4c2e1)">
     <use xlink:href="#m34396c075e" x="221.56574" y="191.436716" style="fill: #ff0000; stroke: #ff0000"/>
    </g>
   </g>
   <g id="line2d_90">
    <g clip-path="url(#p0defc4c2e1)">
     <use xlink:href="#m34396c075e" x="223.502325" y="207.885837" style="fill: #ff0000; stroke: #ff0000"/>
    </g>
   </g>
   <g id="line2d_91">
    <g clip-path="url(#p0defc4c2e1)">
     <use xlink:href="#m34396c075e" x="225.614976" y="218.777312" style="fill: #ff0000; stroke: #ff0000"/>
    </g>
   </g>
   <g id="line2d_92">
    <g clip-path="url(#p0defc4c2e1)">
     <use xlink:href="#m34396c075e" x="227.829655" y="223.729473" style="fill: #ff0000; stroke: #ff0000"/>
    </g>
   </g>
   <g id="line2d_93">
    <g clip-path="url(#p0defc4c2e1)">
     <use xlink:href="#m34396c075e" x="230.06875" y="222.568774" style="fill: #ff0000; stroke: #ff0000"/>
    </g>
   </g>
   <g id="line2d_94">
    <g clip-path="url(#p0defc4c2e1)">
     <use xlink:href="#m34396c075e" x="232.253792" y="215.33589" style="fill: #ff0000; stroke: #ff0000"/>
    </g>
   </g>
   <g id="line2d_95">
    <g clip-path="url(#p0defc4c2e1)">
     <use xlink:href="#m34396c075e" x="234.308209" y="202.284295" style="fill: #ff0000; stroke: #ff0000"/>
    </g>
   </g>
   <g id="line2d_96">
    <g clip-path="url(#p0defc4c2e1)">
     <use xlink:href="#m34396c075e" x="236.160002" y="183.871353" style="fill: #ff0000; stroke: #ff0000"/>
    </g>
   </g>
   <g id="line2d_97">
    <g clip-path="url(#p0defc4c2e1)">
     <use xlink:href="#m34396c075e" x="237.744279" y="160.742377" style="fill: #ff0000; stroke: #ff0000"/>
    </g>
   </g>
   <g id="line2d_98">
    <g clip-path="url(#p0defc4c2e1)">
     <use xlink:href="#m34396c075e" x="239.596073" y="142.329455" style="fill: #ff0000; stroke: #ff0000"/>
    </g>
   </g>
   <g id="line2d_99">
    <g clip-path="url(#p0defc4c2e1)">
     <use xlink:href="#m34396c075e" x="241.65049" y="129.27788" style="fill: #ff0000; stroke: #ff0000"/>
    </g>
   </g>
   <g id="line2d_100">
    <g clip-path="url(#p0defc4c2e1)">
     <use xlink:href="#m34396c075e" x="243.835533" y="122.045021" style="fill: #ff0000; stroke: #ff0000"/>
    </g>
   </g>
   <g id="line2d_101">
    <g clip-path="url(#p0defc4c2e1)">
     <use xlink:href="#m34396c075e" x="246.074628" y="120.884349" style="fill: #ff0000; stroke: #ff0000"/>
    </g>
   </g>
   <g id="line2d_102">
    <g clip-path="url(#p0defc4c2e1)">
     <use xlink:href="#m34396c075e" x="248.289307" y="125.83654" style="fill: #ff0000; stroke: #ff0000"/>
    </g>
   </g>
   <g id="line2d_103">
    <g clip-path="url(#p0defc4c2e1)">
     <use xlink:href="#m34396c075e" x="250.401957" y="136.728046" style="fill: #ff0000; stroke: #ff0000"/>
    </g>
   </g>
   <g id="line2d_104">
    <g clip-path="url(#p0defc4c2e1)">
     <use xlink:href="#m34396c075e" x="252.33854" y="153.177202" style="fill: #ff0000; stroke: #ff0000"/>
    </g>
   </g>
   <g id="line2d_105">
    <g clip-path="url(#p0defc4c2e1)">
     <use xlink:href="#m34396c075e" x="254.031193" y="174.607488" style="fill: #ff0000; stroke: #ff0000"/>
    </g>
   </g>
   <g id="line2d_106">
    <g clip-path="url(#p0defc4c2e1)">
     <use xlink:href="#m34396c075e" x="255.967776" y="191.056638" style="fill: #ff0000; stroke: #ff0000"/>
    </g>
   </g>
   <g id="line2d_107">
    <g clip-path="url(#p0defc4c2e1)">
     <use xlink:href="#m34396c075e" x="258.080426" y="201.948138" style="fill: #ff0000; stroke: #ff0000"/>
    </g>
   </g>
   <g id="line2d_108">
    <g clip-path="url(#p0defc4c2e1)">
     <use xlink:href="#m34396c075e" x="260.295105" y="206.900321" style="fill: #ff0000; stroke: #ff0000"/>
    </g>
   </g>
   <g id="line2d_109">
    <g clip-path="url(#p0defc4c2e1)">
     <use xlink:href="#m34396c075e" x="262.5342" y="205.739642" style="fill: #ff0000; stroke: #ff0000"/>
    </g>
   </g>
   <g id="line2d_110">
    <g clip-path="url(#p0defc4c2e1)">
     <use xlink:href="#m34396c075e" x="264.719243" y="198.506774" style="fill: #ff0000; stroke: #ff0000"/>
    </g>
   </g>
   <g id="line2d_111">
    <g clip-path="url(#p0defc4c2e1)">
     <use xlink:href="#m34396c075e" x="266.77366" y="185.455192" style="fill: #ff0000; stroke: #ff0000"/>
    </g>
   </g>
   <g id="line2d_112">
    <g clip-path="url(#p0defc4c2e1)">
     <use xlink:href="#m34396c075e" x="268.625454" y="167.042259" style="fill: #ff0000; stroke: #ff0000"/>
    </g>
   </g>
   <g id="line2d_113">
    <g clip-path="url(#p0defc4c2e1)">
     <use xlink:href="#m34396c075e" x="270.209733" y="143.913321" style="fill: #ff0000; stroke: #ff0000"/>
    </g>
   </g>
   <g id="line2d_114">
    <g clip-path="url(#p0defc4c2e1)">
     <use xlink:href="#m34396c075e" x="272.061527" y="125.500392" style="fill: #ff0000; stroke: #ff0000"/>
    </g>
   </g>
   <g id="line2d_115">
    <g clip-path="url(#p0defc4c2e1)">
     <use xlink:href="#m34396c075e" x="274.115944" y="112.448811" style="fill: #ff0000; stroke: #ff0000"/>
    </g>
   </g>
   <g id="line2d_116">
    <g clip-path="url(#p0defc4c2e1)">
     <use xlink:href="#m34396c075e" x="276.300987" y="105.215946" style="fill: #ff0000; stroke: #ff0000"/>
    </g>
   </g>
   <g id="patch_3">
    <path d="M 57.6 307.584 
L 57.6 41.472 
" style="fill: none; stroke: #000000; stroke-width: 0.8; stroke-linejoin: miter; stroke-linecap: square"/>
   </g>
   <g id="patch_4">
    <path d="M 414.72 307.584 
L 414.72 41.472 
" style="fill: none; stroke: #000000; stroke-width: 0.8; stroke-linejoin: miter; stroke-linecap: square"/>
   </g>
   <g id="patch_5">
    <path d="M 57.6 307.584 
L 414.72 307.584 
" style="fill: none; stroke: #000000; stroke-width: 0.8; stroke-linejoin: miter; stroke-linecap: square"/>
   </g>
   <g id="patch_6">
    <path d="M 57.6 41.472 
L 414.72 41.472 
" style="fill: none; stroke: #000000; stroke-width: 0.8; stroke-linejoin: miter; stroke-linecap: square"/>
   </g>
   <g id="text_16">
    <!-- Vehicle Path -->
    <g transform="translate(199.615312 35.472)scale(0.12 -0.12)">
     <defs>
      <path id="DejaVuSans-56" d="M 1831 0 
L 50 4666 
L 709 4666 
L 2188 738 
L 3669 4666 
L 4325 4666 
L 2547 0 
L 1831 0 
z
" transform="scale(0.015625)"/>
      <path id="DejaVuSans-65" d="M 3597 1894 
L 3597 1613 
L 953 1613 
Q 991 1019 1311 708 
Q 1631 397 2203 397 
Q 2534 397 2845 478 
Q 3156 559 3463 722 
L 3463 178 
Q 3153 47 2828 -22 
Q 2503 -91 2169 -91 
Q 1331 -91 842 396 
Q 353 884 353 1716 
Q 353 2575 817 3079 
Q 1281 3584 2069 3584 
Q 2775 3584 3186 3129 
Q 3597 2675 3597 1894 
z
M 3022 2063 
Q 3016 2534 2758 2815 
Q 2500 3097 2075 3097 
Q 1594 3097 1305 2825 
Q 1016 2553 972 2059 
L 3022 2063 
z
" transform="scale(0.015625)"/>
      <path id="DejaVuSans-68" d="M 3513 2113 
L 3513 0 
L 2938 0 
L 2938 2094 
Q 2938 2591 2744 2837 
Q 2550 3084 2163 3084 
Q 1697 3084 1428 2787 
Q 1159 2491 1159 1978 
L 1159 0 
L 581 0 
L 581 4863 
L 1159 4863 
L 1159 2956 
Q 1366 3272 1645 3428 
Q 1925 3584 2291 3584 
Q 2894 3584 3203 3211 
Q 3513 2838 3513 2113 
z
" transform="scale(0.015625)"/>
      <path id="DejaVuSans-69" d="M 603 3500 
L 1178 3500 
L 1178 0 
L 603 0 
L 603 3500 
z
M 603 4863 
L 1178 4863 
L 1178 4134 
L 603 4134 
L 603 4863 
z
" transform="scale(0.015625)"/>
      <path id="DejaVuSans-63" d="M 3122 3366 
L 3122 2828 
Q 2878 2963 2633 3030 
Q 2388 3097 2138 3097 
Q 1578 3097 1268 2742 
Q 959 2388 959 1747 
Q 959 1106 1268 751 
Q 1578 397 2138 397 
Q 2388 397 2633 464 
Q 2878 531 3122 666 
L 3122 134 
Q 2881 22 2623 -34 
Q 2366 -91 2075 -91 
Q 1284 -91 818 406 
Q 353 903 353 1747 
Q 353 2603 823 3093 
Q 1294 3584 2113 3584 
Q 2378 3584 2631 3529 
Q 2884 3475 3122 3366 
z
" transform="scale(0.015625)"/>
      <path id="DejaVuSans-6c" d="M 603 4863 
L 1178 4863 
L 1178 0 
L 603 0 
L 603 4863 
z
" transform="scale(0.015625)"/>
      <path id="DejaVuSans-20" transform="scale(0.015625)"/>
      <path id="DejaVuSans-50" d="M 1259 4147 
L 1259 2394 
L 2053 2394 
Q 2494 2394 2734 2622 
Q 2975 2850 2975 3272 
Q 2975 3691 2734 3919 
Q 2494 4147 2053 4147 
L 1259 4147 
z
M 628 4666 
L 2053 4666 
Q 2838 4666 3239 4311 
Q 3641 3956 3641 3272 
Q 3641 2581 3239 2228 
Q 2838 1875 2053 1875 
L 1259 1875 
L 1259 0 
L 628 0 
L 628 4666 
z
" transform="scale(0.015625)"/>
      <path id="DejaVuSans-61" d="M 2194 1759 
Q 1497 1759 1228 1600 
Q 959 1441 959 1056 
Q 959 750 1161 570 
Q 1363 391 1709 391 
Q 2188 391 2477 730 
Q 2766 1069 2766 1631 
L 2766 1759 
L 2194 1759 
z
M 3341 1997 
L 3341 0 
L 2766 0 
L 2766 531 
Q 2569 213 2275 61 
Q 1981 -91 1556 -91 
Q 1019 -91 701 211 
Q 384 513 384 1019 
Q 384 1609 779 1909 
Q 1175 2209 1959 2209 
L 2766 2209 
L 2766 2266 
Q 2766 2663 2505 2880 
Q 2244 3097 1772 3097 
Q 1472 3097 1187 3025 
Q 903 2953 641 2809 
L 641 3341 
Q 956 3463 1253 3523 
Q 1550 3584 1831 3584 
Q 2591 3584 2966 3190 
Q 3341 2797 3341 1997 
z
" transform="scale(0.015625)"/>
      <path id="DejaVuSans-74" d="M 1172 4494 
L 1172 3500 
L 2356 3500 
L 2356 3053 
L 1172 3053 
L 1172 1153 
Q 1172 725 1289 603 
Q 1406 481 1766 481 
L 2356 481 
L 2356 0 
L 1766 0 
Q 1100 0 847 248 
Q 594 497 594 1153 
L 594 3053 
L 172 3053 
L 172 3500 
L 594 3500 
L 594 4494 
L 1172 4494 
z
" transform="scale(0.015625)"/>
     </defs>
     <use xlink:href="#DejaVuSans-56"/>
     <use xlink:href="#DejaVuSans-65" x="60.658203"/>
     <use xlink:href="#DejaVuSans-68" x="122.181641"/>
     <use xlink:href="#DejaVuSans-69" x="185.560547"/>
     <use xlink:href="#DejaVuSans-63" x="213.34375"/>
     <use xlink:href="#DejaVuSans-6c" x="268.324219"/>
     <use xlink:href="#DejaVuSans-65" x="296.107422"/>
     <use xlink:href="#DejaVuSans-20" x="357.630859"/>
     <use xlink:href="#DejaVuSans-50" x="389.417969"/>
     <use xlink:href="#DejaVuSans-61" x="445.220703"/>
     <use xlink:href="#DejaVuSans-74" x="506.5"/>
     <use xlink:href="#DejaVuSans-68" x="545.708984"/>
    </g>
   </g>
  </g>
 </g>
 <defs>
  <clipPath id="p0defc4c2e1">
   <rect x="57.6" y="41.472" width="357.12" height="266.112"/>
  </clipPath>
 </defs>
</svg>
