<?xml version="1.0" encoding="utf-8" standalone="no"?>
<!DOCTYPE svg PUBLIC "-//W3C//DTD SVG 1.1//EN"
  "http://www.w3.org/Graphics/SVG/1.1/DTD/svg11.dtd">
<svg xmlns:xlink="http://www.w3.org/1999/xlink" width="460.8pt" height="345.6pt" viewBox="0 0 460.8 345.6" xmlns="http://www.w3.org/2000/svg" version="1.1">
 <metadata>
  <rdf:RDF xmlns:dc="http://purl.org/dc/elements/1.1/" xmlns:cc="http://creativecommons.org/ns#" xmlns:rdf="http://www.w3.org/1999/02/22-rdf-syntax-ns#">
   <cc:Work>
    <dc:type rdf:resource="http://purl.org/dc/dcmitype/StillImage"/>
    <dc:date>2023-04-04T11:28:01.972361</dc:date>
    <dc:format>image/svg+xml</dc:format>
    <dc:creator>
     <cc:Agent>
      <dc:title>Matplotlib v3.5.1, https://matplotlib.org/</dc:title>
     </cc:Agent>
    </dc:creator>
   </cc:Work>
  </rdf:RDF>
 </metadata>
 <defs>
  <style type="text/css">*{stroke-linejoin: round; stroke-linecap: butt}</style>
 </defs>
 <g id="figure_1">
  <g id="patch_1">
   <path d="M 0 345.6 
L 460.8 345.6 
L 460.8 0 
L 0 0 
z
" style="fill: #ffffff"/>
  </g>
  <g id="axes_1">
   <g id="patch_2">
    <path d="M 57.6 307.584 
L 414.72 307.584 
L 414.72 41.472 
L 57.6 41.472 
z
" style="fill: #ffffff"/>
   </g>
   <g id="matplotlib.axis_1">
    <g id="xtick_1">
     <g id="line2d_1">
      <defs>
       <path id="mc68187b1e6" d="M 0 0 
L 0 3.5 
" style="stroke: #000000; stroke-width: 0.8"/>
      </defs>
      <g>
       <use xlink:href="#mc68187b1e6" x="73.832727" y="307.584" style="stroke: #000000; stroke-width: 0.8"/>
      </g>
     </g>
     <g id="text_1">
      <!-- 0 -->
      <g transform="translate(70.651477 322.182437)scale(0.1 -0.1)">
       <defs>
        <path id="DejaVuSans-30" d="M 2034 4250 
Q 1547 4250 1301 3770 
Q 1056 3291 1056 2328 
Q 1056 1369 1301 889 
Q 1547 409 2034 409 
Q 2525 409 2770 889 
Q 3016 1369 3016 2328 
Q 3016 3291 2770 3770 
Q 2525 4250 2034 4250 
z
M 2034 4750 
Q 2819 4750 3233 4129 
Q 3647 3509 3647 2328 
Q 3647 1150 3233 529 
Q 2819 -91 2034 -91 
Q 1250 -91 836 529 
Q 422 1150 422 2328 
Q 422 3509 836 4129 
Q 1250 4750 2034 4750 
z
" transform="scale(0.015625)"/>
       </defs>
       <use xlink:href="#DejaVuSans-30"/>
      </g>
     </g>
    </g>
    <g id="xtick_2">
     <g id="line2d_2">
      <g>
       <use xlink:href="#mc68187b1e6" x="148.295042" y="307.584" style="stroke: #000000; stroke-width: 0.8"/>
      </g>
     </g>
     <g id="text_2">
      <!-- 5 -->
      <g transform="translate(145.113792 322.182437)scale(0.1 -0.1)">
       <defs>
        <path id="DejaVuSans-35" d="M 691 4666 
L 3169 4666 
L 3169 4134 
L 1269 4134 
L 1269 2991 
Q 1406 3038 1543 3061 
Q 1681 3084 1819 3084 
Q 2600 3084 3056 2656 
Q 3513 2228 3513 1497 
Q 3513 744 3044 326 
Q 2575 -91 1722 -91 
Q 1428 -91 1123 -41 
Q 819 9 494 109 
L 494 744 
Q 775 591 1075 516 
Q 1375 441 1709 441 
Q 2250 441 2565 725 
Q 2881 1009 2881 1497 
Q 2881 1984 2565 2268 
Q 2250 2553 1709 2553 
Q 1456 2553 1204 2497 
Q 953 2441 691 2322 
L 691 4666 
z
" transform="scale(0.015625)"/>
       </defs>
       <use xlink:href="#DejaVuSans-35"/>
      </g>
     </g>
    </g>
    <g id="xtick_3">
     <g id="line2d_3">
      <g>
       <use xlink:href="#mc68187b1e6" x="222.757358" y="307.584" style="stroke: #000000; stroke-width: 0.8"/>
      </g>
     </g>
     <g id="text_3">
      <!-- 10 -->
      <g transform="translate(216.394858 322.182437)scale(0.1 -0.1)">
       <defs>
        <path id="DejaVuSans-31" d="M 794 531 
L 1825 531 
L 1825 4091 
L 703 3866 
L 703 4441 
L 1819 4666 
L 2450 4666 
L 2450 531 
L 3481 531 
L 3481 0 
L 794 0 
L 794 531 
z
" transform="scale(0.015625)"/>
       </defs>
       <use xlink:href="#DejaVuSans-31"/>
       <use xlink:href="#DejaVuSans-30" x="63.623047"/>
      </g>
     </g>
    </g>
    <g id="xtick_4">
     <g id="line2d_4">
      <g>
       <use xlink:href="#mc68187b1e6" x="297.219673" y="307.584" style="stroke: #000000; stroke-width: 0.8"/>
      </g>
     </g>
     <g id="text_4">
      <!-- 15 -->
      <g transform="translate(290.857173 322.182437)scale(0.1 -0.1)">
       <use xlink:href="#DejaVuSans-31"/>
       <use xlink:href="#DejaVuSans-35" x="63.623047"/>
      </g>
     </g>
    </g>
    <g id="xtick_5">
     <g id="line2d_5">
      <g>
       <use xlink:href="#mc68187b1e6" x="371.681988" y="307.584" style="stroke: #000000; stroke-width: 0.8"/>
      </g>
     </g>
     <g id="text_5">
      <!-- 20 -->
      <g transform="translate(365.319488 322.182437)scale(0.1 -0.1)">
       <defs>
        <path id="DejaVuSans-32" d="M 1228 531 
L 3431 531 
L 3431 0 
L 469 0 
L 469 531 
Q 828 903 1448 1529 
Q 2069 2156 2228 2338 
Q 2531 2678 2651 2914 
Q 2772 3150 2772 3378 
Q 2772 3750 2511 3984 
Q 2250 4219 1831 4219 
Q 1534 4219 1204 4116 
Q 875 4013 500 3803 
L 500 4441 
Q 881 4594 1212 4672 
Q 1544 4750 1819 4750 
Q 2544 4750 2975 4387 
Q 3406 4025 3406 3419 
Q 3406 3131 3298 2873 
Q 3191 2616 2906 2266 
Q 2828 2175 2409 1742 
Q 1991 1309 1228 531 
z
" transform="scale(0.015625)"/>
       </defs>
       <use xlink:href="#DejaVuSans-32"/>
       <use xlink:href="#DejaVuSans-30" x="63.623047"/>
      </g>
     </g>
    </g>
   </g>
   <g id="matplotlib.axis_2">
    <g id="ytick_1">
     <g id="line2d_6">
      <defs>
       <path id="m5245de928e" d="M 0 0 
L -3.5 0 
" style="stroke: #000000; stroke-width: 0.8"/>
      </defs>
      <g>
       <use xlink:href="#m5245de928e" x="57.6" y="289.63019" style="stroke: #000000; stroke-width: 0.8"/>
      </g>
     </g>
     <g id="text_6">
      <!-- 0.0 -->
      <g transform="translate(34.696875 293.429409)scale(0.1 -0.1)">
       <defs>
        <path id="DejaVuSans-2e" d="M 684 794 
L 1344 794 
L 1344 0 
L 684 0 
L 684 794 
z
" transform="scale(0.015625)"/>
       </defs>
       <use xlink:href="#DejaVuSans-30"/>
       <use xlink:href="#DejaVuSans-2e" x="63.623047"/>
       <use xlink:href="#DejaVuSans-30" x="95.410156"/>
      </g>
     </g>
    </g>
    <g id="ytick_2">
     <g id="line2d_7">
      <g>
       <use xlink:href="#m5245de928e" x="57.6" y="247.86089" style="stroke: #000000; stroke-width: 0.8"/>
      </g>
     </g>
     <g id="text_7">
      <!-- 0.5 -->
      <g transform="translate(34.696875 251.660109)scale(0.1 -0.1)">
       <use xlink:href="#DejaVuSans-30"/>
       <use xlink:href="#DejaVuSans-2e" x="63.623047"/>
       <use xlink:href="#DejaVuSans-35" x="95.410156"/>
      </g>
     </g>
    </g>
    <g id="ytick_3">
     <g id="line2d_8">
      <g>
       <use xlink:href="#m5245de928e" x="57.6" y="206.09159" style="stroke: #000000; stroke-width: 0.8"/>
      </g>
     </g>
     <g id="text_8">
      <!-- 1.0 -->
      <g transform="translate(34.696875 209.890808)scale(0.1 -0.1)">
       <use xlink:href="#DejaVuSans-31"/>
       <use xlink:href="#DejaVuSans-2e" x="63.623047"/>
       <use xlink:href="#DejaVuSans-30" x="95.410156"/>
      </g>
     </g>
    </g>
    <g id="ytick_4">
     <g id="line2d_9">
      <g>
       <use xlink:href="#m5245de928e" x="57.6" y="164.322289" style="stroke: #000000; stroke-width: 0.8"/>
      </g>
     </g>
     <g id="text_9">
      <!-- 1.5 -->
      <g transform="translate(34.696875 168.121508)scale(0.1 -0.1)">
       <use xlink:href="#DejaVuSans-31"/>
       <use xlink:href="#DejaVuSans-2e" x="63.623047"/>
       <use xlink:href="#DejaVuSans-35" x="95.410156"/>
      </g>
     </g>
    </g>
    <g id="ytick_5">
     <g id="line2d_10">
      <g>
       <use xlink:href="#m5245de928e" x="57.6" y="122.552989" style="stroke: #000000; stroke-width: 0.8"/>
      </g>
     </g>
     <g id="text_10">
      <!-- 2.0 -->
      <g transform="translate(34.696875 126.352208)scale(0.1 -0.1)">
       <use xlink:href="#DejaVuSans-32"/>
       <use xlink:href="#DejaVuSans-2e" x="63.623047"/>
       <use xlink:href="#DejaVuSans-30" x="95.410156"/>
      </g>
     </g>
    </g>
    <g id="ytick_6">
     <g id="line2d_11">
      <g>
       <use xlink:href="#m5245de928e" x="57.6" y="80.783689" style="stroke: #000000; stroke-width: 0.8"/>
      </g>
     </g>
     <g id="text_11">
      <!-- 2.5 -->
      <g transform="translate(34.696875 84.582908)scale(0.1 -0.1)">
       <use xlink:href="#DejaVuSans-32"/>
       <use xlink:href="#DejaVuSans-2e" x="63.623047"/>
       <use xlink:href="#DejaVuSans-35" x="95.410156"/>
      </g>
     </g>
    </g>
   </g>
   <g id="line2d_12">
    <path d="M 73.832727 289.63019 
L 75.93884 277.816048 
L 78.488405 269.178337 
L 81.332755 264.220737 
L 84.306031 263.23233 
L 87.234857 266.270754 
L 89.948449 273.158833 
L 92.288573 283.494913 
L 95.002164 290.382992 
L 97.93099 293.421416 
L 100.904266 292.433009 
L 103.748616 287.475409 
L 106.298182 278.837698 
L 108.404294 267.023556 
L 110.95386 258.385846 
L 113.79821 253.428245 
L 116.771486 252.439838 
L 119.700312 255.478262 
L 122.413903 262.366341 
L 124.754027 272.702421 
L 127.467619 279.5905 
L 130.396445 282.628924 
L 133.369721 281.640518 
L 136.214071 276.682917 
L 138.763636 268.045206 
L 140.869749 256.231064 
L 143.419314 247.593354 
L 146.263664 242.635753 
L 149.23694 241.647347 
L 152.165766 244.68577 
L 154.879358 251.573849 
L 157.219482 261.909929 
L 159.933073 268.798008 
L 162.861899 271.836432 
L 165.835175 270.848026 
L 168.679525 265.890425 
L 171.229091 257.252714 
L 173.335203 245.438572 
L 175.884769 236.800862 
L 178.729119 231.843261 
L 181.702395 230.854855 
L 184.631221 233.893279 
L 187.344812 240.781357 
L 189.684936 251.117437 
L 192.398528 258.005516 
L 195.327354 261.04394 
L 198.30063 260.055534 
L 201.14498 255.097933 
L 203.694545 246.460223 
L 205.800658 234.64608 
L 208.350223 226.00837 
L 211.194573 221.050769 
L 214.167849 220.062363 
L 217.096675 223.100787 
L 219.810267 229.988866 
L 222.150391 240.324945 
L 224.863982 247.213024 
L 227.792808 250.251448 
L 230.766084 249.263042 
L 233.610434 244.305441 
L 236.16 235.667731 
L 238.266112 223.853588 
L 240.815678 215.215878 
L 243.660028 210.258277 
L 246.633304 209.269871 
L 249.56213 212.308295 
L 252.275722 219.196374 
L 254.615845 229.532454 
L 257.329437 236.420532 
L 260.258263 239.458956 
L 263.231539 238.47055 
L 266.075889 233.512949 
L 268.625455 224.875239 
L 270.731567 213.061097 
L 273.281133 204.423386 
L 276.125483 199.465785 
L 279.098759 198.477379 
L 282.027585 201.515803 
L 284.741176 208.403882 
L 287.0813 218.739962 
L 289.794891 225.628041 
L 292.723717 228.666464 
L 295.696993 227.678058 
L 298.541343 222.720457 
L 301.090909 214.082747 
L 303.197021 202.268605 
L 305.746587 193.630894 
L 308.590937 188.673293 
L 311.564213 187.684887 
L 314.493039 190.723311 
L 317.206631 197.61139 
L 319.546754 207.94747 
L 322.260346 214.835549 
L 325.189172 217.873973 
L 328.162448 216.885566 
L 331.006798 211.927965 
L 333.556364 203.290255 
L 335.662476 191.476113 
L 338.212042 182.838402 
L 341.056392 177.880802 
L 344.029668 176.892395 
L 346.958494 179.930819 
L 349.672085 186.818898 
L 352.012209 197.154978 
L 354.725801 204.043057 
L 357.654626 207.081481 
L 360.627903 206.093074 
L 363.472253 201.135474 
L 366.021818 192.497763 
L 368.127931 180.683621 
L 370.677496 172.045911 
L 373.521846 167.08831 
L 376.495122 166.099904 
L 379.423948 169.138327 
L 382.13754 176.026406 
L 384.477663 186.362486 
L 387.191255 193.250565 
L 390.120081 196.288989 
L 393.093357 195.300583 
L 395.937707 190.342982 
L 398.487273 181.705271 
" clip-path="url(#p3fa3fb2ede)" style="fill: none; stroke: #1f77b4; stroke-width: 1.5; stroke-linecap: square"/>
   </g>
   <g id="line2d_13">
    <path d="M 73.832727 289.63019 
L 75.93884 277.816048 
L 78.488405 269.178337 
L 81.332755 264.220737 
L 84.306031 263.23233 
L 87.234857 266.270754 
L 89.948449 273.158833 
L 92.288573 283.494913 
L 95.002164 290.382992 
L 97.93099 293.421416 
L 100.904266 292.433009 
L 103.748616 287.475409 
L 106.298182 278.837698 
L 108.404294 267.023556 
L 110.95386 258.385846 
L 113.79821 253.428245 
L 116.771486 252.439838 
L 119.700312 255.478262 
L 122.413903 262.366341 
L 124.754027 272.702421 
L 127.467619 279.5905 
L 130.396445 282.628924 
L 133.369721 281.640518 
L 136.214071 276.682917 
L 138.763636 268.045206 
L 140.869749 256.231064 
L 143.419314 247.593354 
L 146.263664 242.635753 
L 149.23694 241.647347 
L 152.165766 244.68577 
L 154.879358 251.573849 
L 157.219482 261.909929 
L 159.933073 268.798008 
L 162.861899 271.836432 
L 165.835175 270.848026 
L 168.679525 265.890425 
L 171.229091 257.252714 
L 173.335203 245.438572 
L 175.884769 236.800862 
L 178.729119 231.843261 
L 181.702395 230.854855 
L 184.631221 233.893279 
L 187.344812 240.781357 
L 189.684936 251.117437 
L 192.398528 258.005516 
L 195.327354 261.04394 
L 198.30063 260.055534 
L 201.14498 255.097933 
L 203.694545 246.460223 
L 205.800658 234.64608 
L 208.350223 226.00837 
L 211.194573 221.050769 
L 214.167849 220.062363 
L 217.096675 223.100787 
L 219.810267 229.988866 
L 222.150391 240.324945 
L 224.863982 247.213024 
L 227.792808 250.251448 
L 230.766084 249.263042 
L 233.610434 244.305441 
L 236.16 235.667731 
L 238.266112 223.853588 
L 240.815678 215.215878 
L 243.660028 210.258277 
L 246.633304 209.269871 
L 249.56213 212.308295 
L 252.275722 219.196374 
L 254.615845 229.532454 
L 257.329437 236.420532 
L 260.258263 239.458956 
L 263.231539 238.47055 
L 266.075889 233.512949 
L 268.625455 224.875239 
L 270.731567 213.061097 
L 273.281133 204.423386 
L 276.125483 199.465785 
L 279.098759 198.477379 
L 282.027585 201.515803 
L 284.741176 208.403882 
L 287.0813 218.739962 
L 289.794891 225.628041 
L 292.723717 228.666464 
L 295.696993 227.678058 
L 298.541343 222.720457 
L 301.090909 214.082747 
L 303.197021 202.268605 
L 305.746587 193.630894 
L 308.590937 188.673293 
L 311.564213 187.684887 
L 314.493039 190.723311 
L 317.206631 197.61139 
L 319.546754 207.94747 
L 322.260346 214.835549 
L 325.189172 217.873973 
L 328.162448 216.885566 
L 331.006798 211.927965 
L 333.556364 203.290255 
L 335.662476 191.476113 
L 338.212042 182.838402 
L 341.056392 177.880802 
L 344.029668 176.892395 
" clip-path="url(#p3fa3fb2ede)" style="fill: none; stroke: #ff7f0e; stroke-width: 1.5; stroke-linecap: square"/>
   </g>
   <g id="line2d_14">
    <path d="M 73.832727 289.63019 
L 76.81122 289.63019 
L 79.180345 279.50413 
L 81.922954 272.987712 
L 84.867911 270.487559 
L 87.831449 272.159679 
L 90.628646 277.899733 
L 93.084958 287.349542 
L 95.882156 293.089596 
L 98.845694 294.761716 
L 101.79065 292.261563 
L 104.53326 285.745145 
L 106.902385 275.619085 
L 108.750193 262.515245 
L 111.119318 252.389185 
L 113.861927 245.872767 
L 116.806884 243.372614 
L 119.770422 245.044734 
L 122.567619 250.784788 
L 125.023931 260.234597 
L 127.821128 265.974651 
L 130.784667 267.646771 
L 133.729623 265.146618 
L 136.472233 258.6302 
L 138.841358 248.50414 
L 140.689166 235.4003 
L 143.058291 225.27424 
L 145.8009 218.757823 
L 148.745857 216.257669 
L 151.709395 217.929789 
L 154.506592 223.669843 
L 156.962904 233.119652 
L 159.760101 238.859706 
L 162.72364 240.531826 
L 165.668596 238.031673 
L 168.411206 231.515255 
L 170.780331 221.389195 
L 172.628139 208.285355 
L 174.997264 198.159295 
L 177.739873 191.642878 
L 180.68483 189.142724 
L 183.648368 190.814844 
L 186.445565 196.554898 
L 188.901877 206.004708 
L 191.699074 211.744761 
L 194.662613 213.416881 
L 197.607569 210.916728 
L 200.350179 204.40031 
L 202.719304 194.27425 
L 204.567112 181.17041 
L 206.936237 171.04435 
L 209.678846 164.527933 
L 212.623803 162.02778 
L 215.587341 163.6999 
L 218.384538 169.439953 
L 220.84085 178.889763 
L 223.638047 184.629816 
L 226.601586 186.301936 
L 229.546542 183.801783 
L 232.289152 177.285365 
L 234.658277 167.159305 
L 236.506085 154.055465 
L 238.87521 143.929405 
L 241.617819 137.412988 
L 244.562776 134.912835 
L 247.526314 136.584955 
L 250.323511 142.325008 
L 252.779823 151.774818 
L 255.57702 157.514871 
L 258.540559 159.186991 
L 261.485515 156.686838 
L 264.228125 150.170421 
L 266.59725 140.04436 
L 268.445058 126.940521 
L 270.814183 116.814461 
L 273.556792 110.298043 
L 276.501749 107.79789 
L 279.465287 109.47001 
L 282.262484 115.210063 
L 284.718796 124.659873 
L 287.515993 130.399926 
L 290.479532 132.072046 
L 293.424488 129.571893 
L 296.167098 123.055476 
L 298.536223 112.929416 
L 300.384031 99.825576 
L 302.753156 89.699516 
L 305.495765 83.183098 
L 308.440722 80.682945 
L 311.40426 82.355065 
L 314.201457 88.095118 
L 316.657769 97.544928 
L 319.454966 103.284981 
L 322.418505 104.957101 
L 325.363461 102.456948 
L 328.106071 95.940531 
L 330.475196 85.814471 
L 332.323004 72.710631 
L 334.692129 62.584571 
L 337.434738 56.068153 
L 340.379694 53.568 
" clip-path="url(#p3fa3fb2ede)" style="fill: none; stroke: #2ca02c; stroke-width: 1.5; stroke-linecap: square"/>
   </g>
   <g id="line2d_15">
    <path d="M 73.832727 289.63019 
L 76.81122 289.63019 
L 79.692465 285.395727 
L 82.288319 277.20331 
L 85.169565 272.968847 
L 88.148057 272.968847 
L 91.029303 277.20331 
L 93.625157 285.395727 
L 96.323048 292.475204 
L 99.252715 295.488 
L 102.222852 294.23738 
L 105.03951 288.805009 
L 107.518761 279.545618 
L 109.498713 267.063843 
L 111.977964 257.804453 
L 114.794622 252.372083 
L 117.764759 251.121463 
L 120.694426 254.134259 
L 123.392317 261.213737 
L 125.682262 271.897609 
L 128.355228 279.268591 
L 131.273954 282.59881 
L 134.247849 281.670804 
L 137.082718 276.545171 
L 139.593445 267.556613 
L 141.616081 255.29208 
L 144.126808 246.303521 
L 146.961677 241.177888 
L 149.935572 240.249881 
L 152.854298 243.580099 
L 155.527264 250.95108 
L 157.779927 261.881502 
L 160.452893 269.252484 
L 163.371619 272.582704 
L 166.345514 271.654698 
L 169.180382 266.529066 
L 171.69111 257.54051 
L 173.713746 245.275978 
L 176.210735 236.167797 
L 179.037719 230.906915 
L 182.010097 229.836864 
L 184.933773 233.027518 
L 187.617834 240.27053 
L 189.887011 251.092931 
L 192.563341 258.42541 
L 195.483581 261.713609 
L 198.457041 260.742811 
L 201.289557 255.576413 
L 203.79617 246.551798 
L 205.845836 234.429289 
L 208.37629 225.616515 
L 211.222296 220.688901 
L 214.197652 219.922354 
L 217.124463 223.021257 
L 219.834279 229.955955 
L 222.154628 240.431373 
L 224.870848 247.286786 
L 227.800498 250.300102 
L 230.773563 249.291959 
L 233.617092 244.319556 
L 236.165541 235.671484 
L 238.266626 223.829208 
L 240.816889 215.197978 
L 243.661547 210.245945 
L 246.634871 209.262088 
L 249.563581 212.304019 
L 252.276963 219.194706 
L 254.616088 229.537893 
L 257.329801 236.424467 
L 260.258671 239.461567 
L 263.231936 238.472111 
L 266.076242 233.513727 
L 268.625742 224.875405 
L 270.731601 213.059841 
L 273.281197 204.42241 
L 276.125563 199.465107 
L 279.098842 198.476943 
L 282.027662 201.515551 
L 284.741237 208.403829 
L 287.081318 218.740215 
L 289.794911 225.628274 
L 292.723739 228.666625 
L 295.697015 227.678163 
L 298.541363 222.720522 
L 301.090919 214.082723 
L 303.197029 202.26857 
L 305.74659 193.630819 
L 308.590941 188.673236 
L 311.564218 187.684844 
L 314.493043 190.723275 
L 317.206629 197.611425 
L 319.546761 207.947447 
L 322.260348 214.835583 
L 325.189174 217.873999 
L 328.16245 216.885588 
L 331.0068 211.927985 
L 333.556359 203.29021 
L 335.662485 191.476145 
L 338.212048 182.838413 
L 341.056395 177.880758 
L 343.900742 172.923102 
" clip-path="url(#p3fa3fb2ede)" style="fill: none; stroke: #d62728; stroke-width: 1.5; stroke-linecap: square"/>
   </g>
   <g id="patch_3">
    <path d="M 57.6 307.584 
L 57.6 41.472 
" style="fill: none; stroke: #000000; stroke-width: 0.8; stroke-linejoin: miter; stroke-linecap: square"/>
   </g>
   <g id="patch_4">
    <path d="M 414.72 307.584 
L 414.72 41.472 
" style="fill: none; stroke: #000000; stroke-width: 0.8; stroke-linejoin: miter; stroke-linecap: square"/>
   </g>
   <g id="patch_5">
    <path d="M 57.6 307.584 
L 414.72 307.584 
" style="fill: none; stroke: #000000; stroke-width: 0.8; stroke-linejoin: miter; stroke-linecap: square"/>
   </g>
   <g id="patch_6">
    <path d="M 57.6 41.472 
L 414.72 41.472 
" style="fill: none; stroke: #000000; stroke-width: 0.8; stroke-linejoin: miter; stroke-linecap: square"/>
   </g>
   <g id="text_12">
    <!-- States and Reference Path  -->
    <g transform="translate(154.845 35.472)scale(0.12 -0.12)">
     <defs>
      <path id="DejaVuSans-53" d="M 3425 4513 
L 3425 3897 
Q 3066 4069 2747 4153 
Q 2428 4238 2131 4238 
Q 1616 4238 1336 4038 
Q 1056 3838 1056 3469 
Q 1056 3159 1242 3001 
Q 1428 2844 1947 2747 
L 2328 2669 
Q 3034 2534 3370 2195 
Q 3706 1856 3706 1288 
Q 3706 609 3251 259 
Q 2797 -91 1919 -91 
Q 1588 -91 1214 -16 
Q 841 59 441 206 
L 441 856 
Q 825 641 1194 531 
Q 1563 422 1919 422 
Q 2459 422 2753 634 
Q 3047 847 3047 1241 
Q 3047 1584 2836 1778 
Q 2625 1972 2144 2069 
L 1759 2144 
Q 1053 2284 737 2584 
Q 422 2884 422 3419 
Q 422 4038 858 4394 
Q 1294 4750 2059 4750 
Q 2388 4750 2728 4690 
Q 3069 4631 3425 4513 
z
" transform="scale(0.015625)"/>
      <path id="DejaVuSans-74" d="M 1172 4494 
L 1172 3500 
L 2356 3500 
L 2356 3053 
L 1172 3053 
L 1172 1153 
Q 1172 725 1289 603 
Q 1406 481 1766 481 
L 2356 481 
L 2356 0 
L 1766 0 
Q 1100 0 847 248 
Q 594 497 594 1153 
L 594 3053 
L 172 3053 
L 172 3500 
L 594 3500 
L 594 4494 
L 1172 4494 
z
" transform="scale(0.015625)"/>
      <path id="DejaVuSans-61" d="M 2194 1759 
Q 1497 1759 1228 1600 
Q 959 1441 959 1056 
Q 959 750 1161 570 
Q 1363 391 1709 391 
Q 2188 391 2477 730 
Q 2766 1069 2766 1631 
L 2766 1759 
L 2194 1759 
z
M 3341 1997 
L 3341 0 
L 2766 0 
L 2766 531 
Q 2569 213 2275 61 
Q 1981 -91 1556 -91 
Q 1019 -91 701 211 
Q 384 513 384 1019 
Q 384 1609 779 1909 
Q 1175 2209 1959 2209 
L 2766 2209 
L 2766 2266 
Q 2766 2663 2505 2880 
Q 2244 3097 1772 3097 
Q 1472 3097 1187 3025 
Q 903 2953 641 2809 
L 641 3341 
Q 956 3463 1253 3523 
Q 1550 3584 1831 3584 
Q 2591 3584 2966 3190 
Q 3341 2797 3341 1997 
z
" transform="scale(0.015625)"/>
      <path id="DejaVuSans-65" d="M 3597 1894 
L 3597 1613 
L 953 1613 
Q 991 1019 1311 708 
Q 1631 397 2203 397 
Q 2534 397 2845 478 
Q 3156 559 3463 722 
L 3463 178 
Q 3153 47 2828 -22 
Q 2503 -91 2169 -91 
Q 1331 -91 842 396 
Q 353 884 353 1716 
Q 353 2575 817 3079 
Q 1281 3584 2069 3584 
Q 2775 3584 3186 3129 
Q 3597 2675 3597 1894 
z
M 3022 2063 
Q 3016 2534 2758 2815 
Q 2500 3097 2075 3097 
Q 1594 3097 1305 2825 
Q 1016 2553 972 2059 
L 3022 2063 
z
" transform="scale(0.015625)"/>
      <path id="DejaVuSans-73" d="M 2834 3397 
L 2834 2853 
Q 2591 2978 2328 3040 
Q 2066 3103 1784 3103 
Q 1356 3103 1142 2972 
Q 928 2841 928 2578 
Q 928 2378 1081 2264 
Q 1234 2150 1697 2047 
L 1894 2003 
Q 2506 1872 2764 1633 
Q 3022 1394 3022 966 
Q 3022 478 2636 193 
Q 2250 -91 1575 -91 
Q 1294 -91 989 -36 
Q 684 19 347 128 
L 347 722 
Q 666 556 975 473 
Q 1284 391 1588 391 
Q 1994 391 2212 530 
Q 2431 669 2431 922 
Q 2431 1156 2273 1281 
Q 2116 1406 1581 1522 
L 1381 1569 
Q 847 1681 609 1914 
Q 372 2147 372 2553 
Q 372 3047 722 3315 
Q 1072 3584 1716 3584 
Q 2034 3584 2315 3537 
Q 2597 3491 2834 3397 
z
" transform="scale(0.015625)"/>
      <path id="DejaVuSans-20" transform="scale(0.015625)"/>
      <path id="DejaVuSans-6e" d="M 3513 2113 
L 3513 0 
L 2938 0 
L 2938 2094 
Q 2938 2591 2744 2837 
Q 2550 3084 2163 3084 
Q 1697 3084 1428 2787 
Q 1159 2491 1159 1978 
L 1159 0 
L 581 0 
L 581 3500 
L 1159 3500 
L 1159 2956 
Q 1366 3272 1645 3428 
Q 1925 3584 2291 3584 
Q 2894 3584 3203 3211 
Q 3513 2838 3513 2113 
z
" transform="scale(0.015625)"/>
      <path id="DejaVuSans-64" d="M 2906 2969 
L 2906 4863 
L 3481 4863 
L 3481 0 
L 2906 0 
L 2906 525 
Q 2725 213 2448 61 
Q 2172 -91 1784 -91 
Q 1150 -91 751 415 
Q 353 922 353 1747 
Q 353 2572 751 3078 
Q 1150 3584 1784 3584 
Q 2172 3584 2448 3432 
Q 2725 3281 2906 2969 
z
M 947 1747 
Q 947 1113 1208 752 
Q 1469 391 1925 391 
Q 2381 391 2643 752 
Q 2906 1113 2906 1747 
Q 2906 2381 2643 2742 
Q 2381 3103 1925 3103 
Q 1469 3103 1208 2742 
Q 947 2381 947 1747 
z
" transform="scale(0.015625)"/>
      <path id="DejaVuSans-52" d="M 2841 2188 
Q 3044 2119 3236 1894 
Q 3428 1669 3622 1275 
L 4263 0 
L 3584 0 
L 2988 1197 
Q 2756 1666 2539 1819 
Q 2322 1972 1947 1972 
L 1259 1972 
L 1259 0 
L 628 0 
L 628 4666 
L 2053 4666 
Q 2853 4666 3247 4331 
Q 3641 3997 3641 3322 
Q 3641 2881 3436 2590 
Q 3231 2300 2841 2188 
z
M 1259 4147 
L 1259 2491 
L 2053 2491 
Q 2509 2491 2742 2702 
Q 2975 2913 2975 3322 
Q 2975 3731 2742 3939 
Q 2509 4147 2053 4147 
L 1259 4147 
z
" transform="scale(0.015625)"/>
      <path id="DejaVuSans-66" d="M 2375 4863 
L 2375 4384 
L 1825 4384 
Q 1516 4384 1395 4259 
Q 1275 4134 1275 3809 
L 1275 3500 
L 2222 3500 
L 2222 3053 
L 1275 3053 
L 1275 0 
L 697 0 
L 697 3053 
L 147 3053 
L 147 3500 
L 697 3500 
L 697 3744 
Q 697 4328 969 4595 
Q 1241 4863 1831 4863 
L 2375 4863 
z
" transform="scale(0.015625)"/>
      <path id="DejaVuSans-72" d="M 2631 2963 
Q 2534 3019 2420 3045 
Q 2306 3072 2169 3072 
Q 1681 3072 1420 2755 
Q 1159 2438 1159 1844 
L 1159 0 
L 581 0 
L 581 3500 
L 1159 3500 
L 1159 2956 
Q 1341 3275 1631 3429 
Q 1922 3584 2338 3584 
Q 2397 3584 2469 3576 
Q 2541 3569 2628 3553 
L 2631 2963 
z
" transform="scale(0.015625)"/>
      <path id="DejaVuSans-63" d="M 3122 3366 
L 3122 2828 
Q 2878 2963 2633 3030 
Q 2388 3097 2138 3097 
Q 1578 3097 1268 2742 
Q 959 2388 959 1747 
Q 959 1106 1268 751 
Q 1578 397 2138 397 
Q 2388 397 2633 464 
Q 2878 531 3122 666 
L 3122 134 
Q 2881 22 2623 -34 
Q 2366 -91 2075 -91 
Q 1284 -91 818 406 
Q 353 903 353 1747 
Q 353 2603 823 3093 
Q 1294 3584 2113 3584 
Q 2378 3584 2631 3529 
Q 2884 3475 3122 3366 
z
" transform="scale(0.015625)"/>
      <path id="DejaVuSans-50" d="M 1259 4147 
L 1259 2394 
L 2053 2394 
Q 2494 2394 2734 2622 
Q 2975 2850 2975 3272 
Q 2975 3691 2734 3919 
Q 2494 4147 2053 4147 
L 1259 4147 
z
M 628 4666 
L 2053 4666 
Q 2838 4666 3239 4311 
Q 3641 3956 3641 3272 
Q 3641 2581 3239 2228 
Q 2838 1875 2053 1875 
L 1259 1875 
L 1259 0 
L 628 0 
L 628 4666 
z
" transform="scale(0.015625)"/>
      <path id="DejaVuSans-68" d="M 3513 2113 
L 3513 0 
L 2938 0 
L 2938 2094 
Q 2938 2591 2744 2837 
Q 2550 3084 2163 3084 
Q 1697 3084 1428 2787 
Q 1159 2491 1159 1978 
L 1159 0 
L 581 0 
L 581 4863 
L 1159 4863 
L 1159 2956 
Q 1366 3272 1645 3428 
Q 1925 3584 2291 3584 
Q 2894 3584 3203 3211 
Q 3513 2838 3513 2113 
z
" transform="scale(0.015625)"/>
     </defs>
     <use xlink:href="#DejaVuSans-53"/>
     <use xlink:href="#DejaVuSans-74" x="63.476562"/>
     <use xlink:href="#DejaVuSans-61" x="102.685547"/>
     <use xlink:href="#DejaVuSans-74" x="163.964844"/>
     <use xlink:href="#DejaVuSans-65" x="203.173828"/>
     <use xlink:href="#DejaVuSans-73" x="264.697266"/>
     <use xlink:href="#DejaVuSans-20" x="316.796875"/>
     <use xlink:href="#DejaVuSans-61" x="348.583984"/>
     <use xlink:href="#DejaVuSans-6e" x="409.863281"/>
     <use xlink:href="#DejaVuSans-64" x="473.242188"/>
     <use xlink:href="#DejaVuSans-20" x="536.71875"/>
     <use xlink:href="#DejaVuSans-52" x="568.505859"/>
     <use xlink:href="#DejaVuSans-65" x="633.488281"/>
     <use xlink:href="#DejaVuSans-66" x="695.011719"/>
     <use xlink:href="#DejaVuSans-65" x="730.216797"/>
     <use xlink:href="#DejaVuSans-72" x="791.740234"/>
     <use xlink:href="#DejaVuSans-65" x="830.603516"/>
     <use xlink:href="#DejaVuSans-6e" x="892.126953"/>
     <use xlink:href="#DejaVuSans-63" x="955.505859"/>
     <use xlink:href="#DejaVuSans-65" x="1010.486328"/>
     <use xlink:href="#DejaVuSans-20" x="1072.009766"/>
     <use xlink:href="#DejaVuSans-50" x="1103.796875"/>
     <use xlink:href="#DejaVuSans-61" x="1159.599609"/>
     <use xlink:href="#DejaVuSans-74" x="1220.878906"/>
     <use xlink:href="#DejaVuSans-68" x="1260.087891"/>
     <use xlink:href="#DejaVuSans-20" x="1323.466797"/>
    </g>
   </g>
   <g id="legend_1">
    <g id="patch_7">
     <path d="M 64.6 108.74075 
L 210.682812 108.74075 
Q 212.682812 108.74075 212.682812 106.74075 
L 212.682812 48.472 
Q 212.682812 46.472 210.682812 46.472 
L 64.6 46.472 
Q 62.6 46.472 62.6 48.472 
L 62.6 106.74075 
Q 62.6 108.74075 64.6 108.74075 
z
" style="fill: #ffffff; opacity: 0.8; stroke: #cccccc; stroke-linejoin: miter"/>
    </g>
    <g id="line2d_16">
     <path d="M 66.6 54.570438 
L 76.6 54.570438 
L 86.6 54.570438 
" style="fill: none; stroke: #1f77b4; stroke-width: 1.5; stroke-linecap: square"/>
    </g>
    <g id="text_13">
     <!-- Path to follow -->
     <g transform="translate(94.6 58.070438)scale(0.1 -0.1)">
      <defs>
       <path id="DejaVuSans-6f" d="M 1959 3097 
Q 1497 3097 1228 2736 
Q 959 2375 959 1747 
Q 959 1119 1226 758 
Q 1494 397 1959 397 
Q 2419 397 2687 759 
Q 2956 1122 2956 1747 
Q 2956 2369 2687 2733 
Q 2419 3097 1959 3097 
z
M 1959 3584 
Q 2709 3584 3137 3096 
Q 3566 2609 3566 1747 
Q 3566 888 3137 398 
Q 2709 -91 1959 -91 
Q 1206 -91 779 398 
Q 353 888 353 1747 
Q 353 2609 779 3096 
Q 1206 3584 1959 3584 
z
" transform="scale(0.015625)"/>
       <path id="DejaVuSans-6c" d="M 603 4863 
L 1178 4863 
L 1178 0 
L 603 0 
L 603 4863 
z
" transform="scale(0.015625)"/>
       <path id="DejaVuSans-77" d="M 269 3500 
L 844 3500 
L 1563 769 
L 2278 3500 
L 2956 3500 
L 3675 769 
L 4391 3500 
L 4966 3500 
L 4050 0 
L 3372 0 
L 2619 2869 
L 1863 0 
L 1184 0 
L 269 3500 
z
" transform="scale(0.015625)"/>
      </defs>
      <use xlink:href="#DejaVuSans-50"/>
      <use xlink:href="#DejaVuSans-61" x="55.802734"/>
      <use xlink:href="#DejaVuSans-74" x="117.082031"/>
      <use xlink:href="#DejaVuSans-68" x="156.291016"/>
      <use xlink:href="#DejaVuSans-20" x="219.669922"/>
      <use xlink:href="#DejaVuSans-74" x="251.457031"/>
      <use xlink:href="#DejaVuSans-6f" x="290.666016"/>
      <use xlink:href="#DejaVuSans-20" x="351.847656"/>
      <use xlink:href="#DejaVuSans-66" x="383.634766"/>
      <use xlink:href="#DejaVuSans-6f" x="418.839844"/>
      <use xlink:href="#DejaVuSans-6c" x="480.021484"/>
      <use xlink:href="#DejaVuSans-6c" x="507.804688"/>
      <use xlink:href="#DejaVuSans-6f" x="535.587891"/>
      <use xlink:href="#DejaVuSans-77" x="596.769531"/>
     </g>
    </g>
    <g id="line2d_17">
     <path d="M 66.6 69.248563 
L 76.6 69.248563 
L 86.6 69.248563 
" style="fill: none; stroke: #ff7f0e; stroke-width: 1.5; stroke-linecap: square"/>
    </g>
    <g id="text_14">
     <!-- x_ref -->
     <g transform="translate(94.6 72.748563)scale(0.1 -0.1)">
      <defs>
       <path id="DejaVuSans-78" d="M 3513 3500 
L 2247 1797 
L 3578 0 
L 2900 0 
L 1881 1375 
L 863 0 
L 184 0 
L 1544 1831 
L 300 3500 
L 978 3500 
L 1906 2253 
L 2834 3500 
L 3513 3500 
z
" transform="scale(0.015625)"/>
       <path id="DejaVuSans-5f" d="M 3263 -1063 
L 3263 -1509 
L -63 -1509 
L -63 -1063 
L 3263 -1063 
z
" transform="scale(0.015625)"/>
      </defs>
      <use xlink:href="#DejaVuSans-78"/>
      <use xlink:href="#DejaVuSans-5f" x="59.179688"/>
      <use xlink:href="#DejaVuSans-72" x="109.179688"/>
      <use xlink:href="#DejaVuSans-65" x="148.042969"/>
      <use xlink:href="#DejaVuSans-66" x="209.566406"/>
     </g>
    </g>
    <g id="line2d_18">
     <path d="M 66.6 84.204813 
L 76.6 84.204813 
L 86.6 84.204813 
" style="fill: none; stroke: #2ca02c; stroke-width: 1.5; stroke-linecap: square"/>
    </g>
    <g id="text_15">
     <!-- Estimated States (x0) -->
     <g transform="translate(94.6 87.704813)scale(0.1 -0.1)">
      <defs>
       <path id="DejaVuSans-45" d="M 628 4666 
L 3578 4666 
L 3578 4134 
L 1259 4134 
L 1259 2753 
L 3481 2753 
L 3481 2222 
L 1259 2222 
L 1259 531 
L 3634 531 
L 3634 0 
L 628 0 
L 628 4666 
z
" transform="scale(0.015625)"/>
       <path id="DejaVuSans-69" d="M 603 3500 
L 1178 3500 
L 1178 0 
L 603 0 
L 603 3500 
z
M 603 4863 
L 1178 4863 
L 1178 4134 
L 603 4134 
L 603 4863 
z
" transform="scale(0.015625)"/>
       <path id="DejaVuSans-6d" d="M 3328 2828 
Q 3544 3216 3844 3400 
Q 4144 3584 4550 3584 
Q 5097 3584 5394 3201 
Q 5691 2819 5691 2113 
L 5691 0 
L 5113 0 
L 5113 2094 
Q 5113 2597 4934 2840 
Q 4756 3084 4391 3084 
Q 3944 3084 3684 2787 
Q 3425 2491 3425 1978 
L 3425 0 
L 2847 0 
L 2847 2094 
Q 2847 2600 2669 2842 
Q 2491 3084 2119 3084 
Q 1678 3084 1418 2786 
Q 1159 2488 1159 1978 
L 1159 0 
L 581 0 
L 581 3500 
L 1159 3500 
L 1159 2956 
Q 1356 3278 1631 3431 
Q 1906 3584 2284 3584 
Q 2666 3584 2933 3390 
Q 3200 3197 3328 2828 
z
" transform="scale(0.015625)"/>
       <path id="DejaVuSans-28" d="M 1984 4856 
Q 1566 4138 1362 3434 
Q 1159 2731 1159 2009 
Q 1159 1288 1364 580 
Q 1569 -128 1984 -844 
L 1484 -844 
Q 1016 -109 783 600 
Q 550 1309 550 2009 
Q 550 2706 781 3412 
Q 1013 4119 1484 4856 
L 1984 4856 
z
" transform="scale(0.015625)"/>
       <path id="DejaVuSans-29" d="M 513 4856 
L 1013 4856 
Q 1481 4119 1714 3412 
Q 1947 2706 1947 2009 
Q 1947 1309 1714 600 
Q 1481 -109 1013 -844 
L 513 -844 
Q 928 -128 1133 580 
Q 1338 1288 1338 2009 
Q 1338 2731 1133 3434 
Q 928 4138 513 4856 
z
" transform="scale(0.015625)"/>
      </defs>
      <use xlink:href="#DejaVuSans-45"/>
      <use xlink:href="#DejaVuSans-73" x="63.183594"/>
      <use xlink:href="#DejaVuSans-74" x="115.283203"/>
      <use xlink:href="#DejaVuSans-69" x="154.492188"/>
      <use xlink:href="#DejaVuSans-6d" x="182.275391"/>
      <use xlink:href="#DejaVuSans-61" x="279.6875"/>
      <use xlink:href="#DejaVuSans-74" x="340.966797"/>
      <use xlink:href="#DejaVuSans-65" x="380.175781"/>
      <use xlink:href="#DejaVuSans-64" x="441.699219"/>
      <use xlink:href="#DejaVuSans-20" x="505.175781"/>
      <use xlink:href="#DejaVuSans-53" x="536.962891"/>
      <use xlink:href="#DejaVuSans-74" x="600.439453"/>
      <use xlink:href="#DejaVuSans-61" x="639.648438"/>
      <use xlink:href="#DejaVuSans-74" x="700.927734"/>
      <use xlink:href="#DejaVuSans-65" x="740.136719"/>
      <use xlink:href="#DejaVuSans-73" x="801.660156"/>
      <use xlink:href="#DejaVuSans-20" x="853.759766"/>
      <use xlink:href="#DejaVuSans-28" x="885.546875"/>
      <use xlink:href="#DejaVuSans-78" x="924.560547"/>
      <use xlink:href="#DejaVuSans-30" x="983.740234"/>
      <use xlink:href="#DejaVuSans-29" x="1047.363281"/>
     </g>
    </g>
    <g id="line2d_19">
     <path d="M 66.6 98.882938 
L 76.6 98.882938 
L 86.6 98.882938 
" style="fill: none; stroke: #d62728; stroke-width: 1.5; stroke-linecap: square"/>
    </g>
    <g id="text_16">
     <!-- Solution States (x_bar) -->
     <g transform="translate(94.6 102.382938)scale(0.1 -0.1)">
      <defs>
       <path id="DejaVuSans-75" d="M 544 1381 
L 544 3500 
L 1119 3500 
L 1119 1403 
Q 1119 906 1312 657 
Q 1506 409 1894 409 
Q 2359 409 2629 706 
Q 2900 1003 2900 1516 
L 2900 3500 
L 3475 3500 
L 3475 0 
L 2900 0 
L 2900 538 
Q 2691 219 2414 64 
Q 2138 -91 1772 -91 
Q 1169 -91 856 284 
Q 544 659 544 1381 
z
M 1991 3584 
L 1991 3584 
z
" transform="scale(0.015625)"/>
       <path id="DejaVuSans-62" d="M 3116 1747 
Q 3116 2381 2855 2742 
Q 2594 3103 2138 3103 
Q 1681 3103 1420 2742 
Q 1159 2381 1159 1747 
Q 1159 1113 1420 752 
Q 1681 391 2138 391 
Q 2594 391 2855 752 
Q 3116 1113 3116 1747 
z
M 1159 2969 
Q 1341 3281 1617 3432 
Q 1894 3584 2278 3584 
Q 2916 3584 3314 3078 
Q 3713 2572 3713 1747 
Q 3713 922 3314 415 
Q 2916 -91 2278 -91 
Q 1894 -91 1617 61 
Q 1341 213 1159 525 
L 1159 0 
L 581 0 
L 581 4863 
L 1159 4863 
L 1159 2969 
z
" transform="scale(0.015625)"/>
      </defs>
      <use xlink:href="#DejaVuSans-53"/>
      <use xlink:href="#DejaVuSans-6f" x="63.476562"/>
      <use xlink:href="#DejaVuSans-6c" x="124.658203"/>
      <use xlink:href="#DejaVuSans-75" x="152.441406"/>
      <use xlink:href="#DejaVuSans-74" x="215.820312"/>
      <use xlink:href="#DejaVuSans-69" x="255.029297"/>
      <use xlink:href="#DejaVuSans-6f" x="282.8125"/>
      <use xlink:href="#DejaVuSans-6e" x="343.994141"/>
      <use xlink:href="#DejaVuSans-20" x="407.373047"/>
      <use xlink:href="#DejaVuSans-53" x="439.160156"/>
      <use xlink:href="#DejaVuSans-74" x="502.636719"/>
      <use xlink:href="#DejaVuSans-61" x="541.845703"/>
      <use xlink:href="#DejaVuSans-74" x="603.125"/>
      <use xlink:href="#DejaVuSans-65" x="642.333984"/>
      <use xlink:href="#DejaVuSans-73" x="703.857422"/>
      <use xlink:href="#DejaVuSans-20" x="755.957031"/>
      <use xlink:href="#DejaVuSans-28" x="787.744141"/>
      <use xlink:href="#DejaVuSans-78" x="826.757812"/>
      <use xlink:href="#DejaVuSans-5f" x="885.9375"/>
      <use xlink:href="#DejaVuSans-62" x="935.9375"/>
      <use xlink:href="#DejaVuSans-61" x="999.414062"/>
      <use xlink:href="#DejaVuSans-72" x="1060.693359"/>
      <use xlink:href="#DejaVuSans-29" x="1101.806641"/>
     </g>
    </g>
   </g>
  </g>
 </g>
 <defs>
  <clipPath id="p3fa3fb2ede">
   <rect x="57.6" y="41.472" width="357.12" height="266.112"/>
  </clipPath>
 </defs>
</svg>
