<?xml version="1.0" encoding="utf-8" standalone="no"?>
<!DOCTYPE svg PUBLIC "-//W3C//DTD SVG 1.1//EN"
  "http://www.w3.org/Graphics/SVG/1.1/DTD/svg11.dtd">
<svg xmlns:xlink="http://www.w3.org/1999/xlink" width="460.8pt" height="345.6pt" viewBox="0 0 460.8 345.6" xmlns="http://www.w3.org/2000/svg" version="1.1">
 <metadata>
  <rdf:RDF xmlns:dc="http://purl.org/dc/elements/1.1/" xmlns:cc="http://creativecommons.org/ns#" xmlns:rdf="http://www.w3.org/1999/02/22-rdf-syntax-ns#">
   <cc:Work>
    <dc:type rdf:resource="http://purl.org/dc/dcmitype/StillImage"/>
    <dc:date>2023-04-04T12:58:41.767459</dc:date>
    <dc:format>image/svg+xml</dc:format>
    <dc:creator>
     <cc:Agent>
      <dc:title>Matplotlib v3.5.1, https://matplotlib.org/</dc:title>
     </cc:Agent>
    </dc:creator>
   </cc:Work>
  </rdf:RDF>
 </metadata>
 <defs>
  <style type="text/css">*{stroke-linejoin: round; stroke-linecap: butt}</style>
 </defs>
 <g id="figure_1">
  <g id="patch_1">
   <path d="M 0 345.6 
L 460.8 345.6 
L 460.8 0 
L 0 0 
z
" style="fill: #ffffff"/>
  </g>
  <g id="axes_1">
   <g id="patch_2">
    <path d="M 57.6 307.584 
L 414.72 307.584 
L 414.72 41.472 
L 57.6 41.472 
z
" style="fill: #ffffff"/>
   </g>
   <g id="matplotlib.axis_1">
    <g id="xtick_1">
     <g id="line2d_1">
      <defs>
       <path id="ma378340982" d="M 0 0 
L 0 3.5 
" style="stroke: #000000; stroke-width: 0.8"/>
      </defs>
      <g>
       <use xlink:href="#ma378340982" x="63.652881" y="307.584" style="stroke: #000000; stroke-width: 0.8"/>
      </g>
     </g>
     <g id="text_1">
      <!-- 0 -->
      <g transform="translate(60.471631 322.182437)scale(0.1 -0.1)">
       <defs>
        <path id="DejaVuSans-30" d="M 2034 4250 
Q 1547 4250 1301 3770 
Q 1056 3291 1056 2328 
Q 1056 1369 1301 889 
Q 1547 409 2034 409 
Q 2525 409 2770 889 
Q 3016 1369 3016 2328 
Q 3016 3291 2770 3770 
Q 2525 4250 2034 4250 
z
M 2034 4750 
Q 2819 4750 3233 4129 
Q 3647 3509 3647 2328 
Q 3647 1150 3233 529 
Q 2819 -91 2034 -91 
Q 1250 -91 836 529 
Q 422 1150 422 2328 
Q 422 3509 836 4129 
Q 1250 4750 2034 4750 
z
" transform="scale(0.015625)"/>
       </defs>
       <use xlink:href="#DejaVuSans-30"/>
      </g>
     </g>
    </g>
    <g id="xtick_2">
     <g id="line2d_2">
      <g>
       <use xlink:href="#ma378340982" x="124.181695" y="307.584" style="stroke: #000000; stroke-width: 0.8"/>
      </g>
     </g>
     <g id="text_2">
      <!-- 5 -->
      <g transform="translate(121.000445 322.182437)scale(0.1 -0.1)">
       <defs>
        <path id="DejaVuSans-35" d="M 691 4666 
L 3169 4666 
L 3169 4134 
L 1269 4134 
L 1269 2991 
Q 1406 3038 1543 3061 
Q 1681 3084 1819 3084 
Q 2600 3084 3056 2656 
Q 3513 2228 3513 1497 
Q 3513 744 3044 326 
Q 2575 -91 1722 -91 
Q 1428 -91 1123 -41 
Q 819 9 494 109 
L 494 744 
Q 775 591 1075 516 
Q 1375 441 1709 441 
Q 2250 441 2565 725 
Q 2881 1009 2881 1497 
Q 2881 1984 2565 2268 
Q 2250 2553 1709 2553 
Q 1456 2553 1204 2497 
Q 953 2441 691 2322 
L 691 4666 
z
" transform="scale(0.015625)"/>
       </defs>
       <use xlink:href="#DejaVuSans-35"/>
      </g>
     </g>
    </g>
    <g id="xtick_3">
     <g id="line2d_3">
      <g>
       <use xlink:href="#ma378340982" x="184.710508" y="307.584" style="stroke: #000000; stroke-width: 0.8"/>
      </g>
     </g>
     <g id="text_3">
      <!-- 10 -->
      <g transform="translate(178.348008 322.182437)scale(0.1 -0.1)">
       <defs>
        <path id="DejaVuSans-31" d="M 794 531 
L 1825 531 
L 1825 4091 
L 703 3866 
L 703 4441 
L 1819 4666 
L 2450 4666 
L 2450 531 
L 3481 531 
L 3481 0 
L 794 0 
L 794 531 
z
" transform="scale(0.015625)"/>
       </defs>
       <use xlink:href="#DejaVuSans-31"/>
       <use xlink:href="#DejaVuSans-30" x="63.623047"/>
      </g>
     </g>
    </g>
    <g id="xtick_4">
     <g id="line2d_4">
      <g>
       <use xlink:href="#ma378340982" x="245.239322" y="307.584" style="stroke: #000000; stroke-width: 0.8"/>
      </g>
     </g>
     <g id="text_4">
      <!-- 15 -->
      <g transform="translate(238.876822 322.182437)scale(0.1 -0.1)">
       <use xlink:href="#DejaVuSans-31"/>
       <use xlink:href="#DejaVuSans-35" x="63.623047"/>
      </g>
     </g>
    </g>
    <g id="xtick_5">
     <g id="line2d_5">
      <g>
       <use xlink:href="#ma378340982" x="305.768136" y="307.584" style="stroke: #000000; stroke-width: 0.8"/>
      </g>
     </g>
     <g id="text_5">
      <!-- 20 -->
      <g transform="translate(299.405636 322.182437)scale(0.1 -0.1)">
       <defs>
        <path id="DejaVuSans-32" d="M 1228 531 
L 3431 531 
L 3431 0 
L 469 0 
L 469 531 
Q 828 903 1448 1529 
Q 2069 2156 2228 2338 
Q 2531 2678 2651 2914 
Q 2772 3150 2772 3378 
Q 2772 3750 2511 3984 
Q 2250 4219 1831 4219 
Q 1534 4219 1204 4116 
Q 875 4013 500 3803 
L 500 4441 
Q 881 4594 1212 4672 
Q 1544 4750 1819 4750 
Q 2544 4750 2975 4387 
Q 3406 4025 3406 3419 
Q 3406 3131 3298 2873 
Q 3191 2616 2906 2266 
Q 2828 2175 2409 1742 
Q 1991 1309 1228 531 
z
" transform="scale(0.015625)"/>
       </defs>
       <use xlink:href="#DejaVuSans-32"/>
       <use xlink:href="#DejaVuSans-30" x="63.623047"/>
      </g>
     </g>
    </g>
    <g id="xtick_6">
     <g id="line2d_6">
      <g>
       <use xlink:href="#ma378340982" x="366.296949" y="307.584" style="stroke: #000000; stroke-width: 0.8"/>
      </g>
     </g>
     <g id="text_6">
      <!-- 25 -->
      <g transform="translate(359.934449 322.182437)scale(0.1 -0.1)">
       <use xlink:href="#DejaVuSans-32"/>
       <use xlink:href="#DejaVuSans-35" x="63.623047"/>
      </g>
     </g>
    </g>
   </g>
   <g id="matplotlib.axis_2">
    <g id="ytick_1">
     <g id="line2d_7">
      <defs>
       <path id="mb84668535b" d="M 0 0 
L -3.5 0 
" style="stroke: #000000; stroke-width: 0.8"/>
      </defs>
      <g>
       <use xlink:href="#mb84668535b" x="57.6" y="283.167292" style="stroke: #000000; stroke-width: 0.8"/>
      </g>
     </g>
     <g id="text_7">
      <!-- −20 -->
      <g transform="translate(29.495313 286.96651)scale(0.1 -0.1)">
       <defs>
        <path id="DejaVuSans-2212" d="M 678 2272 
L 4684 2272 
L 4684 1741 
L 678 1741 
L 678 2272 
z
" transform="scale(0.015625)"/>
       </defs>
       <use xlink:href="#DejaVuSans-2212"/>
       <use xlink:href="#DejaVuSans-32" x="83.789062"/>
       <use xlink:href="#DejaVuSans-30" x="147.412109"/>
      </g>
     </g>
    </g>
    <g id="ytick_2">
     <g id="line2d_8">
      <g>
       <use xlink:href="#mb84668535b" x="57.6" y="227.574275" style="stroke: #000000; stroke-width: 0.8"/>
      </g>
     </g>
     <g id="text_8">
      <!-- −15 -->
      <g transform="translate(29.495313 231.373494)scale(0.1 -0.1)">
       <use xlink:href="#DejaVuSans-2212"/>
       <use xlink:href="#DejaVuSans-31" x="83.789062"/>
       <use xlink:href="#DejaVuSans-35" x="147.412109"/>
      </g>
     </g>
    </g>
    <g id="ytick_3">
     <g id="line2d_9">
      <g>
       <use xlink:href="#mb84668535b" x="57.6" y="171.981259" style="stroke: #000000; stroke-width: 0.8"/>
      </g>
     </g>
     <g id="text_9">
      <!-- −10 -->
      <g transform="translate(29.495313 175.780478)scale(0.1 -0.1)">
       <use xlink:href="#DejaVuSans-2212"/>
       <use xlink:href="#DejaVuSans-31" x="83.789062"/>
       <use xlink:href="#DejaVuSans-30" x="147.412109"/>
      </g>
     </g>
    </g>
    <g id="ytick_4">
     <g id="line2d_10">
      <g>
       <use xlink:href="#mb84668535b" x="57.6" y="116.388243" style="stroke: #000000; stroke-width: 0.8"/>
      </g>
     </g>
     <g id="text_10">
      <!-- −5 -->
      <g transform="translate(35.857813 120.187461)scale(0.1 -0.1)">
       <use xlink:href="#DejaVuSans-2212"/>
       <use xlink:href="#DejaVuSans-35" x="83.789062"/>
      </g>
     </g>
    </g>
    <g id="ytick_5">
     <g id="line2d_11">
      <g>
       <use xlink:href="#mb84668535b" x="57.6" y="60.795226" style="stroke: #000000; stroke-width: 0.8"/>
      </g>
     </g>
     <g id="text_11">
      <!-- 0 -->
      <g transform="translate(44.2375 64.594445)scale(0.1 -0.1)">
       <use xlink:href="#DejaVuSans-30"/>
      </g>
     </g>
    </g>
   </g>
   <g id="line2d_12">
    <path d="M 63.652881 58.352988 
L 78.168035 58.142282 
L 107.145906 56.502994 
L 133.729545 55.24845 
L 155.47334 54.438981 
L 177.257954 53.868483 
L 196.613526 53.603748 
L 213.551556 53.588393 
L 228.068027 53.795202 
L 240.158527 54.197877 
L 249.820992 54.713328 
L 259.465414 55.431635 
L 273.928483 56.724271 
L 276.242312 56.800868 
L 283.594272 56.793745 
L 290.845561 57.03368 
L 298.08159 57.555029 
L 302.886022 58.079936 
L 310.030635 59.132901 
L 319.507012 60.859516 
L 324.333399 61.539326 
L 331.41654 62.994108 
L 333.741835 63.66443 
L 342.612333 67.009307 
L 344.87287 68.055762 
L 346.919985 69.218408 
L 350.747567 71.954605 
L 354.23338 74.895383 
L 357.441137 78.238212 
L 359.919494 82.05232 
L 360.989184 84.043708 
L 362.796759 88.216218 
L 369.00507 102.676159 
L 373.145857 110.731539 
L 374.705139 112.247477 
L 377.888426 115.700902 
L 382.809065 120.677863 
L 386.105138 123.747546 
L 391.518238 128.158113 
L 401.624782 134.438242 
L 409.967142 138.947591 
L 414.225742 141.088244 
L 424.708726 146.630469 
L 431.019826 149.921991 
L 435.15818 152.185161 
L 441.134443 155.98986 
L 445.043817 158.669902 
L 450.367131 163.184978 
L 452.129473 164.655306 
L 455.323894 167.899966 
L 456.995125 169.629716 
L 458.477393 171.418801 
L 461.8 176.10757 
M 461.8 238.880656 
L 457.906078 243.567988 
L 453.204137 248.698474 
L 448.297327 253.612639 
L 443.121256 258.34549 
L 439.74066 261.467489 
L 437.896471 262.935239 
L 428.392822 269.662873 
L 422.208081 273.252619 
L 420.06284 274.331442 
L 411.223224 278.005511 
L 402.286064 281.289705 
L 395.408421 283.503137 
L 388.261108 284.897615 
L 383.59885 285.549649 
L 378.771808 286.442065 
L 366.824974 287.994517 
L 362.009359 288.428066 
L 345.136826 289.742688 
L 333.116129 290.992084 
L 323.476772 291.825819 
L 313.833342 292.439446 
L 308.972313 292.666427 
L 294.570134 294.194752 
L 287.333098 294.737471 
L 280.078426 294.975562 
L 275.230076 294.938152 
L 263.197747 294.611125 
L 255.939925 295.325444 
L 251.0998 295.488 
L 246.269095 295.303792 
L 241.473993 294.721742 
L 239.107719 294.26936 
L 236.771656 293.708902 
L 234.460025 293.029996 
L 229.999505 291.400827 
L 216.760725 285.792949 
L 212.550044 283.701894 
L 210.487397 282.414537 
L 205.157423 277.953074 
L 203.501953 276.324811 
L 200.613169 272.773832 
L 198.170234 268.947627 
L 195.190897 262.88758 
L 194.502728 260.867647 
L 193.649816 256.403331 
L 193.976603 254.255878 
L 195.50733 247.643327 
L 196.179088 245.524086 
L 197.891908 241.429685 
L 200.10506 237.399241 
L 201.335733 235.655436 
L 202.83378 233.821031 
L 206.169537 230.507434 
L 207.766202 228.885783 
L 211.245511 225.748301 
L 216.823075 221.569525 
L 218.799786 220.210543 
L 222.776407 217.711314 
L 229.142136 214.439528 
L 231.265525 213.418531 
L 233.558399 212.645997 
L 238.281019 211.582141 
L 250.133876 209.438913 
L 254.882537 209.256378 
L 257.343078 209.23146 
L 264.592393 209.463542 
L 269.453218 209.64776 
L 274.245706 210.028383 
L 286.301456 211.16769 
L 295.948399 211.887944 
L 305.61246 212.375801 
L 312.86892 212.551848 
L 320.127552 212.52132 
L 324.961644 212.329613 
L 329.782689 211.947917 
L 334.573878 211.334022 
L 339.314602 210.451562 
L 343.979957 209.272299 
L 348.534779 207.779441 
L 352.975682 206.026455 
L 365.898042 199.887047 
L 369.879312 197.278668 
L 371.487788 195.816344 
L 374.3764 192.381161 
L 375.178554 190.086812 
L 375.713562 187.930622 
L 375.978681 185.774716 
L 376.104511 183.587865 
L 375.834937 181.33432 
L 375.378645 179.143999 
L 374.373264 177.265147 
L 372.830218 175.497927 
L 367.945789 170.571521 
L 366.372023 168.902031 
L 364.618797 167.27923 
L 360.945668 164.38533 
L 355.339054 160.171587 
L 353.455261 158.798986 
L 341.57085 151.180437 
L 329.187326 144.11786 
L 320.901036 139.54191 
L 314.60595 136.282612 
L 299.653615 128.897365 
L 286.646055 123.01237 
L 277.735496 119.475572 
L 273.235017 117.910659 
L 268.667657 116.564377 
L 266.410145 115.814703 
L 261.673466 114.577173 
L 256.944468 113.529791 
L 252.330825 112.680655 
L 247.468694 111.992259 
L 245.074643 111.650939 
L 237.930239 110.198871 
L 230.854357 109.01776 
L 221.211994 108.313744 
L 216.342556 108.08063 
L 204.289835 107.606626 
L 194.614266 107.539235 
L 189.79956 107.9136 
L 187.387787 108.200021 
L 180.277372 109.589642 
L 175.753352 110.710708 
L 173.356713 111.563024 
L 171.142637 112.593531 
L 169.183291 113.758601 
L 167.247607 115.109241 
L 163.784774 118.197325 
L 160.65561 121.561788 
L 157.627497 124.987746 
L 156.39077 126.979376 
L 155.375747 128.959266 
L 152.912423 135.237563 
L 150.60394 141.49266 
L 149.448298 145.872306 
L 148.45986 150.251442 
L 146.797414 156.762225 
L 146.201853 158.784847 
L 143.596714 165.072564 
L 142.629585 167.162082 
L 137.056408 177.013271 
L 124.556373 196.02528 
L 120.583905 201.605158 
L 118.008569 205.356665 
L 116.711101 207.235263 
L 114.006685 210.862117 
L 111.320024 214.622728 
L 108.589285 218.264466 
L 107.2356 220.145277 
L 104.436991 223.682547 
L 101.741648 227.444955 
L 97.473616 232.826798 
L 93.267229 238.191786 
L 91.750712 239.948919 
L 90.00679 241.637184 
L 77.723182 252.260383 
L 74.065224 255.089888 
L 72.194415 256.535797 
L 68.205528 259.137687 
L 58.246473 265.270446 
L 53.887531 267.47358 
L 51.828476 268.471031 
L 49.527807 269.227448 
L 47.257283 269.703645 
L 39.991841 270.789529 
L 37.594242 271.098848 
L 32.775481 271.351671 
L 27.957225 271.356795 
L 18.325754 270.93061 
L 15.884348 270.589294 
L 11.298493 269.323662 
L 4.479816 267.039805 
L -1 264.877059 
M -1 59.385924 
L 44.243939 58.605223 
L 61.233285 58.381417 
L 61.233285 58.381417 
" clip-path="url(#p7697a54f62)" style="fill: none; stroke: #1f77b4; stroke-width: 1.5; stroke-linecap: square"/>
   </g>
   <g id="line2d_13">
    <path d="M 63.652881 58.352988 
L 83.01106 57.889171 
L 102.325109 56.755674 
L 121.666503 55.786049 
L 140.992972 54.953716 
L 160.337287 54.289486 
L 179.696165 53.821788 
L 199.044509 53.588431 
L 218.402126 53.629693 
L 237.752569 54.097894 
L 256.653098 55.201032 
L 274.360071 56.738558 
L 289.379898 56.967583 
L 302.228588 58.003088 
L 315.227801 60.101573 
L 326.042114 61.891731 
L 336.864224 64.772464 
L 345.107069 68.188774 
L 352.711791 73.581859 
L 358.834798 80.287672 
L 362.933641 88.535036 
" clip-path="url(#p7697a54f62)" style="fill: none; stroke: #ff7f0e; stroke-width: 1.5; stroke-linecap: square"/>
   </g>
   <g id="line2d_14">
    <path d="M 63.652881 60.795226 
L 73.337492 60.795226 
L 92.69688 60.228462 
L 112.061161 59.826766 
L 131.428229 59.561537 
L 150.797165 59.465081 
L 170.166076 59.565553 
L 189.531868 59.900238 
L 208.889719 60.509683 
L 228.226057 61.545843 
L 247.091374 63.203613 
L 264.334514 65.212523 
L 279.773003 65.903072 
L 293.527618 67.419612 
L 305.802745 69.772465 
L 316.92601 71.950752 
L 326.985627 74.946294 
L 336.007494 78.995275 
L 343.678267 84.747101 
L 349.849461 91.851088 
L 353.839008 100.30353 
" clip-path="url(#p7697a54f62)" style="fill: none; stroke: #2ca02c; stroke-width: 1.5; stroke-linecap: square"/>
   </g>
   <g id="line2d_15">
    <path d="M 63.652881 60.795226 
L 73.337492 60.795226 
L 86.863938 59.94006 
L 104.264465 58.973848 
L 123.608069 58.05923 
L 142.960539 57.319524 
L 162.320674 56.774704 
L 181.686654 56.449314 
L 201.055695 56.372768 
L 220.423602 56.57992 
L 239.433089 57.090055 
L 256.854849 57.834267 
L 272.334336 58.714116 
L 286.179848 59.832357 
L 298.664834 61.241169 
L 309.9217 62.930131 
L 320.272518 65.035715 
L 329.899748 67.721301 
L 339.015286 71.308087 
L 347.490942 76.013854 
L 355.013629 82.113366 
" clip-path="url(#p7697a54f62)" style="fill: none; stroke: #d62728; stroke-width: 1.5; stroke-linecap: square"/>
   </g>
   <g id="patch_3">
    <path d="M 57.6 307.584 
L 57.6 41.472 
" style="fill: none; stroke: #000000; stroke-width: 0.8; stroke-linejoin: miter; stroke-linecap: square"/>
   </g>
   <g id="patch_4">
    <path d="M 414.72 307.584 
L 414.72 41.472 
" style="fill: none; stroke: #000000; stroke-width: 0.8; stroke-linejoin: miter; stroke-linecap: square"/>
   </g>
   <g id="patch_5">
    <path d="M 57.6 307.584 
L 414.72 307.584 
" style="fill: none; stroke: #000000; stroke-width: 0.8; stroke-linejoin: miter; stroke-linecap: square"/>
   </g>
   <g id="patch_6">
    <path d="M 57.6 41.472 
L 414.72 41.472 
" style="fill: none; stroke: #000000; stroke-width: 0.8; stroke-linejoin: miter; stroke-linecap: square"/>
   </g>
   <g id="text_12">
    <!-- States and Reference Path  -->
    <g transform="translate(154.845 35.472)scale(0.12 -0.12)">
     <defs>
      <path id="DejaVuSans-53" d="M 3425 4513 
L 3425 3897 
Q 3066 4069 2747 4153 
Q 2428 4238 2131 4238 
Q 1616 4238 1336 4038 
Q 1056 3838 1056 3469 
Q 1056 3159 1242 3001 
Q 1428 2844 1947 2747 
L 2328 2669 
Q 3034 2534 3370 2195 
Q 3706 1856 3706 1288 
Q 3706 609 3251 259 
Q 2797 -91 1919 -91 
Q 1588 -91 1214 -16 
Q 841 59 441 206 
L 441 856 
Q 825 641 1194 531 
Q 1563 422 1919 422 
Q 2459 422 2753 634 
Q 3047 847 3047 1241 
Q 3047 1584 2836 1778 
Q 2625 1972 2144 2069 
L 1759 2144 
Q 1053 2284 737 2584 
Q 422 2884 422 3419 
Q 422 4038 858 4394 
Q 1294 4750 2059 4750 
Q 2388 4750 2728 4690 
Q 3069 4631 3425 4513 
z
" transform="scale(0.015625)"/>
      <path id="DejaVuSans-74" d="M 1172 4494 
L 1172 3500 
L 2356 3500 
L 2356 3053 
L 1172 3053 
L 1172 1153 
Q 1172 725 1289 603 
Q 1406 481 1766 481 
L 2356 481 
L 2356 0 
L 1766 0 
Q 1100 0 847 248 
Q 594 497 594 1153 
L 594 3053 
L 172 3053 
L 172 3500 
L 594 3500 
L 594 4494 
L 1172 4494 
z
" transform="scale(0.015625)"/>
      <path id="DejaVuSans-61" d="M 2194 1759 
Q 1497 1759 1228 1600 
Q 959 1441 959 1056 
Q 959 750 1161 570 
Q 1363 391 1709 391 
Q 2188 391 2477 730 
Q 2766 1069 2766 1631 
L 2766 1759 
L 2194 1759 
z
M 3341 1997 
L 3341 0 
L 2766 0 
L 2766 531 
Q 2569 213 2275 61 
Q 1981 -91 1556 -91 
Q 1019 -91 701 211 
Q 384 513 384 1019 
Q 384 1609 779 1909 
Q 1175 2209 1959 2209 
L 2766 2209 
L 2766 2266 
Q 2766 2663 2505 2880 
Q 2244 3097 1772 3097 
Q 1472 3097 1187 3025 
Q 903 2953 641 2809 
L 641 3341 
Q 956 3463 1253 3523 
Q 1550 3584 1831 3584 
Q 2591 3584 2966 3190 
Q 3341 2797 3341 1997 
z
" transform="scale(0.015625)"/>
      <path id="DejaVuSans-65" d="M 3597 1894 
L 3597 1613 
L 953 1613 
Q 991 1019 1311 708 
Q 1631 397 2203 397 
Q 2534 397 2845 478 
Q 3156 559 3463 722 
L 3463 178 
Q 3153 47 2828 -22 
Q 2503 -91 2169 -91 
Q 1331 -91 842 396 
Q 353 884 353 1716 
Q 353 2575 817 3079 
Q 1281 3584 2069 3584 
Q 2775 3584 3186 3129 
Q 3597 2675 3597 1894 
z
M 3022 2063 
Q 3016 2534 2758 2815 
Q 2500 3097 2075 3097 
Q 1594 3097 1305 2825 
Q 1016 2553 972 2059 
L 3022 2063 
z
" transform="scale(0.015625)"/>
      <path id="DejaVuSans-73" d="M 2834 3397 
L 2834 2853 
Q 2591 2978 2328 3040 
Q 2066 3103 1784 3103 
Q 1356 3103 1142 2972 
Q 928 2841 928 2578 
Q 928 2378 1081 2264 
Q 1234 2150 1697 2047 
L 1894 2003 
Q 2506 1872 2764 1633 
Q 3022 1394 3022 966 
Q 3022 478 2636 193 
Q 2250 -91 1575 -91 
Q 1294 -91 989 -36 
Q 684 19 347 128 
L 347 722 
Q 666 556 975 473 
Q 1284 391 1588 391 
Q 1994 391 2212 530 
Q 2431 669 2431 922 
Q 2431 1156 2273 1281 
Q 2116 1406 1581 1522 
L 1381 1569 
Q 847 1681 609 1914 
Q 372 2147 372 2553 
Q 372 3047 722 3315 
Q 1072 3584 1716 3584 
Q 2034 3584 2315 3537 
Q 2597 3491 2834 3397 
z
" transform="scale(0.015625)"/>
      <path id="DejaVuSans-20" transform="scale(0.015625)"/>
      <path id="DejaVuSans-6e" d="M 3513 2113 
L 3513 0 
L 2938 0 
L 2938 2094 
Q 2938 2591 2744 2837 
Q 2550 3084 2163 3084 
Q 1697 3084 1428 2787 
Q 1159 2491 1159 1978 
L 1159 0 
L 581 0 
L 581 3500 
L 1159 3500 
L 1159 2956 
Q 1366 3272 1645 3428 
Q 1925 3584 2291 3584 
Q 2894 3584 3203 3211 
Q 3513 2838 3513 2113 
z
" transform="scale(0.015625)"/>
      <path id="DejaVuSans-64" d="M 2906 2969 
L 2906 4863 
L 3481 4863 
L 3481 0 
L 2906 0 
L 2906 525 
Q 2725 213 2448 61 
Q 2172 -91 1784 -91 
Q 1150 -91 751 415 
Q 353 922 353 1747 
Q 353 2572 751 3078 
Q 1150 3584 1784 3584 
Q 2172 3584 2448 3432 
Q 2725 3281 2906 2969 
z
M 947 1747 
Q 947 1113 1208 752 
Q 1469 391 1925 391 
Q 2381 391 2643 752 
Q 2906 1113 2906 1747 
Q 2906 2381 2643 2742 
Q 2381 3103 1925 3103 
Q 1469 3103 1208 2742 
Q 947 2381 947 1747 
z
" transform="scale(0.015625)"/>
      <path id="DejaVuSans-52" d="M 2841 2188 
Q 3044 2119 3236 1894 
Q 3428 1669 3622 1275 
L 4263 0 
L 3584 0 
L 2988 1197 
Q 2756 1666 2539 1819 
Q 2322 1972 1947 1972 
L 1259 1972 
L 1259 0 
L 628 0 
L 628 4666 
L 2053 4666 
Q 2853 4666 3247 4331 
Q 3641 3997 3641 3322 
Q 3641 2881 3436 2590 
Q 3231 2300 2841 2188 
z
M 1259 4147 
L 1259 2491 
L 2053 2491 
Q 2509 2491 2742 2702 
Q 2975 2913 2975 3322 
Q 2975 3731 2742 3939 
Q 2509 4147 2053 4147 
L 1259 4147 
z
" transform="scale(0.015625)"/>
      <path id="DejaVuSans-66" d="M 2375 4863 
L 2375 4384 
L 1825 4384 
Q 1516 4384 1395 4259 
Q 1275 4134 1275 3809 
L 1275 3500 
L 2222 3500 
L 2222 3053 
L 1275 3053 
L 1275 0 
L 697 0 
L 697 3053 
L 147 3053 
L 147 3500 
L 697 3500 
L 697 3744 
Q 697 4328 969 4595 
Q 1241 4863 1831 4863 
L 2375 4863 
z
" transform="scale(0.015625)"/>
      <path id="DejaVuSans-72" d="M 2631 2963 
Q 2534 3019 2420 3045 
Q 2306 3072 2169 3072 
Q 1681 3072 1420 2755 
Q 1159 2438 1159 1844 
L 1159 0 
L 581 0 
L 581 3500 
L 1159 3500 
L 1159 2956 
Q 1341 3275 1631 3429 
Q 1922 3584 2338 3584 
Q 2397 3584 2469 3576 
Q 2541 3569 2628 3553 
L 2631 2963 
z
" transform="scale(0.015625)"/>
      <path id="DejaVuSans-63" d="M 3122 3366 
L 3122 2828 
Q 2878 2963 2633 3030 
Q 2388 3097 2138 3097 
Q 1578 3097 1268 2742 
Q 959 2388 959 1747 
Q 959 1106 1268 751 
Q 1578 397 2138 397 
Q 2388 397 2633 464 
Q 2878 531 3122 666 
L 3122 134 
Q 2881 22 2623 -34 
Q 2366 -91 2075 -91 
Q 1284 -91 818 406 
Q 353 903 353 1747 
Q 353 2603 823 3093 
Q 1294 3584 2113 3584 
Q 2378 3584 2631 3529 
Q 2884 3475 3122 3366 
z
" transform="scale(0.015625)"/>
      <path id="DejaVuSans-50" d="M 1259 4147 
L 1259 2394 
L 2053 2394 
Q 2494 2394 2734 2622 
Q 2975 2850 2975 3272 
Q 2975 3691 2734 3919 
Q 2494 4147 2053 4147 
L 1259 4147 
z
M 628 4666 
L 2053 4666 
Q 2838 4666 3239 4311 
Q 3641 3956 3641 3272 
Q 3641 2581 3239 2228 
Q 2838 1875 2053 1875 
L 1259 1875 
L 1259 0 
L 628 0 
L 628 4666 
z
" transform="scale(0.015625)"/>
      <path id="DejaVuSans-68" d="M 3513 2113 
L 3513 0 
L 2938 0 
L 2938 2094 
Q 2938 2591 2744 2837 
Q 2550 3084 2163 3084 
Q 1697 3084 1428 2787 
Q 1159 2491 1159 1978 
L 1159 0 
L 581 0 
L 581 4863 
L 1159 4863 
L 1159 2956 
Q 1366 3272 1645 3428 
Q 1925 3584 2291 3584 
Q 2894 3584 3203 3211 
Q 3513 2838 3513 2113 
z
" transform="scale(0.015625)"/>
     </defs>
     <use xlink:href="#DejaVuSans-53"/>
     <use xlink:href="#DejaVuSans-74" x="63.476562"/>
     <use xlink:href="#DejaVuSans-61" x="102.685547"/>
     <use xlink:href="#DejaVuSans-74" x="163.964844"/>
     <use xlink:href="#DejaVuSans-65" x="203.173828"/>
     <use xlink:href="#DejaVuSans-73" x="264.697266"/>
     <use xlink:href="#DejaVuSans-20" x="316.796875"/>
     <use xlink:href="#DejaVuSans-61" x="348.583984"/>
     <use xlink:href="#DejaVuSans-6e" x="409.863281"/>
     <use xlink:href="#DejaVuSans-64" x="473.242188"/>
     <use xlink:href="#DejaVuSans-20" x="536.71875"/>
     <use xlink:href="#DejaVuSans-52" x="568.505859"/>
     <use xlink:href="#DejaVuSans-65" x="633.488281"/>
     <use xlink:href="#DejaVuSans-66" x="695.011719"/>
     <use xlink:href="#DejaVuSans-65" x="730.216797"/>
     <use xlink:href="#DejaVuSans-72" x="791.740234"/>
     <use xlink:href="#DejaVuSans-65" x="830.603516"/>
     <use xlink:href="#DejaVuSans-6e" x="892.126953"/>
     <use xlink:href="#DejaVuSans-63" x="955.505859"/>
     <use xlink:href="#DejaVuSans-65" x="1010.486328"/>
     <use xlink:href="#DejaVuSans-20" x="1072.009766"/>
     <use xlink:href="#DejaVuSans-50" x="1103.796875"/>
     <use xlink:href="#DejaVuSans-61" x="1159.599609"/>
     <use xlink:href="#DejaVuSans-74" x="1220.878906"/>
     <use xlink:href="#DejaVuSans-68" x="1260.087891"/>
     <use xlink:href="#DejaVuSans-20" x="1323.466797"/>
    </g>
   </g>
   <g id="legend_1">
    <g id="patch_7">
     <path d="M 163.118594 205.662375 
L 309.201406 205.662375 
Q 311.201406 205.662375 311.201406 203.662375 
L 311.201406 145.393625 
Q 311.201406 143.393625 309.201406 143.393625 
L 163.118594 143.393625 
Q 161.118594 143.393625 161.118594 145.393625 
L 161.118594 203.662375 
Q 161.118594 205.662375 163.118594 205.662375 
z
" style="fill: #ffffff; opacity: 0.8; stroke: #cccccc; stroke-linejoin: miter"/>
    </g>
    <g id="line2d_16">
     <path d="M 165.118594 151.492063 
L 175.118594 151.492063 
L 185.118594 151.492063 
" style="fill: none; stroke: #1f77b4; stroke-width: 1.5; stroke-linecap: square"/>
    </g>
    <g id="text_13">
     <!-- path -->
     <g transform="translate(193.118594 154.992063)scale(0.1 -0.1)">
      <defs>
       <path id="DejaVuSans-70" d="M 1159 525 
L 1159 -1331 
L 581 -1331 
L 581 3500 
L 1159 3500 
L 1159 2969 
Q 1341 3281 1617 3432 
Q 1894 3584 2278 3584 
Q 2916 3584 3314 3078 
Q 3713 2572 3713 1747 
Q 3713 922 3314 415 
Q 2916 -91 2278 -91 
Q 1894 -91 1617 61 
Q 1341 213 1159 525 
z
M 3116 1747 
Q 3116 2381 2855 2742 
Q 2594 3103 2138 3103 
Q 1681 3103 1420 2742 
Q 1159 2381 1159 1747 
Q 1159 1113 1420 752 
Q 1681 391 2138 391 
Q 2594 391 2855 752 
Q 3116 1113 3116 1747 
z
" transform="scale(0.015625)"/>
      </defs>
      <use xlink:href="#DejaVuSans-70"/>
      <use xlink:href="#DejaVuSans-61" x="63.476562"/>
      <use xlink:href="#DejaVuSans-74" x="124.755859"/>
      <use xlink:href="#DejaVuSans-68" x="163.964844"/>
     </g>
    </g>
    <g id="line2d_17">
     <path d="M 165.118594 166.170187 
L 175.118594 166.170187 
L 185.118594 166.170187 
" style="fill: none; stroke: #ff7f0e; stroke-width: 1.5; stroke-linecap: square"/>
    </g>
    <g id="text_14">
     <!-- x_ref -->
     <g transform="translate(193.118594 169.670187)scale(0.1 -0.1)">
      <defs>
       <path id="DejaVuSans-78" d="M 3513 3500 
L 2247 1797 
L 3578 0 
L 2900 0 
L 1881 1375 
L 863 0 
L 184 0 
L 1544 1831 
L 300 3500 
L 978 3500 
L 1906 2253 
L 2834 3500 
L 3513 3500 
z
" transform="scale(0.015625)"/>
       <path id="DejaVuSans-5f" d="M 3263 -1063 
L 3263 -1509 
L -63 -1509 
L -63 -1063 
L 3263 -1063 
z
" transform="scale(0.015625)"/>
      </defs>
      <use xlink:href="#DejaVuSans-78"/>
      <use xlink:href="#DejaVuSans-5f" x="59.179688"/>
      <use xlink:href="#DejaVuSans-72" x="109.179688"/>
      <use xlink:href="#DejaVuSans-65" x="148.042969"/>
      <use xlink:href="#DejaVuSans-66" x="209.566406"/>
     </g>
    </g>
    <g id="line2d_18">
     <path d="M 165.118594 181.126438 
L 175.118594 181.126438 
L 185.118594 181.126438 
" style="fill: none; stroke: #2ca02c; stroke-width: 1.5; stroke-linecap: square"/>
    </g>
    <g id="text_15">
     <!-- Estimated States (x0) -->
     <g transform="translate(193.118594 184.626438)scale(0.1 -0.1)">
      <defs>
       <path id="DejaVuSans-45" d="M 628 4666 
L 3578 4666 
L 3578 4134 
L 1259 4134 
L 1259 2753 
L 3481 2753 
L 3481 2222 
L 1259 2222 
L 1259 531 
L 3634 531 
L 3634 0 
L 628 0 
L 628 4666 
z
" transform="scale(0.015625)"/>
       <path id="DejaVuSans-69" d="M 603 3500 
L 1178 3500 
L 1178 0 
L 603 0 
L 603 3500 
z
M 603 4863 
L 1178 4863 
L 1178 4134 
L 603 4134 
L 603 4863 
z
" transform="scale(0.015625)"/>
       <path id="DejaVuSans-6d" d="M 3328 2828 
Q 3544 3216 3844 3400 
Q 4144 3584 4550 3584 
Q 5097 3584 5394 3201 
Q 5691 2819 5691 2113 
L 5691 0 
L 5113 0 
L 5113 2094 
Q 5113 2597 4934 2840 
Q 4756 3084 4391 3084 
Q 3944 3084 3684 2787 
Q 3425 2491 3425 1978 
L 3425 0 
L 2847 0 
L 2847 2094 
Q 2847 2600 2669 2842 
Q 2491 3084 2119 3084 
Q 1678 3084 1418 2786 
Q 1159 2488 1159 1978 
L 1159 0 
L 581 0 
L 581 3500 
L 1159 3500 
L 1159 2956 
Q 1356 3278 1631 3431 
Q 1906 3584 2284 3584 
Q 2666 3584 2933 3390 
Q 3200 3197 3328 2828 
z
" transform="scale(0.015625)"/>
       <path id="DejaVuSans-28" d="M 1984 4856 
Q 1566 4138 1362 3434 
Q 1159 2731 1159 2009 
Q 1159 1288 1364 580 
Q 1569 -128 1984 -844 
L 1484 -844 
Q 1016 -109 783 600 
Q 550 1309 550 2009 
Q 550 2706 781 3412 
Q 1013 4119 1484 4856 
L 1984 4856 
z
" transform="scale(0.015625)"/>
       <path id="DejaVuSans-29" d="M 513 4856 
L 1013 4856 
Q 1481 4119 1714 3412 
Q 1947 2706 1947 2009 
Q 1947 1309 1714 600 
Q 1481 -109 1013 -844 
L 513 -844 
Q 928 -128 1133 580 
Q 1338 1288 1338 2009 
Q 1338 2731 1133 3434 
Q 928 4138 513 4856 
z
" transform="scale(0.015625)"/>
      </defs>
      <use xlink:href="#DejaVuSans-45"/>
      <use xlink:href="#DejaVuSans-73" x="63.183594"/>
      <use xlink:href="#DejaVuSans-74" x="115.283203"/>
      <use xlink:href="#DejaVuSans-69" x="154.492188"/>
      <use xlink:href="#DejaVuSans-6d" x="182.275391"/>
      <use xlink:href="#DejaVuSans-61" x="279.6875"/>
      <use xlink:href="#DejaVuSans-74" x="340.966797"/>
      <use xlink:href="#DejaVuSans-65" x="380.175781"/>
      <use xlink:href="#DejaVuSans-64" x="441.699219"/>
      <use xlink:href="#DejaVuSans-20" x="505.175781"/>
      <use xlink:href="#DejaVuSans-53" x="536.962891"/>
      <use xlink:href="#DejaVuSans-74" x="600.439453"/>
      <use xlink:href="#DejaVuSans-61" x="639.648438"/>
      <use xlink:href="#DejaVuSans-74" x="700.927734"/>
      <use xlink:href="#DejaVuSans-65" x="740.136719"/>
      <use xlink:href="#DejaVuSans-73" x="801.660156"/>
      <use xlink:href="#DejaVuSans-20" x="853.759766"/>
      <use xlink:href="#DejaVuSans-28" x="885.546875"/>
      <use xlink:href="#DejaVuSans-78" x="924.560547"/>
      <use xlink:href="#DejaVuSans-30" x="983.740234"/>
      <use xlink:href="#DejaVuSans-29" x="1047.363281"/>
     </g>
    </g>
    <g id="line2d_19">
     <path d="M 165.118594 195.804563 
L 175.118594 195.804563 
L 185.118594 195.804563 
" style="fill: none; stroke: #d62728; stroke-width: 1.5; stroke-linecap: square"/>
    </g>
    <g id="text_16">
     <!-- Solution States (x_bar) -->
     <g transform="translate(193.118594 199.304563)scale(0.1 -0.1)">
      <defs>
       <path id="DejaVuSans-6f" d="M 1959 3097 
Q 1497 3097 1228 2736 
Q 959 2375 959 1747 
Q 959 1119 1226 758 
Q 1494 397 1959 397 
Q 2419 397 2687 759 
Q 2956 1122 2956 1747 
Q 2956 2369 2687 2733 
Q 2419 3097 1959 3097 
z
M 1959 3584 
Q 2709 3584 3137 3096 
Q 3566 2609 3566 1747 
Q 3566 888 3137 398 
Q 2709 -91 1959 -91 
Q 1206 -91 779 398 
Q 353 888 353 1747 
Q 353 2609 779 3096 
Q 1206 3584 1959 3584 
z
" transform="scale(0.015625)"/>
       <path id="DejaVuSans-6c" d="M 603 4863 
L 1178 4863 
L 1178 0 
L 603 0 
L 603 4863 
z
" transform="scale(0.015625)"/>
       <path id="DejaVuSans-75" d="M 544 1381 
L 544 3500 
L 1119 3500 
L 1119 1403 
Q 1119 906 1312 657 
Q 1506 409 1894 409 
Q 2359 409 2629 706 
Q 2900 1003 2900 1516 
L 2900 3500 
L 3475 3500 
L 3475 0 
L 2900 0 
L 2900 538 
Q 2691 219 2414 64 
Q 2138 -91 1772 -91 
Q 1169 -91 856 284 
Q 544 659 544 1381 
z
M 1991 3584 
L 1991 3584 
z
" transform="scale(0.015625)"/>
       <path id="DejaVuSans-62" d="M 3116 1747 
Q 3116 2381 2855 2742 
Q 2594 3103 2138 3103 
Q 1681 3103 1420 2742 
Q 1159 2381 1159 1747 
Q 1159 1113 1420 752 
Q 1681 391 2138 391 
Q 2594 391 2855 752 
Q 3116 1113 3116 1747 
z
M 1159 2969 
Q 1341 3281 1617 3432 
Q 1894 3584 2278 3584 
Q 2916 3584 3314 3078 
Q 3713 2572 3713 1747 
Q 3713 922 3314 415 
Q 2916 -91 2278 -91 
Q 1894 -91 1617 61 
Q 1341 213 1159 525 
L 1159 0 
L 581 0 
L 581 4863 
L 1159 4863 
L 1159 2969 
z
" transform="scale(0.015625)"/>
      </defs>
      <use xlink:href="#DejaVuSans-53"/>
      <use xlink:href="#DejaVuSans-6f" x="63.476562"/>
      <use xlink:href="#DejaVuSans-6c" x="124.658203"/>
      <use xlink:href="#DejaVuSans-75" x="152.441406"/>
      <use xlink:href="#DejaVuSans-74" x="215.820312"/>
      <use xlink:href="#DejaVuSans-69" x="255.029297"/>
      <use xlink:href="#DejaVuSans-6f" x="282.8125"/>
      <use xlink:href="#DejaVuSans-6e" x="343.994141"/>
      <use xlink:href="#DejaVuSans-20" x="407.373047"/>
      <use xlink:href="#DejaVuSans-53" x="439.160156"/>
      <use xlink:href="#DejaVuSans-74" x="502.636719"/>
      <use xlink:href="#DejaVuSans-61" x="541.845703"/>
      <use xlink:href="#DejaVuSans-74" x="603.125"/>
      <use xlink:href="#DejaVuSans-65" x="642.333984"/>
      <use xlink:href="#DejaVuSans-73" x="703.857422"/>
      <use xlink:href="#DejaVuSans-20" x="755.957031"/>
      <use xlink:href="#DejaVuSans-28" x="787.744141"/>
      <use xlink:href="#DejaVuSans-78" x="826.757812"/>
      <use xlink:href="#DejaVuSans-5f" x="885.9375"/>
      <use xlink:href="#DejaVuSans-62" x="935.9375"/>
      <use xlink:href="#DejaVuSans-61" x="999.414062"/>
      <use xlink:href="#DejaVuSans-72" x="1060.693359"/>
      <use xlink:href="#DejaVuSans-29" x="1101.806641"/>
     </g>
    </g>
   </g>
  </g>
 </g>
 <defs>
  <clipPath id="p7697a54f62">
   <rect x="57.6" y="41.472" width="357.12" height="266.112"/>
  </clipPath>
 </defs>
</svg>
